<?xml version="1.0" encoding="utf-8" standalone="no"?>
<!DOCTYPE svg PUBLIC "-//W3C//DTD SVG 1.1//EN"
  "http://www.w3.org/Graphics/SVG/1.1/DTD/svg11.dtd">
<svg xmlns:xlink="http://www.w3.org/1999/xlink" width="902.971875pt" height="703.719688pt" viewBox="0 0 902.971875 703.719688" xmlns="http://www.w3.org/2000/svg" version="1.1">
 <metadata>
  <rdf:RDF xmlns:dc="http://purl.org/dc/elements/1.1/" xmlns:cc="http://creativecommons.org/ns#" xmlns:rdf="http://www.w3.org/1999/02/22-rdf-syntax-ns#">
   <cc:Work>
    <dc:type rdf:resource="http://purl.org/dc/dcmitype/StillImage"/>
    <dc:date>2024-06-17T20:14:51.863735</dc:date>
    <dc:format>image/svg+xml</dc:format>
    <dc:creator>
     <cc:Agent>
      <dc:title>Matplotlib v3.9.0, https://matplotlib.org/</dc:title>
     </cc:Agent>
    </dc:creator>
   </cc:Work>
  </rdf:RDF>
 </metadata>
 <defs>
  <style type="text/css">*{stroke-linejoin: round; stroke-linecap: butt}</style>
 </defs>
 <g id="figure_1">
  <g id="patch_1">
   <path d="M 0 703.719688 
L 902.971875 703.719688 
L 902.971875 0 
L 0 0 
z
" style="fill: #ffffff"/>
  </g>
  <g id="axes_1">
   <g id="patch_2">
    <path d="M 58.771875 576.718125 
L 895.771875 576.718125 
L 895.771875 22.318125 
L 58.771875 22.318125 
z
" style="fill: #ffffff"/>
   </g>
   <g id="patch_3">
    <path d="M 96.81733 576.718125 
L 108.568821 576.718125 
L 108.568821 48.718125 
L 96.81733 48.718125 
z
" clip-path="url(#p1712c4ce64)" style="fill: #87ceeb"/>
   </g>
   <g id="patch_4">
    <path d="M 111.506694 576.718125 
L 123.258186 576.718125 
L 123.258186 184.390557 
L 111.506694 184.390557 
z
" clip-path="url(#p1712c4ce64)" style="fill: #87ceeb"/>
   </g>
   <g id="patch_5">
    <path d="M 126.196059 576.718125 
L 137.947551 576.718125 
L 137.947551 286.470104 
L 126.196059 286.470104 
z
" clip-path="url(#p1712c4ce64)" style="fill: #ff0000; stroke: #ff0000; stroke-linejoin: miter"/>
   </g>
   <g id="patch_6">
    <path d="M 140.885424 576.718125 
L 152.636915 576.718125 
L 152.636915 308.474294 
L 140.885424 308.474294 
z
" clip-path="url(#p1712c4ce64)" style="fill: #ff0000; stroke: #ff0000; stroke-linejoin: miter"/>
   </g>
   <g id="patch_7">
    <path d="M 155.574788 576.718125 
L 167.32628 576.718125 
L 167.32628 402.455403 
L 155.574788 402.455403 
z
" clip-path="url(#p1712c4ce64)" style="fill: #ff0000; stroke: #ff0000; stroke-linejoin: miter"/>
   </g>
   <g id="patch_8">
    <path d="M 170.264153 576.718125 
L 182.015645 576.718125 
L 182.015645 405.562191 
L 170.264153 405.562191 
z
" clip-path="url(#p1712c4ce64)" style="fill: #ff0000; stroke: #ff0000; stroke-linejoin: miter"/>
   </g>
   <g id="patch_9">
    <path d="M 184.953518 576.718125 
L 196.705009 576.718125 
L 196.705009 418.749424 
L 184.953518 418.749424 
z
" clip-path="url(#p1712c4ce64)" style="fill: #87ceeb"/>
   </g>
   <g id="patch_10">
    <path d="M 199.642882 576.718125 
L 211.394374 576.718125 
L 211.394374 432.867819 
L 199.642882 432.867819 
z
" clip-path="url(#p1712c4ce64)" style="fill: #ff0000; stroke: #ff0000; stroke-linejoin: miter"/>
   </g>
   <g id="patch_11">
    <path d="M 214.332247 576.718125 
L 226.083739 576.718125 
L 226.083739 436.250131 
L 214.332247 436.250131 
z
" clip-path="url(#p1712c4ce64)" style="fill: #ff0000; stroke: #ff0000; stroke-linejoin: miter"/>
   </g>
   <g id="patch_12">
    <path d="M 229.021612 576.718125 
L 240.773104 576.718125 
L 240.773104 441.781438 
L 229.021612 441.781438 
z
" clip-path="url(#p1712c4ce64)" style="fill: #ff0000; stroke: #ff0000; stroke-linejoin: miter"/>
   </g>
   <g id="patch_13">
    <path d="M 243.710976 576.718125 
L 255.462468 576.718125 
L 255.462468 452.633046 
L 243.710976 452.633046 
z
" clip-path="url(#p1712c4ce64)" style="fill: #87ceeb"/>
   </g>
   <g id="patch_14">
    <path d="M 258.400341 576.718125 
L 270.151833 576.718125 
L 270.151833 461.012012 
L 258.400341 461.012012 
z
" clip-path="url(#p1712c4ce64)" style="fill: #87ceeb"/>
   </g>
   <g id="patch_15">
    <path d="M 273.089706 576.718125 
L 284.841198 576.718125 
L 284.841198 473.568843 
L 273.089706 473.568843 
z
" clip-path="url(#p1712c4ce64)" style="fill: #87ceeb"/>
   </g>
   <g id="patch_16">
    <path d="M 287.779071 576.718125 
L 299.530562 576.718125 
L 299.530562 480.495061 
L 287.779071 480.495061 
z
" clip-path="url(#p1712c4ce64)" style="fill: #ff0000; stroke: #ff0000; stroke-linejoin: miter"/>
   </g>
   <g id="patch_17">
    <path d="M 302.468435 576.718125 
L 314.219927 576.718125 
L 314.219927 483.018295 
L 302.468435 483.018295 
z
" clip-path="url(#p1712c4ce64)" style="fill: #ff0000; stroke: #ff0000; stroke-linejoin: miter"/>
   </g>
   <g id="patch_18">
    <path d="M 317.1578 576.718125 
L 328.909292 576.718125 
L 328.909292 483.829062 
L 317.1578 483.829062 
z
" clip-path="url(#p1712c4ce64)" style="fill: #ff0000; stroke: #ff0000; stroke-linejoin: miter"/>
   </g>
   <g id="patch_19">
    <path d="M 331.847165 576.718125 
L 343.598656 576.718125 
L 343.598656 485.698831 
L 331.847165 485.698831 
z
" clip-path="url(#p1712c4ce64)" style="fill: #ff0000; stroke: #ff0000; stroke-linejoin: miter"/>
   </g>
   <g id="patch_20">
    <path d="M 346.536529 576.718125 
L 358.288021 576.718125 
L 358.288021 494.052897 
L 346.536529 494.052897 
z
" clip-path="url(#p1712c4ce64)" style="fill: #ff0000; stroke: #ff0000; stroke-linejoin: miter"/>
   </g>
   <g id="patch_21">
    <path d="M 361.225894 576.718125 
L 372.977386 576.718125 
L 372.977386 494.150633 
L 361.225894 494.150633 
z
" clip-path="url(#p1712c4ce64)" style="fill: #ff0000; stroke: #ff0000; stroke-linejoin: miter"/>
   </g>
   <g id="patch_22">
    <path d="M 375.915259 576.718125 
L 387.66675 576.718125 
L 387.66675 497.803719 
L 375.915259 497.803719 
z
" clip-path="url(#p1712c4ce64)" style="fill: #87ceeb"/>
   </g>
   <g id="patch_23">
    <path d="M 390.604623 576.718125 
L 402.356115 576.718125 
L 402.356115 499.297425 
L 390.604623 499.297425 
z
" clip-path="url(#p1712c4ce64)" style="fill: #ff0000; stroke: #ff0000; stroke-linejoin: miter"/>
   </g>
   <g id="patch_24">
    <path d="M 405.293988 576.718125 
L 417.04548 576.718125 
L 417.04548 500.310303 
L 405.293988 500.310303 
z
" clip-path="url(#p1712c4ce64)" style="fill: #ff0000; stroke: #ff0000; stroke-linejoin: miter"/>
   </g>
   <g id="patch_25">
    <path d="M 419.983353 576.718125 
L 431.734844 576.718125 
L 431.734844 507.723186 
L 419.983353 507.723186 
z
" clip-path="url(#p1712c4ce64)" style="fill: #ff0000; stroke: #ff0000; stroke-linejoin: miter"/>
   </g>
   <g id="patch_26">
    <path d="M 434.672717 576.718125 
L 446.424209 576.718125 
L 446.424209 509.261433 
L 434.672717 509.261433 
z
" clip-path="url(#p1712c4ce64)" style="fill: #ff0000; stroke: #ff0000; stroke-linejoin: miter"/>
   </g>
   <g id="patch_27">
    <path d="M 449.362082 576.718125 
L 461.113574 576.718125 
L 461.113574 514.460736 
L 449.362082 514.460736 
z
" clip-path="url(#p1712c4ce64)" style="fill: #87ceeb"/>
   </g>
   <g id="patch_28">
    <path d="M 464.051447 576.718125 
L 475.802939 576.718125 
L 475.802939 516.30692 
L 464.051447 516.30692 
z
" clip-path="url(#p1712c4ce64)" style="fill: #87ceeb"/>
   </g>
   <g id="patch_29">
    <path d="M 478.740811 576.718125 
L 490.492303 576.718125 
L 490.492303 519.977004 
L 478.740811 519.977004 
z
" clip-path="url(#p1712c4ce64)" style="fill: #87ceeb"/>
   </g>
   <g id="patch_30">
    <path d="M 493.430176 576.718125 
L 505.181668 576.718125 
L 505.181668 523.450088 
L 493.430176 523.450088 
z
" clip-path="url(#p1712c4ce64)" style="fill: #87ceeb"/>
   </g>
   <g id="patch_31">
    <path d="M 508.119541 576.718125 
L 519.871033 576.718125 
L 519.871033 528.268833 
L 508.119541 528.268833 
z
" clip-path="url(#p1712c4ce64)" style="fill: #ff0000; stroke: #ff0000; stroke-linejoin: miter"/>
   </g>
   <g id="patch_32">
    <path d="M 522.808906 576.718125 
L 534.560397 576.718125 
L 534.560397 532.662668 
L 522.808906 532.662668 
z
" clip-path="url(#p1712c4ce64)" style="fill: #ff0000; stroke: #ff0000; stroke-linejoin: miter"/>
   </g>
   <g id="patch_33">
    <path d="M 537.49827 576.718125 
L 549.249762 576.718125 
L 549.249762 532.815972 
L 537.49827 532.815972 
z
" clip-path="url(#p1712c4ce64)" style="fill: #ff0000; stroke: #ff0000; stroke-linejoin: miter"/>
   </g>
   <g id="patch_34">
    <path d="M 552.187635 576.718125 
L 563.939127 576.718125 
L 563.939127 533.936822 
L 552.187635 533.936822 
z
" clip-path="url(#p1712c4ce64)" style="fill: #ff0000; stroke: #ff0000; stroke-linejoin: miter"/>
   </g>
   <g id="patch_35">
    <path d="M 566.877 576.718125 
L 578.628491 576.718125 
L 578.628491 535.064018 
L 566.877 535.064018 
z
" clip-path="url(#p1712c4ce64)" style="fill: #ff0000; stroke: #ff0000; stroke-linejoin: miter"/>
   </g>
   <g id="patch_36">
    <path d="M 581.566364 576.718125 
L 593.317856 576.718125 
L 593.317856 536.219776 
L 581.566364 536.219776 
z
" clip-path="url(#p1712c4ce64)" style="fill: #ff0000; stroke: #ff0000; stroke-linejoin: miter"/>
   </g>
   <g id="patch_37">
    <path d="M 596.255729 576.718125 
L 608.007221 576.718125 
L 608.007221 537.022359 
L 596.255729 537.022359 
z
" clip-path="url(#p1712c4ce64)" style="fill: #ff0000; stroke: #ff0000; stroke-linejoin: miter"/>
   </g>
   <g id="patch_38">
    <path d="M 610.945094 576.718125 
L 622.696585 576.718125 
L 622.696585 537.329907 
L 610.945094 537.329907 
z
" clip-path="url(#p1712c4ce64)" style="fill: #ff0000; stroke: #ff0000; stroke-linejoin: miter"/>
   </g>
   <g id="patch_39">
    <path d="M 625.634458 576.718125 
L 637.38595 576.718125 
L 637.38595 548.377401 
L 625.634458 548.377401 
z
" clip-path="url(#p1712c4ce64)" style="fill: #87ceeb"/>
   </g>
   <g id="patch_40">
    <path d="M 640.323823 576.718125 
L 652.075315 576.718125 
L 652.075315 550.437074 
L 640.323823 550.437074 
z
" clip-path="url(#p1712c4ce64)" style="fill: #ff0000; stroke: #ff0000; stroke-linejoin: miter"/>
   </g>
   <g id="patch_41">
    <path d="M 655.013188 576.718125 
L 666.764679 576.718125 
L 666.764679 551.843469 
L 655.013188 551.843469 
z
" clip-path="url(#p1712c4ce64)" style="fill: #ff0000; stroke: #ff0000; stroke-linejoin: miter"/>
   </g>
   <g id="patch_42">
    <path d="M 669.702552 576.718125 
L 681.454044 576.718125 
L 681.454044 552.663748 
L 669.702552 552.663748 
z
" clip-path="url(#p1712c4ce64)" style="fill: #ff0000; stroke: #ff0000; stroke-linejoin: miter"/>
   </g>
   <g id="patch_43">
    <path d="M 684.391917 576.718125 
L 696.143409 576.718125 
L 696.143409 557.257078 
L 684.391917 557.257078 
z
" clip-path="url(#p1712c4ce64)" style="fill: #87ceeb"/>
   </g>
   <g id="patch_44">
    <path d="M 699.081282 576.718125 
L 710.832774 576.718125 
L 710.832774 558.20933 
L 699.081282 558.20933 
z
" clip-path="url(#p1712c4ce64)" style="fill: #ff0000; stroke: #ff0000; stroke-linejoin: miter"/>
   </g>
   <g id="patch_45">
    <path d="M 713.770646 576.718125 
L 725.522138 576.718125 
L 725.522138 558.379189 
L 713.770646 558.379189 
z
" clip-path="url(#p1712c4ce64)" style="fill: #ff0000; stroke: #ff0000; stroke-linejoin: miter"/>
   </g>
   <g id="patch_46">
    <path d="M 728.460011 576.718125 
L 740.211503 576.718125 
L 740.211503 562.037708 
L 728.460011 562.037708 
z
" clip-path="url(#p1712c4ce64)" style="fill: #87ceeb"/>
   </g>
   <g id="patch_47">
    <path d="M 743.149376 576.718125 
L 754.900868 576.718125 
L 754.900868 562.070041 
L 743.149376 562.070041 
z
" clip-path="url(#p1712c4ce64)" style="fill: #87ceeb"/>
   </g>
   <g id="patch_48">
    <path d="M 757.838741 576.718125 
L 769.590232 576.718125 
L 769.590232 563.387555 
L 757.838741 563.387555 
z
" clip-path="url(#p1712c4ce64)" style="fill: #87ceeb"/>
   </g>
   <g id="patch_49">
    <path d="M 772.528105 576.718125 
L 784.279597 576.718125 
L 784.279597 564.77333 
L 772.528105 564.77333 
z
" clip-path="url(#p1712c4ce64)" style="fill: #87ceeb"/>
   </g>
   <g id="patch_50">
    <path d="M 787.21747 576.718125 
L 798.968962 576.718125 
L 798.968962 566.295613 
L 787.21747 566.295613 
z
" clip-path="url(#p1712c4ce64)" style="fill: #ff0000; stroke: #ff0000; stroke-linejoin: miter"/>
   </g>
   <g id="patch_51">
    <path d="M 801.906835 576.718125 
L 813.658326 576.718125 
L 813.658326 566.859794 
L 801.906835 566.859794 
z
" clip-path="url(#p1712c4ce64)" style="fill: #ff0000; stroke: #ff0000; stroke-linejoin: miter"/>
   </g>
   <g id="patch_52">
    <path d="M 816.596199 576.718125 
L 828.347691 576.718125 
L 828.347691 567.721555 
L 816.596199 567.721555 
z
" clip-path="url(#p1712c4ce64)" style="fill: #ff0000; stroke: #ff0000; stroke-linejoin: miter"/>
   </g>
   <g id="patch_53">
    <path d="M 831.285564 576.718125 
L 843.037056 576.718125 
L 843.037056 568.080714 
L 831.285564 568.080714 
z
" clip-path="url(#p1712c4ce64)" style="fill: #ff0000; stroke: #ff0000; stroke-linejoin: miter"/>
   </g>
   <g id="patch_54">
    <path d="M 845.974929 576.718125 
L 857.72642 576.718125 
L 857.72642 568.964651 
L 845.974929 568.964651 
z
" clip-path="url(#p1712c4ce64)" style="fill: #87ceeb"/>
   </g>
   <g id="patch_55">
    <path d="M 146.36531 320.286456 
Q 165.838344 295.049094 141.798857 288.652383 
L 140.641709 293.001062 
Q 137.455823 289.545694 132.071805 286.470104 
Q 137.869024 284.522933 143.213149 283.337331 
L 142.056001 287.68601 
Q 167.548702 294.46941 147.157029 320.897343 
L 146.36531 320.286456 
z
" style="fill: #0000ff; stroke: #0000ff; stroke-linecap: round"/>
   </g>
   <g id="patch_56">
    <path d="M 132.366297 314.876488 
Q 139.710483 320.228999 143.110833 317.510802 
L 140.301018 313.995843 
Q 143.082459 315.93755 146.761169 308.474294 
Q 149.386908 315.369964 146.54505 321.806865 
L 143.735236 318.291905 
Q 139.738517 321.486832 131.777313 315.684633 
L 132.366297 314.876488 
z
" style="fill: #0000ff; stroke: #0000ff; stroke-linecap: round"/>
   </g>
   <g id="patch_57">
    <path d="M 175.6588 406.050575 
Q 173.570805 398.673819 170.062427 398.024663 
L 169.243688 402.449554 
Q 169.455424 398.758051 161.450534 402.455403 
Q 163.622576 394.970419 171.063108 392.616462 
L 170.244369 397.041353 
Q 174.363767 397.803567 176.620998 405.778225 
L 175.6588 406.050575 
z
" style="fill: #0000ff; stroke: #0000ff; stroke-linecap: round"/>
   </g>
   <g id="patch_58">
    <path d="M 161.906208 404.136593 
Q 164.865009 410.687248 168.1902 411.054796 
L 168.684594 406.582036 
Q 168.584548 410.444434 176.139899 405.562191 
Q 175.124975 413.481368 167.585941 416.521501 
L 168.080335 412.048742 
Q 164.188383 411.618547 160.99486 404.54823 
L 161.906208 404.136593 
z
" style="fill: #0000ff; stroke: #0000ff; stroke-linecap: round"/>
   </g>
   <g id="patch_59">
    <path d="M 219.716743 445.00881 
Q 222.056841 432.665313 215.278274 431.571517 
L 214.561422 436.014052 
Q 212.971311 432.935323 205.518628 432.867819 
Q 210.385031 428.032943 216.154426 426.141751 
L 215.437574 430.584287 
Q 223.230774 431.841805 220.699243 445.195074 
L 219.716743 445.00881 
z
" style="fill: #0000ff; stroke: #0000ff; stroke-linecap: round"/>
   </g>
   <g id="patch_60">
    <path d="M 234.401909 447.168269 
Q 235.973517 435.599734 229.890763 434.592563 
L 229.15567 439.032117 
Q 227.827768 435.914979 220.207993 436.250131 
Q 224.859831 431.081933 230.78921 429.166442 
L 230.054117 433.605996 
Q 237.095174 434.771841 235.392807 447.302884 
L 234.401909 447.168269 
z
" style="fill: #0000ff; stroke: #0000ff; stroke-linecap: round"/>
   </g>
   <g id="patch_61">
    <path d="M 205.935373 443.810381 
Q 219.088956 463.652306 229.495529 450.134112 
L 225.929737 447.389094 
Q 230.123692 446.110603 234.897358 441.781438 
Q 234.81887 448.06592 233.85372 453.489134 
L 230.287928 450.744116 
Q 219.028224 465.370531 205.101884 444.362917 
L 205.935373 443.810381 
z
" style="fill: #0000ff; stroke: #0000ff; stroke-linecap: round"/>
   </g>
   <g id="patch_62">
    <path d="M 322.54359 489.886393 
Q 317.512725 465.167731 301.768607 474.730113 
L 304.104624 478.576283 
Q 299.658097 478.308598 293.654816 480.495061 
Q 296.06241 474.729205 298.913474 470.029239 
L 301.249491 473.875409 
Q 318.20903 463.574826 323.523501 489.686957 
L 322.54359 489.886393 
z
" style="fill: #0000ff; stroke: #0000ff; stroke-linecap: round"/>
   </g>
   <g id="patch_63">
    <path d="M 293.988378 487.732444 
Q 300.146298 493.247063 303.605352 491.495404 
L 301.572367 487.480809 
Q 303.733136 490.27738 308.344181 483.018295 
Q 310.397899 490.329893 306.090111 496.402131 
L 304.057126 492.387536 
Q 299.988325 494.447971 293.321254 488.47739 
L 293.988378 487.732444 
z
" style="fill: #0000ff; stroke: #0000ff; stroke-linecap: round"/>
   </g>
   <g id="patch_64">
    <path d="M 337.223892 490.855264 
Q 336.64839 481.686038 332.315126 480.841997 
L 331.454777 485.258987 
Q 331.094525 481.897161 323.033546 483.829062 
Q 326.661206 477.429009 333.366663 475.443454 
L 332.506315 479.860444 
Q 337.598024 480.852215 338.221929 490.792623 
L 337.223892 490.855264 
z
" style="fill: #0000ff; stroke: #0000ff; stroke-linecap: round"/>
   </g>
   <g id="patch_65">
    <path d="M 308.748321 489.020598 
Q 322.84633 508.373849 332.698867 494.286706 
L 329.011283 491.707613 
Q 333.147406 490.230353 337.72291 485.698831 
Q 337.922421 491.977908 337.205914 497.438932 
L 333.51833 494.859838 
Q 322.862895 510.094965 307.940041 489.609395 
L 308.748321 489.020598 
z
" style="fill: #0000ff; stroke: #0000ff; stroke-linecap: round"/>
   </g>
   <g id="patch_66">
    <path d="M 366.613316 498.552815 
Q 364.897666 490.753877 361.240168 490.031283 
L 360.367984 494.445951 
Q 360.50107 490.843727 352.412275 494.052897 
Q 355.020101 486.824622 362.30617 484.635577 
L 361.433986 489.050246 
Q 365.733674 489.899713 367.589964 498.337967 
L 366.613316 498.552815 
z
" style="fill: #0000ff; stroke: #0000ff; stroke-linecap: round"/>
   </g>
   <g id="patch_67">
    <path d="M 352.813092 495.827091 
Q 357.175911 501.677371 360.544553 501.257484 
L 359.987954 496.792039 
Q 360.810865 500.525928 367.10164 494.150633 
Q 367.795662 502.059761 361.224842 506.715249 
L 360.668242 502.249805 
Q 356.722154 502.741669 352.011458 496.424906 
L 352.813092 495.827091 
z
" style="fill: #0000ff; stroke: #0000ff; stroke-linecap: round"/>
   </g>
   <g id="patch_68">
    <path d="M 410.669953 508.02259 
Q 410.971945 497.832295 405.975364 496.926996 
L 405.173099 501.354904 
Q 404.384006 498.121467 396.480369 499.297425 
Q 400.630884 493.459582 406.955909 491.515108 
L 406.153645 495.943016 
Q 411.996998 497.001736 411.669514 508.052212 
L 410.669953 508.02259 
z
" style="fill: #0000ff; stroke: #0000ff; stroke-linecap: round"/>
   </g>
   <g id="patch_69">
    <path d="M 396.823499 504.609369 
Q 402.709767 510.163053 406.167468 508.625053 
L 404.33861 504.51345 
Q 406.322858 507.488363 411.169734 500.310303 
Q 413.063623 507.71965 408.402739 513.650346 
L 406.573881 509.538743 
Q 402.50781 511.347348 396.137239 505.336726 
L 396.823499 504.609369 
z
" style="fill: #0000ff; stroke: #0000ff; stroke-linecap: round"/>
   </g>
   <g id="patch_70">
    <path d="M 440.051319 513.990122 
Q 439.113751 505.255063 435.022685 504.440681 
L 434.144136 508.854087 
Q 433.959801 505.42522 425.859099 507.723186 
Q 429.210838 501.068012 436.096466 499.046518 
L 435.217918 503.459924 
Q 440.029623 504.41776 441.045608 513.883401 
L 440.051319 513.990122 
z
" style="fill: #0000ff; stroke: #0000ff; stroke-linecap: round"/>
   </g>
   <g id="patch_71">
    <path d="M 426.237263 512.004111 
Q 431.178073 517.716321 434.593015 516.892322 
L 433.537492 512.517865 
Q 434.823973 516.023723 440.548463 509.261433 
Q 441.769371 517.002292 435.883098 522.23888 
L 434.827575 517.864423 
Q 430.820338 518.831338 425.480934 512.658302 
L 426.237263 512.004111 
z
" style="fill: #0000ff; stroke: #0000ff; stroke-linecap: round"/>
   </g>
   <g id="patch_72">
    <path d="M 528.24156 528.872874 
Q 524.94086 522.559882 521.630134 522.350633 
L 521.346285 526.841672 
Q 521.282853 522.953932 513.995287 528.268833 
Q 514.548785 520.275824 521.977061 516.861586 
L 521.693212 521.352624 
Q 525.566069 521.597402 529.127743 528.409539 
L 528.24156 528.872874 
z
" style="fill: #0000ff; stroke: #0000ff; stroke-linecap: round"/>
   </g>
   <g id="patch_73">
    <path d="M 601.675223 539.174529 
Q 573.128844 475.496427 534.922919 524.852143 
L 538.481349 527.606699 
Q 533.71457 529.675496 528.684651 532.662668 
Q 529.552536 526.893762 530.573727 521.485463 
L 534.132157 524.240019 
Q 573.359055 473.565375 602.587727 538.765461 
L 601.675223 539.174529 
z
" style="fill: #008000; stroke: #008000; stroke-linecap: round"/>
   </g>
   <g id="patch_74">
    <path d="M 514.469628 527.149477 
Q 522.139507 550.158779 535.995616 539.48515 
L 533.24948 535.920218 
Q 537.652339 535.736351 543.374016 532.815972 
Q 541.668146 538.85038 539.352005 543.842288 
L 536.605869 540.277357 
Q 521.635581 551.80926 513.520946 527.465709 
L 514.469628 527.149477 
z
" style="fill: #0000ff; stroke: #0000ff; stroke-linecap: round"/>
   </g>
   <g id="patch_75">
    <path d="M 543.780395 535.339729 
Q 548.005843 541.234426 551.363901 540.903836 
L 550.923021 536.425485 
Q 551.638122 540.197728 558.063381 533.936822 
Q 558.614751 541.873958 551.902753 546.377375 
L 551.461874 541.899025 
Q 547.529374 542.286167 542.967637 535.922331 
L 543.780395 535.339729 
z
" style="fill: #0000ff; stroke: #0000ff; stroke-linecap: round"/>
   </g>
   <g id="patch_76">
    <path d="M 616.359053 540.283375 
Q 601.257858 503.908454 579.385512 527.606663 
L 582.692331 530.658703 
Q 578.011379 532.027108 572.752745 535.064018 
Q 573.89069 529.154157 575.343844 523.876392 
L 578.650663 526.928432 
Q 601.582479 502.08231 617.282626 539.899951 
L 616.359053 540.283375 
z
" style="fill: #008000; stroke: #008000; stroke-linecap: round"/>
   </g>
   <g id="patch_77">
    <path d="M 573.169644 537.088122 
Q 577.132407 543.073102 580.469552 542.910279 
L 580.250252 538.415625 
Q 580.760243 542.249658 587.44211 536.219776 
Q 587.707487 544.204758 580.737586 548.403744 
L 580.518286 543.90909 
Q 576.612767 544.099646 572.335847 537.640194 
L 573.169644 537.088122 
z
" style="fill: #0000ff; stroke: #0000ff; stroke-linecap: round"/>
   </g>
   <g id="patch_78">
    <path d="M 558.501785 536.540104 
Q 577.297239 570.81362 596.339096 545.148417 
L 592.72515 542.467112 
Q 597.229132 540.612219 602.131475 537.022359 
Q 601.636586 543.023162 600.75614 548.425567 
L 597.142195 545.744262 
Q 577.170664 572.66251 557.624976 537.020942 
L 558.501785 536.540104 
z
" style="fill: #008000; stroke: #008000; stroke-linecap: round"/>
   </g>
   <g id="patch_79">
    <path d="M 587.871463 537.983476 
Q 600.029637 558.356053 611.026735 545.415824 
L 607.597734 542.501729 
Q 611.845436 541.431689 616.82084 537.329907 
Q 616.444097 543.606236 615.217737 548.977496 
L 611.788736 546.063401 
Q 599.886904 560.068225 587.012757 538.495944 
L 587.871463 537.983476 
z
" style="fill: #0000ff; stroke: #0000ff; stroke-linecap: round"/>
   </g>
   <g id="patch_80">
    <path d="M 660.428474 552.205829 
Q 657.609696 545.545508 654.271588 545.119447 
L 653.70185 549.583235 
Q 653.852944 545.738669 646.199569 550.437074 
Q 647.40576 542.562356 654.967934 539.663707 
L 654.398196 544.127495 
Q 658.306557 544.62634 661.349394 551.816078 
L 660.428474 552.205829 
z
" style="fill: #0000ff; stroke: #0000ff; stroke-linecap: round"/>
   </g>
   <g id="patch_81">
    <path d="M 675.095711 555.606577 
Q 673.077138 548.159237 669.547668 547.491068 
L 668.710634 551.912536 
Q 668.918765 548.235053 660.888934 551.843469 
Q 663.146362 544.398424 670.570709 542.087053 
L 669.733675 546.50852 
Q 673.878478 547.293178 676.060886 555.34497 
L 675.095711 555.606577 
z
" style="fill: #0000ff; stroke: #0000ff; stroke-linecap: round"/>
   </g>
   <g id="patch_82">
    <path d="M 646.643203 551.619416 
Q 657.585263 572.667535 669.320769 560.39537 
L 666.068472 557.285295 
Q 670.37131 556.466365 675.578298 552.663748 
Q 674.834604 558.906722 673.295798 564.196572 
L 670.043501 561.086497 
Q 657.342416 574.368397 645.755935 552.08067 
L 646.643203 551.619416 
z
" style="fill: #0000ff; stroke: #0000ff; stroke-linecap: round"/>
   </g>
   <g id="patch_83">
    <path d="M 719.196595 559.238539 
Q 716.075618 552.809743 712.761679 552.51266 
L 712.359881 556.994686 
Q 712.391914 553.114729 704.957028 558.20933 
Q 705.750347 550.24489 713.252766 547.034628 
L 712.850968 551.516654 
Q 716.728215 551.864236 720.09619 558.801814 
L 719.196595 559.238539 
z
" style="fill: #0000ff; stroke: #0000ff; stroke-linecap: round"/>
   </g>
   <g id="patch_84">
    <path d="M 705.385273 558.639353 
Q 709.063458 564.742727 712.381863 564.751054 
L 712.393154 560.251068 
Q 712.693091 564.12783 719.646392 558.379189 
Q 719.577015 566.393117 712.368061 570.251037 
L 712.379353 565.751051 
Q 708.497698 565.74131 704.528782 559.155515 
L 705.385273 558.639353 
z
" style="fill: #0000ff; stroke: #0000ff; stroke-linecap: round"/>
   </g>
   <g id="patch_85">
    <path d="M 807.327624 567.671449 
Q 804.349801 561.139238 801.027825 560.777814 
L 800.541107 565.251415 
Q 800.636865 561.384758 793.093216 566.295613 
Q 794.081133 558.366647 801.622703 555.310079 
L 801.135985 559.78368 
Q 805.023672 560.206652 808.237537 567.256649 
L 807.327624 567.671449 
z
" style="fill: #800080; stroke: #800080; stroke-linecap: round"/>
   </g>
   <g id="patch_86">
    <path d="M 793.52704 566.805803 
Q 797.064603 572.979341 800.377183 573.066427 
L 800.495445 568.567981 
Q 800.7003 572.455048 807.782581 566.859794 
Q 807.537783 574.874894 800.232641 578.564527 
L 800.350903 574.066082 
Q 796.476419 573.964224 792.659392 567.302983 
L 793.52704 566.805803 
z
" style="fill: #0000ff; stroke: #0000ff; stroke-linecap: round"/>
   </g>
   <g id="patch_87">
    <path d="M 836.713363 568.630801 
Q 833.542925 562.237407 830.231407 561.962713 
L 829.859405 566.44731 
Q 829.868365 562.563099 822.471945 567.721555 
Q 823.198026 559.74535 830.686077 556.481538 
L 830.314075 560.966136 
Q 834.18807 561.287488 837.609257 568.186533 
L 836.713363 568.630801 
z
" style="fill: #800080; stroke: #800080; stroke-linecap: round"/>
   </g>
   <g id="patch_88">
    <path d="M 822.904994 568.071082 
Q 826.461916 574.23388 829.774916 574.310664 
L 829.879183 569.811872 
Q 830.096303 573.698288 837.16131 568.080714 
Q 836.941281 576.09685 829.64748 579.809188 
L 829.751746 575.310396 
Q 825.876799 575.220588 822.038897 568.570959 
L 822.904994 568.071082 
z
" style="fill: #800080; stroke: #800080; stroke-linecap: round"/>
   </g>
   <g id="matplotlib.axis_1">
    <g id="xtick_1">
     <g id="line2d_1">
      <defs>
       <path id="m21e84a66ce" d="M 0 0 
L 0 3.5 
" style="stroke: #000000; stroke-width: 0.8"/>
      </defs>
      <g>
       <use xlink:href="#m21e84a66ce" x="102.693075" y="576.718125" style="stroke: #000000; stroke-width: 0.8"/>
      </g>
     </g>
     <g id="text_1">
      <!-- California -->
      <g transform="translate(105.45245 631.204063) rotate(-90) scale(0.1 -0.1)">
       <defs>
        <path id="DejaVuSans-43" d="M 4122 4306 
L 4122 3641 
Q 3803 3938 3442 4084 
Q 3081 4231 2675 4231 
Q 1875 4231 1450 3742 
Q 1025 3253 1025 2328 
Q 1025 1406 1450 917 
Q 1875 428 2675 428 
Q 3081 428 3442 575 
Q 3803 722 4122 1019 
L 4122 359 
Q 3791 134 3420 21 
Q 3050 -91 2638 -91 
Q 1578 -91 968 557 
Q 359 1206 359 2328 
Q 359 3453 968 4101 
Q 1578 4750 2638 4750 
Q 3056 4750 3426 4639 
Q 3797 4528 4122 4306 
z
" transform="scale(0.015625)"/>
        <path id="DejaVuSans-61" d="M 2194 1759 
Q 1497 1759 1228 1600 
Q 959 1441 959 1056 
Q 959 750 1161 570 
Q 1363 391 1709 391 
Q 2188 391 2477 730 
Q 2766 1069 2766 1631 
L 2766 1759 
L 2194 1759 
z
M 3341 1997 
L 3341 0 
L 2766 0 
L 2766 531 
Q 2569 213 2275 61 
Q 1981 -91 1556 -91 
Q 1019 -91 701 211 
Q 384 513 384 1019 
Q 384 1609 779 1909 
Q 1175 2209 1959 2209 
L 2766 2209 
L 2766 2266 
Q 2766 2663 2505 2880 
Q 2244 3097 1772 3097 
Q 1472 3097 1187 3025 
Q 903 2953 641 2809 
L 641 3341 
Q 956 3463 1253 3523 
Q 1550 3584 1831 3584 
Q 2591 3584 2966 3190 
Q 3341 2797 3341 1997 
z
" transform="scale(0.015625)"/>
        <path id="DejaVuSans-6c" d="M 603 4863 
L 1178 4863 
L 1178 0 
L 603 0 
L 603 4863 
z
" transform="scale(0.015625)"/>
        <path id="DejaVuSans-69" d="M 603 3500 
L 1178 3500 
L 1178 0 
L 603 0 
L 603 3500 
z
M 603 4863 
L 1178 4863 
L 1178 4134 
L 603 4134 
L 603 4863 
z
" transform="scale(0.015625)"/>
        <path id="DejaVuSans-66" d="M 2375 4863 
L 2375 4384 
L 1825 4384 
Q 1516 4384 1395 4259 
Q 1275 4134 1275 3809 
L 1275 3500 
L 2222 3500 
L 2222 3053 
L 1275 3053 
L 1275 0 
L 697 0 
L 697 3053 
L 147 3053 
L 147 3500 
L 697 3500 
L 697 3744 
Q 697 4328 969 4595 
Q 1241 4863 1831 4863 
L 2375 4863 
z
" transform="scale(0.015625)"/>
        <path id="DejaVuSans-6f" d="M 1959 3097 
Q 1497 3097 1228 2736 
Q 959 2375 959 1747 
Q 959 1119 1226 758 
Q 1494 397 1959 397 
Q 2419 397 2687 759 
Q 2956 1122 2956 1747 
Q 2956 2369 2687 2733 
Q 2419 3097 1959 3097 
z
M 1959 3584 
Q 2709 3584 3137 3096 
Q 3566 2609 3566 1747 
Q 3566 888 3137 398 
Q 2709 -91 1959 -91 
Q 1206 -91 779 398 
Q 353 888 353 1747 
Q 353 2609 779 3096 
Q 1206 3584 1959 3584 
z
" transform="scale(0.015625)"/>
        <path id="DejaVuSans-72" d="M 2631 2963 
Q 2534 3019 2420 3045 
Q 2306 3072 2169 3072 
Q 1681 3072 1420 2755 
Q 1159 2438 1159 1844 
L 1159 0 
L 581 0 
L 581 3500 
L 1159 3500 
L 1159 2956 
Q 1341 3275 1631 3429 
Q 1922 3584 2338 3584 
Q 2397 3584 2469 3576 
Q 2541 3569 2628 3553 
L 2631 2963 
z
" transform="scale(0.015625)"/>
        <path id="DejaVuSans-6e" d="M 3513 2113 
L 3513 0 
L 2938 0 
L 2938 2094 
Q 2938 2591 2744 2837 
Q 2550 3084 2163 3084 
Q 1697 3084 1428 2787 
Q 1159 2491 1159 1978 
L 1159 0 
L 581 0 
L 581 3500 
L 1159 3500 
L 1159 2956 
Q 1366 3272 1645 3428 
Q 1925 3584 2291 3584 
Q 2894 3584 3203 3211 
Q 3513 2838 3513 2113 
z
" transform="scale(0.015625)"/>
       </defs>
       <use xlink:href="#DejaVuSans-43"/>
       <use xlink:href="#DejaVuSans-61" x="69.824219"/>
       <use xlink:href="#DejaVuSans-6c" x="131.103516"/>
       <use xlink:href="#DejaVuSans-69" x="158.886719"/>
       <use xlink:href="#DejaVuSans-66" x="186.669922"/>
       <use xlink:href="#DejaVuSans-6f" x="221.875"/>
       <use xlink:href="#DejaVuSans-72" x="283.056641"/>
       <use xlink:href="#DejaVuSans-6e" x="322.419922"/>
       <use xlink:href="#DejaVuSans-69" x="385.798828"/>
       <use xlink:href="#DejaVuSans-61" x="413.582031"/>
      </g>
     </g>
    </g>
    <g id="xtick_2">
     <g id="line2d_2">
      <g>
       <use xlink:href="#m21e84a66ce" x="117.38244" y="576.718125" style="stroke: #000000; stroke-width: 0.8"/>
      </g>
     </g>
     <g id="text_2">
      <!-- Texas -->
      <g transform="translate(120.141815 611.360313) rotate(-90) scale(0.1 -0.1)">
       <defs>
        <path id="DejaVuSans-54" d="M -19 4666 
L 3928 4666 
L 3928 4134 
L 2272 4134 
L 2272 0 
L 1638 0 
L 1638 4134 
L -19 4134 
L -19 4666 
z
" transform="scale(0.015625)"/>
        <path id="DejaVuSans-65" d="M 3597 1894 
L 3597 1613 
L 953 1613 
Q 991 1019 1311 708 
Q 1631 397 2203 397 
Q 2534 397 2845 478 
Q 3156 559 3463 722 
L 3463 178 
Q 3153 47 2828 -22 
Q 2503 -91 2169 -91 
Q 1331 -91 842 396 
Q 353 884 353 1716 
Q 353 2575 817 3079 
Q 1281 3584 2069 3584 
Q 2775 3584 3186 3129 
Q 3597 2675 3597 1894 
z
M 3022 2063 
Q 3016 2534 2758 2815 
Q 2500 3097 2075 3097 
Q 1594 3097 1305 2825 
Q 1016 2553 972 2059 
L 3022 2063 
z
" transform="scale(0.015625)"/>
        <path id="DejaVuSans-78" d="M 3513 3500 
L 2247 1797 
L 3578 0 
L 2900 0 
L 1881 1375 
L 863 0 
L 184 0 
L 1544 1831 
L 300 3500 
L 978 3500 
L 1906 2253 
L 2834 3500 
L 3513 3500 
z
" transform="scale(0.015625)"/>
        <path id="DejaVuSans-73" d="M 2834 3397 
L 2834 2853 
Q 2591 2978 2328 3040 
Q 2066 3103 1784 3103 
Q 1356 3103 1142 2972 
Q 928 2841 928 2578 
Q 928 2378 1081 2264 
Q 1234 2150 1697 2047 
L 1894 2003 
Q 2506 1872 2764 1633 
Q 3022 1394 3022 966 
Q 3022 478 2636 193 
Q 2250 -91 1575 -91 
Q 1294 -91 989 -36 
Q 684 19 347 128 
L 347 722 
Q 666 556 975 473 
Q 1284 391 1588 391 
Q 1994 391 2212 530 
Q 2431 669 2431 922 
Q 2431 1156 2273 1281 
Q 2116 1406 1581 1522 
L 1381 1569 
Q 847 1681 609 1914 
Q 372 2147 372 2553 
Q 372 3047 722 3315 
Q 1072 3584 1716 3584 
Q 2034 3584 2315 3537 
Q 2597 3491 2834 3397 
z
" transform="scale(0.015625)"/>
       </defs>
       <use xlink:href="#DejaVuSans-54"/>
       <use xlink:href="#DejaVuSans-65" x="44.083984"/>
       <use xlink:href="#DejaVuSans-78" x="103.857422"/>
       <use xlink:href="#DejaVuSans-61" x="163.037109"/>
       <use xlink:href="#DejaVuSans-73" x="224.316406"/>
      </g>
     </g>
    </g>
    <g id="xtick_3">
     <g id="line2d_3">
      <g>
       <use xlink:href="#m21e84a66ce" x="132.071805" y="576.718125" style="stroke: #000000; stroke-width: 0.8"/>
      </g>
     </g>
     <g id="text_3">
      <!-- Florida -->
      <g transform="translate(134.83118 617.732188) rotate(-90) scale(0.1 -0.1)">
       <defs>
        <path id="DejaVuSans-46" d="M 628 4666 
L 3309 4666 
L 3309 4134 
L 1259 4134 
L 1259 2759 
L 3109 2759 
L 3109 2228 
L 1259 2228 
L 1259 0 
L 628 0 
L 628 4666 
z
" transform="scale(0.015625)"/>
        <path id="DejaVuSans-64" d="M 2906 2969 
L 2906 4863 
L 3481 4863 
L 3481 0 
L 2906 0 
L 2906 525 
Q 2725 213 2448 61 
Q 2172 -91 1784 -91 
Q 1150 -91 751 415 
Q 353 922 353 1747 
Q 353 2572 751 3078 
Q 1150 3584 1784 3584 
Q 2172 3584 2448 3432 
Q 2725 3281 2906 2969 
z
M 947 1747 
Q 947 1113 1208 752 
Q 1469 391 1925 391 
Q 2381 391 2643 752 
Q 2906 1113 2906 1747 
Q 2906 2381 2643 2742 
Q 2381 3103 1925 3103 
Q 1469 3103 1208 2742 
Q 947 2381 947 1747 
z
" transform="scale(0.015625)"/>
       </defs>
       <use xlink:href="#DejaVuSans-46"/>
       <use xlink:href="#DejaVuSans-6c" x="57.519531"/>
       <use xlink:href="#DejaVuSans-6f" x="85.302734"/>
       <use xlink:href="#DejaVuSans-72" x="146.484375"/>
       <use xlink:href="#DejaVuSans-69" x="187.597656"/>
       <use xlink:href="#DejaVuSans-64" x="215.380859"/>
       <use xlink:href="#DejaVuSans-61" x="278.857422"/>
      </g>
     </g>
    </g>
    <g id="xtick_4">
     <g id="line2d_4">
      <g>
       <use xlink:href="#m21e84a66ce" x="146.761169" y="576.718125" style="stroke: #000000; stroke-width: 0.8"/>
      </g>
     </g>
     <g id="text_4">
      <!-- New York -->
      <g transform="translate(149.520544 629.511875) rotate(-90) scale(0.1 -0.1)">
       <defs>
        <path id="DejaVuSans-4e" d="M 628 4666 
L 1478 4666 
L 3547 763 
L 3547 4666 
L 4159 4666 
L 4159 0 
L 3309 0 
L 1241 3903 
L 1241 0 
L 628 0 
L 628 4666 
z
" transform="scale(0.015625)"/>
        <path id="DejaVuSans-77" d="M 269 3500 
L 844 3500 
L 1563 769 
L 2278 3500 
L 2956 3500 
L 3675 769 
L 4391 3500 
L 4966 3500 
L 4050 0 
L 3372 0 
L 2619 2869 
L 1863 0 
L 1184 0 
L 269 3500 
z
" transform="scale(0.015625)"/>
        <path id="DejaVuSans-20" transform="scale(0.015625)"/>
        <path id="DejaVuSans-59" d="M -13 4666 
L 666 4666 
L 1959 2747 
L 3244 4666 
L 3922 4666 
L 2272 2222 
L 2272 0 
L 1638 0 
L 1638 2222 
L -13 4666 
z
" transform="scale(0.015625)"/>
        <path id="DejaVuSans-6b" d="M 581 4863 
L 1159 4863 
L 1159 1991 
L 2875 3500 
L 3609 3500 
L 1753 1863 
L 3688 0 
L 2938 0 
L 1159 1709 
L 1159 0 
L 581 0 
L 581 4863 
z
" transform="scale(0.015625)"/>
       </defs>
       <use xlink:href="#DejaVuSans-4e"/>
       <use xlink:href="#DejaVuSans-65" x="74.804688"/>
       <use xlink:href="#DejaVuSans-77" x="136.328125"/>
       <use xlink:href="#DejaVuSans-20" x="218.115234"/>
       <use xlink:href="#DejaVuSans-59" x="249.902344"/>
       <use xlink:href="#DejaVuSans-6f" x="297.736328"/>
       <use xlink:href="#DejaVuSans-72" x="358.917969"/>
       <use xlink:href="#DejaVuSans-6b" x="400.03125"/>
      </g>
     </g>
    </g>
    <g id="xtick_5">
     <g id="line2d_5">
      <g>
       <use xlink:href="#m21e84a66ce" x="161.450534" y="576.718125" style="stroke: #000000; stroke-width: 0.8"/>
      </g>
     </g>
     <g id="text_5">
      <!-- Pennsylvania -->
      <g transform="translate(164.209909 649.410313) rotate(-90) scale(0.1 -0.1)">
       <defs>
        <path id="DejaVuSans-50" d="M 1259 4147 
L 1259 2394 
L 2053 2394 
Q 2494 2394 2734 2622 
Q 2975 2850 2975 3272 
Q 2975 3691 2734 3919 
Q 2494 4147 2053 4147 
L 1259 4147 
z
M 628 4666 
L 2053 4666 
Q 2838 4666 3239 4311 
Q 3641 3956 3641 3272 
Q 3641 2581 3239 2228 
Q 2838 1875 2053 1875 
L 1259 1875 
L 1259 0 
L 628 0 
L 628 4666 
z
" transform="scale(0.015625)"/>
        <path id="DejaVuSans-79" d="M 2059 -325 
Q 1816 -950 1584 -1140 
Q 1353 -1331 966 -1331 
L 506 -1331 
L 506 -850 
L 844 -850 
Q 1081 -850 1212 -737 
Q 1344 -625 1503 -206 
L 1606 56 
L 191 3500 
L 800 3500 
L 1894 763 
L 2988 3500 
L 3597 3500 
L 2059 -325 
z
" transform="scale(0.015625)"/>
        <path id="DejaVuSans-76" d="M 191 3500 
L 800 3500 
L 1894 563 
L 2988 3500 
L 3597 3500 
L 2284 0 
L 1503 0 
L 191 3500 
z
" transform="scale(0.015625)"/>
       </defs>
       <use xlink:href="#DejaVuSans-50"/>
       <use xlink:href="#DejaVuSans-65" x="56.677734"/>
       <use xlink:href="#DejaVuSans-6e" x="118.201172"/>
       <use xlink:href="#DejaVuSans-6e" x="181.580078"/>
       <use xlink:href="#DejaVuSans-73" x="244.958984"/>
       <use xlink:href="#DejaVuSans-79" x="297.058594"/>
       <use xlink:href="#DejaVuSans-6c" x="356.238281"/>
       <use xlink:href="#DejaVuSans-76" x="384.021484"/>
       <use xlink:href="#DejaVuSans-61" x="443.201172"/>
       <use xlink:href="#DejaVuSans-6e" x="504.480469"/>
       <use xlink:href="#DejaVuSans-69" x="567.859375"/>
       <use xlink:href="#DejaVuSans-61" x="595.642578"/>
      </g>
     </g>
    </g>
    <g id="xtick_6">
     <g id="line2d_6">
      <g>
       <use xlink:href="#m21e84a66ce" x="176.139899" y="576.718125" style="stroke: #000000; stroke-width: 0.8"/>
      </g>
     </g>
     <g id="text_6">
      <!-- Illinois -->
      <g transform="translate(178.899274 615.44625) rotate(-90) scale(0.1 -0.1)">
       <defs>
        <path id="DejaVuSans-49" d="M 628 4666 
L 1259 4666 
L 1259 0 
L 628 0 
L 628 4666 
z
" transform="scale(0.015625)"/>
       </defs>
       <use xlink:href="#DejaVuSans-49"/>
       <use xlink:href="#DejaVuSans-6c" x="29.492188"/>
       <use xlink:href="#DejaVuSans-6c" x="57.275391"/>
       <use xlink:href="#DejaVuSans-69" x="85.058594"/>
       <use xlink:href="#DejaVuSans-6e" x="112.841797"/>
       <use xlink:href="#DejaVuSans-6f" x="176.220703"/>
       <use xlink:href="#DejaVuSans-69" x="237.402344"/>
       <use xlink:href="#DejaVuSans-73" x="265.185547"/>
      </g>
     </g>
    </g>
    <g id="xtick_7">
     <g id="line2d_7">
      <g>
       <use xlink:href="#m21e84a66ce" x="190.829264" y="576.718125" style="stroke: #000000; stroke-width: 0.8"/>
      </g>
     </g>
     <g id="text_7">
      <!-- Ohio -->
      <g transform="translate(193.588639 606.824375) rotate(-90) scale(0.1 -0.1)">
       <defs>
        <path id="DejaVuSans-4f" d="M 2522 4238 
Q 1834 4238 1429 3725 
Q 1025 3213 1025 2328 
Q 1025 1447 1429 934 
Q 1834 422 2522 422 
Q 3209 422 3611 934 
Q 4013 1447 4013 2328 
Q 4013 3213 3611 3725 
Q 3209 4238 2522 4238 
z
M 2522 4750 
Q 3503 4750 4090 4092 
Q 4678 3434 4678 2328 
Q 4678 1225 4090 567 
Q 3503 -91 2522 -91 
Q 1538 -91 948 565 
Q 359 1222 359 2328 
Q 359 3434 948 4092 
Q 1538 4750 2522 4750 
z
" transform="scale(0.015625)"/>
        <path id="DejaVuSans-68" d="M 3513 2113 
L 3513 0 
L 2938 0 
L 2938 2094 
Q 2938 2591 2744 2837 
Q 2550 3084 2163 3084 
Q 1697 3084 1428 2787 
Q 1159 2491 1159 1978 
L 1159 0 
L 581 0 
L 581 4863 
L 1159 4863 
L 1159 2956 
Q 1366 3272 1645 3428 
Q 1925 3584 2291 3584 
Q 2894 3584 3203 3211 
Q 3513 2838 3513 2113 
z
" transform="scale(0.015625)"/>
       </defs>
       <use xlink:href="#DejaVuSans-4f"/>
       <use xlink:href="#DejaVuSans-68" x="78.710938"/>
       <use xlink:href="#DejaVuSans-69" x="142.089844"/>
       <use xlink:href="#DejaVuSans-6f" x="169.873047"/>
      </g>
     </g>
    </g>
    <g id="xtick_8">
     <g id="line2d_8">
      <g>
       <use xlink:href="#m21e84a66ce" x="205.518628" y="576.718125" style="stroke: #000000; stroke-width: 0.8"/>
      </g>
     </g>
     <g id="text_8">
      <!-- Georgia -->
      <g transform="translate(208.278003 622.929063) rotate(-90) scale(0.1 -0.1)">
       <defs>
        <path id="DejaVuSans-47" d="M 3809 666 
L 3809 1919 
L 2778 1919 
L 2778 2438 
L 4434 2438 
L 4434 434 
Q 4069 175 3628 42 
Q 3188 -91 2688 -91 
Q 1594 -91 976 548 
Q 359 1188 359 2328 
Q 359 3472 976 4111 
Q 1594 4750 2688 4750 
Q 3144 4750 3555 4637 
Q 3966 4525 4313 4306 
L 4313 3634 
Q 3963 3931 3569 4081 
Q 3175 4231 2741 4231 
Q 1884 4231 1454 3753 
Q 1025 3275 1025 2328 
Q 1025 1384 1454 906 
Q 1884 428 2741 428 
Q 3075 428 3337 486 
Q 3600 544 3809 666 
z
" transform="scale(0.015625)"/>
        <path id="DejaVuSans-67" d="M 2906 1791 
Q 2906 2416 2648 2759 
Q 2391 3103 1925 3103 
Q 1463 3103 1205 2759 
Q 947 2416 947 1791 
Q 947 1169 1205 825 
Q 1463 481 1925 481 
Q 2391 481 2648 825 
Q 2906 1169 2906 1791 
z
M 3481 434 
Q 3481 -459 3084 -895 
Q 2688 -1331 1869 -1331 
Q 1566 -1331 1297 -1286 
Q 1028 -1241 775 -1147 
L 775 -588 
Q 1028 -725 1275 -790 
Q 1522 -856 1778 -856 
Q 2344 -856 2625 -561 
Q 2906 -266 2906 331 
L 2906 616 
Q 2728 306 2450 153 
Q 2172 0 1784 0 
Q 1141 0 747 490 
Q 353 981 353 1791 
Q 353 2603 747 3093 
Q 1141 3584 1784 3584 
Q 2172 3584 2450 3431 
Q 2728 3278 2906 2969 
L 2906 3500 
L 3481 3500 
L 3481 434 
z
" transform="scale(0.015625)"/>
       </defs>
       <use xlink:href="#DejaVuSans-47"/>
       <use xlink:href="#DejaVuSans-65" x="77.490234"/>
       <use xlink:href="#DejaVuSans-6f" x="139.013672"/>
       <use xlink:href="#DejaVuSans-72" x="200.195312"/>
       <use xlink:href="#DejaVuSans-67" x="239.558594"/>
       <use xlink:href="#DejaVuSans-69" x="303.035156"/>
       <use xlink:href="#DejaVuSans-61" x="330.818359"/>
      </g>
     </g>
    </g>
    <g id="xtick_9">
     <g id="line2d_9">
      <g>
       <use xlink:href="#m21e84a66ce" x="220.207993" y="576.718125" style="stroke: #000000; stroke-width: 0.8"/>
      </g>
     </g>
     <g id="text_9">
      <!-- North Carolina -->
      <g transform="translate(222.967368 656.0025) rotate(-90) scale(0.1 -0.1)">
       <defs>
        <path id="DejaVuSans-74" d="M 1172 4494 
L 1172 3500 
L 2356 3500 
L 2356 3053 
L 1172 3053 
L 1172 1153 
Q 1172 725 1289 603 
Q 1406 481 1766 481 
L 2356 481 
L 2356 0 
L 1766 0 
Q 1100 0 847 248 
Q 594 497 594 1153 
L 594 3053 
L 172 3053 
L 172 3500 
L 594 3500 
L 594 4494 
L 1172 4494 
z
" transform="scale(0.015625)"/>
       </defs>
       <use xlink:href="#DejaVuSans-4e"/>
       <use xlink:href="#DejaVuSans-6f" x="74.804688"/>
       <use xlink:href="#DejaVuSans-72" x="135.986328"/>
       <use xlink:href="#DejaVuSans-74" x="177.099609"/>
       <use xlink:href="#DejaVuSans-68" x="216.308594"/>
       <use xlink:href="#DejaVuSans-20" x="279.6875"/>
       <use xlink:href="#DejaVuSans-43" x="311.474609"/>
       <use xlink:href="#DejaVuSans-61" x="381.298828"/>
       <use xlink:href="#DejaVuSans-72" x="442.578125"/>
       <use xlink:href="#DejaVuSans-6f" x="481.441406"/>
       <use xlink:href="#DejaVuSans-6c" x="542.623047"/>
       <use xlink:href="#DejaVuSans-69" x="570.40625"/>
       <use xlink:href="#DejaVuSans-6e" x="598.189453"/>
       <use xlink:href="#DejaVuSans-61" x="661.568359"/>
      </g>
     </g>
    </g>
    <g id="xtick_10">
     <g id="line2d_10">
      <g>
       <use xlink:href="#m21e84a66ce" x="234.897358" y="576.718125" style="stroke: #000000; stroke-width: 0.8"/>
      </g>
     </g>
     <g id="text_10">
      <!-- Michigan -->
      <g transform="translate(237.656733 628.5525) rotate(-90) scale(0.1 -0.1)">
       <defs>
        <path id="DejaVuSans-4d" d="M 628 4666 
L 1569 4666 
L 2759 1491 
L 3956 4666 
L 4897 4666 
L 4897 0 
L 4281 0 
L 4281 4097 
L 3078 897 
L 2444 897 
L 1241 4097 
L 1241 0 
L 628 0 
L 628 4666 
z
" transform="scale(0.015625)"/>
        <path id="DejaVuSans-63" d="M 3122 3366 
L 3122 2828 
Q 2878 2963 2633 3030 
Q 2388 3097 2138 3097 
Q 1578 3097 1268 2742 
Q 959 2388 959 1747 
Q 959 1106 1268 751 
Q 1578 397 2138 397 
Q 2388 397 2633 464 
Q 2878 531 3122 666 
L 3122 134 
Q 2881 22 2623 -34 
Q 2366 -91 2075 -91 
Q 1284 -91 818 406 
Q 353 903 353 1747 
Q 353 2603 823 3093 
Q 1294 3584 2113 3584 
Q 2378 3584 2631 3529 
Q 2884 3475 3122 3366 
z
" transform="scale(0.015625)"/>
       </defs>
       <use xlink:href="#DejaVuSans-4d"/>
       <use xlink:href="#DejaVuSans-69" x="86.279297"/>
       <use xlink:href="#DejaVuSans-63" x="114.0625"/>
       <use xlink:href="#DejaVuSans-68" x="169.042969"/>
       <use xlink:href="#DejaVuSans-69" x="232.421875"/>
       <use xlink:href="#DejaVuSans-67" x="260.205078"/>
       <use xlink:href="#DejaVuSans-61" x="323.681641"/>
       <use xlink:href="#DejaVuSans-6e" x="384.960938"/>
      </g>
     </g>
    </g>
    <g id="xtick_11">
     <g id="line2d_11">
      <g>
       <use xlink:href="#m21e84a66ce" x="249.586722" y="576.718125" style="stroke: #000000; stroke-width: 0.8"/>
      </g>
     </g>
     <g id="text_11">
      <!-- New Jersey -->
      <g transform="translate(252.346097 639.204063) rotate(-90) scale(0.1 -0.1)">
       <defs>
        <path id="DejaVuSans-4a" d="M 628 4666 
L 1259 4666 
L 1259 325 
Q 1259 -519 939 -900 
Q 619 -1281 -91 -1281 
L -331 -1281 
L -331 -750 
L -134 -750 
Q 284 -750 456 -515 
Q 628 -281 628 325 
L 628 4666 
z
" transform="scale(0.015625)"/>
       </defs>
       <use xlink:href="#DejaVuSans-4e"/>
       <use xlink:href="#DejaVuSans-65" x="74.804688"/>
       <use xlink:href="#DejaVuSans-77" x="136.328125"/>
       <use xlink:href="#DejaVuSans-20" x="218.115234"/>
       <use xlink:href="#DejaVuSans-4a" x="249.902344"/>
       <use xlink:href="#DejaVuSans-65" x="279.394531"/>
       <use xlink:href="#DejaVuSans-72" x="340.917969"/>
       <use xlink:href="#DejaVuSans-73" x="382.03125"/>
       <use xlink:href="#DejaVuSans-65" x="434.130859"/>
       <use xlink:href="#DejaVuSans-79" x="495.654297"/>
      </g>
     </g>
    </g>
    <g id="xtick_12">
     <g id="line2d_12">
      <g>
       <use xlink:href="#m21e84a66ce" x="264.276087" y="576.718125" style="stroke: #000000; stroke-width: 0.8"/>
      </g>
     </g>
     <g id="text_12">
      <!-- Virginia -->
      <g transform="translate(267.035462 621.418125) rotate(-90) scale(0.1 -0.1)">
       <defs>
        <path id="DejaVuSans-56" d="M 1831 0 
L 50 4666 
L 709 4666 
L 2188 738 
L 3669 4666 
L 4325 4666 
L 2547 0 
L 1831 0 
z
" transform="scale(0.015625)"/>
       </defs>
       <use xlink:href="#DejaVuSans-56"/>
       <use xlink:href="#DejaVuSans-69" x="66.158203"/>
       <use xlink:href="#DejaVuSans-72" x="93.941406"/>
       <use xlink:href="#DejaVuSans-67" x="133.304688"/>
       <use xlink:href="#DejaVuSans-69" x="196.78125"/>
       <use xlink:href="#DejaVuSans-6e" x="224.564453"/>
       <use xlink:href="#DejaVuSans-69" x="287.943359"/>
       <use xlink:href="#DejaVuSans-61" x="315.726562"/>
      </g>
     </g>
    </g>
    <g id="xtick_13">
     <g id="line2d_13">
      <g>
       <use xlink:href="#m21e84a66ce" x="278.965452" y="576.718125" style="stroke: #000000; stroke-width: 0.8"/>
      </g>
     </g>
     <g id="text_13">
      <!-- Washington -->
      <g transform="translate(281.724827 642.48375) rotate(-90) scale(0.1 -0.1)">
       <defs>
        <path id="DejaVuSans-57" d="M 213 4666 
L 850 4666 
L 1831 722 
L 2809 4666 
L 3519 4666 
L 4500 722 
L 5478 4666 
L 6119 4666 
L 4947 0 
L 4153 0 
L 3169 4050 
L 2175 0 
L 1381 0 
L 213 4666 
z
" transform="scale(0.015625)"/>
       </defs>
       <use xlink:href="#DejaVuSans-57"/>
       <use xlink:href="#DejaVuSans-61" x="92.501953"/>
       <use xlink:href="#DejaVuSans-73" x="153.78125"/>
       <use xlink:href="#DejaVuSans-68" x="205.880859"/>
       <use xlink:href="#DejaVuSans-69" x="269.259766"/>
       <use xlink:href="#DejaVuSans-6e" x="297.042969"/>
       <use xlink:href="#DejaVuSans-67" x="360.421875"/>
       <use xlink:href="#DejaVuSans-74" x="423.898438"/>
       <use xlink:href="#DejaVuSans-6f" x="463.107422"/>
       <use xlink:href="#DejaVuSans-6e" x="524.289062"/>
      </g>
     </g>
    </g>
    <g id="xtick_14">
     <g id="line2d_14">
      <g>
       <use xlink:href="#m21e84a66ce" x="293.654816" y="576.718125" style="stroke: #000000; stroke-width: 0.8"/>
      </g>
     </g>
     <g id="text_14">
      <!-- Arizona -->
      <g transform="translate(296.414191 621.280625) rotate(-90) scale(0.1 -0.1)">
       <defs>
        <path id="DejaVuSans-41" d="M 2188 4044 
L 1331 1722 
L 3047 1722 
L 2188 4044 
z
M 1831 4666 
L 2547 4666 
L 4325 0 
L 3669 0 
L 3244 1197 
L 1141 1197 
L 716 0 
L 50 0 
L 1831 4666 
z
" transform="scale(0.015625)"/>
        <path id="DejaVuSans-7a" d="M 353 3500 
L 3084 3500 
L 3084 2975 
L 922 459 
L 3084 459 
L 3084 0 
L 275 0 
L 275 525 
L 2438 3041 
L 353 3041 
L 353 3500 
z
" transform="scale(0.015625)"/>
       </defs>
       <use xlink:href="#DejaVuSans-41"/>
       <use xlink:href="#DejaVuSans-72" x="68.408203"/>
       <use xlink:href="#DejaVuSans-69" x="109.521484"/>
       <use xlink:href="#DejaVuSans-7a" x="137.304688"/>
       <use xlink:href="#DejaVuSans-6f" x="189.794922"/>
       <use xlink:href="#DejaVuSans-6e" x="250.976562"/>
       <use xlink:href="#DejaVuSans-61" x="314.355469"/>
      </g>
     </g>
    </g>
    <g id="xtick_15">
     <g id="line2d_15">
      <g>
       <use xlink:href="#m21e84a66ce" x="308.344181" y="576.718125" style="stroke: #000000; stroke-width: 0.8"/>
      </g>
     </g>
     <g id="text_15">
      <!-- Massachusetts -->
      <g transform="translate(311.103556 657.607188) rotate(-90) scale(0.1 -0.1)">
       <defs>
        <path id="DejaVuSans-75" d="M 544 1381 
L 544 3500 
L 1119 3500 
L 1119 1403 
Q 1119 906 1312 657 
Q 1506 409 1894 409 
Q 2359 409 2629 706 
Q 2900 1003 2900 1516 
L 2900 3500 
L 3475 3500 
L 3475 0 
L 2900 0 
L 2900 538 
Q 2691 219 2414 64 
Q 2138 -91 1772 -91 
Q 1169 -91 856 284 
Q 544 659 544 1381 
z
M 1991 3584 
L 1991 3584 
z
" transform="scale(0.015625)"/>
       </defs>
       <use xlink:href="#DejaVuSans-4d"/>
       <use xlink:href="#DejaVuSans-61" x="86.279297"/>
       <use xlink:href="#DejaVuSans-73" x="147.558594"/>
       <use xlink:href="#DejaVuSans-73" x="199.658203"/>
       <use xlink:href="#DejaVuSans-61" x="251.757812"/>
       <use xlink:href="#DejaVuSans-63" x="313.037109"/>
       <use xlink:href="#DejaVuSans-68" x="368.017578"/>
       <use xlink:href="#DejaVuSans-75" x="431.396484"/>
       <use xlink:href="#DejaVuSans-73" x="494.775391"/>
       <use xlink:href="#DejaVuSans-65" x="546.875"/>
       <use xlink:href="#DejaVuSans-74" x="608.398438"/>
       <use xlink:href="#DejaVuSans-74" x="647.607422"/>
       <use xlink:href="#DejaVuSans-73" x="686.816406"/>
      </g>
     </g>
    </g>
    <g id="xtick_16">
     <g id="line2d_16">
      <g>
       <use xlink:href="#m21e84a66ce" x="323.033546" y="576.718125" style="stroke: #000000; stroke-width: 0.8"/>
      </g>
     </g>
     <g id="text_16">
      <!-- Tennessee -->
      <g transform="translate(325.792921 635.832188) rotate(-90) scale(0.1 -0.1)">
       <use xlink:href="#DejaVuSans-54"/>
       <use xlink:href="#DejaVuSans-65" x="44.083984"/>
       <use xlink:href="#DejaVuSans-6e" x="105.607422"/>
       <use xlink:href="#DejaVuSans-6e" x="168.986328"/>
       <use xlink:href="#DejaVuSans-65" x="232.365234"/>
       <use xlink:href="#DejaVuSans-73" x="293.888672"/>
       <use xlink:href="#DejaVuSans-73" x="345.988281"/>
       <use xlink:href="#DejaVuSans-65" x="398.087891"/>
       <use xlink:href="#DejaVuSans-65" x="459.611328"/>
      </g>
     </g>
    </g>
    <g id="xtick_17">
     <g id="line2d_17">
      <g>
       <use xlink:href="#m21e84a66ce" x="337.72291" y="576.718125" style="stroke: #000000; stroke-width: 0.8"/>
      </g>
     </g>
     <g id="text_17">
      <!-- Indiana -->
      <g transform="translate(340.482285 620.725938) rotate(-90) scale(0.1 -0.1)">
       <use xlink:href="#DejaVuSans-49"/>
       <use xlink:href="#DejaVuSans-6e" x="29.492188"/>
       <use xlink:href="#DejaVuSans-64" x="92.871094"/>
       <use xlink:href="#DejaVuSans-69" x="156.347656"/>
       <use xlink:href="#DejaVuSans-61" x="184.130859"/>
       <use xlink:href="#DejaVuSans-6e" x="245.410156"/>
       <use xlink:href="#DejaVuSans-61" x="308.789062"/>
      </g>
     </g>
    </g>
    <g id="xtick_18">
     <g id="line2d_18">
      <g>
       <use xlink:href="#m21e84a66ce" x="352.412275" y="576.718125" style="stroke: #000000; stroke-width: 0.8"/>
      </g>
     </g>
     <g id="text_18">
      <!-- Maryland -->
      <g transform="translate(355.17165 630.09625) rotate(-90) scale(0.1 -0.1)">
       <use xlink:href="#DejaVuSans-4d"/>
       <use xlink:href="#DejaVuSans-61" x="86.279297"/>
       <use xlink:href="#DejaVuSans-72" x="147.558594"/>
       <use xlink:href="#DejaVuSans-79" x="188.671875"/>
       <use xlink:href="#DejaVuSans-6c" x="247.851562"/>
       <use xlink:href="#DejaVuSans-61" x="275.634766"/>
       <use xlink:href="#DejaVuSans-6e" x="336.914062"/>
       <use xlink:href="#DejaVuSans-64" x="400.292969"/>
      </g>
     </g>
    </g>
    <g id="xtick_19">
     <g id="line2d_19">
      <g>
       <use xlink:href="#m21e84a66ce" x="367.10164" y="576.718125" style="stroke: #000000; stroke-width: 0.8"/>
      </g>
     </g>
     <g id="text_19">
      <!-- Missouri -->
      <g transform="translate(369.861015 624.888438) rotate(-90) scale(0.1 -0.1)">
       <use xlink:href="#DejaVuSans-4d"/>
       <use xlink:href="#DejaVuSans-69" x="86.279297"/>
       <use xlink:href="#DejaVuSans-73" x="114.0625"/>
       <use xlink:href="#DejaVuSans-73" x="166.162109"/>
       <use xlink:href="#DejaVuSans-6f" x="218.261719"/>
       <use xlink:href="#DejaVuSans-75" x="279.443359"/>
       <use xlink:href="#DejaVuSans-72" x="342.822266"/>
       <use xlink:href="#DejaVuSans-69" x="383.935547"/>
      </g>
     </g>
    </g>
    <g id="xtick_20">
     <g id="line2d_20">
      <g>
       <use xlink:href="#m21e84a66ce" x="381.791005" y="576.718125" style="stroke: #000000; stroke-width: 0.8"/>
      </g>
     </g>
     <g id="text_20">
      <!-- Wisconsin -->
      <g transform="translate(384.55038 633.647813) rotate(-90) scale(0.1 -0.1)">
       <use xlink:href="#DejaVuSans-57"/>
       <use xlink:href="#DejaVuSans-69" x="96.626953"/>
       <use xlink:href="#DejaVuSans-73" x="124.410156"/>
       <use xlink:href="#DejaVuSans-63" x="176.509766"/>
       <use xlink:href="#DejaVuSans-6f" x="231.490234"/>
       <use xlink:href="#DejaVuSans-6e" x="292.671875"/>
       <use xlink:href="#DejaVuSans-73" x="356.050781"/>
       <use xlink:href="#DejaVuSans-69" x="408.150391"/>
       <use xlink:href="#DejaVuSans-6e" x="435.933594"/>
      </g>
     </g>
    </g>
    <g id="xtick_21">
     <g id="line2d_21">
      <g>
       <use xlink:href="#m21e84a66ce" x="396.480369" y="576.718125" style="stroke: #000000; stroke-width: 0.8"/>
      </g>
     </g>
     <g id="text_21">
      <!-- Colorado -->
      <g transform="translate(399.239744 628.422813) rotate(-90) scale(0.1 -0.1)">
       <use xlink:href="#DejaVuSans-43"/>
       <use xlink:href="#DejaVuSans-6f" x="69.824219"/>
       <use xlink:href="#DejaVuSans-6c" x="131.005859"/>
       <use xlink:href="#DejaVuSans-6f" x="158.789062"/>
       <use xlink:href="#DejaVuSans-72" x="219.970703"/>
       <use xlink:href="#DejaVuSans-61" x="261.083984"/>
       <use xlink:href="#DejaVuSans-64" x="322.363281"/>
       <use xlink:href="#DejaVuSans-6f" x="385.839844"/>
      </g>
     </g>
    </g>
    <g id="xtick_22">
     <g id="line2d_22">
      <g>
       <use xlink:href="#m21e84a66ce" x="411.169734" y="576.718125" style="stroke: #000000; stroke-width: 0.8"/>
      </g>
     </g>
     <g id="text_22">
      <!-- Minnesota -->
      <g transform="translate(413.929109 635.329063) rotate(-90) scale(0.1 -0.1)">
       <use xlink:href="#DejaVuSans-4d"/>
       <use xlink:href="#DejaVuSans-69" x="86.279297"/>
       <use xlink:href="#DejaVuSans-6e" x="114.0625"/>
       <use xlink:href="#DejaVuSans-6e" x="177.441406"/>
       <use xlink:href="#DejaVuSans-65" x="240.820312"/>
       <use xlink:href="#DejaVuSans-73" x="302.34375"/>
       <use xlink:href="#DejaVuSans-6f" x="354.443359"/>
       <use xlink:href="#DejaVuSans-74" x="415.625"/>
       <use xlink:href="#DejaVuSans-61" x="454.833984"/>
      </g>
     </g>
    </g>
    <g id="xtick_23">
     <g id="line2d_23">
      <g>
       <use xlink:href="#m21e84a66ce" x="425.859099" y="576.718125" style="stroke: #000000; stroke-width: 0.8"/>
      </g>
     </g>
     <g id="text_23">
      <!-- South Carolina -->
      <g transform="translate(428.618474 657.09625) rotate(-90) scale(0.1 -0.1)">
       <defs>
        <path id="DejaVuSans-53" d="M 3425 4513 
L 3425 3897 
Q 3066 4069 2747 4153 
Q 2428 4238 2131 4238 
Q 1616 4238 1336 4038 
Q 1056 3838 1056 3469 
Q 1056 3159 1242 3001 
Q 1428 2844 1947 2747 
L 2328 2669 
Q 3034 2534 3370 2195 
Q 3706 1856 3706 1288 
Q 3706 609 3251 259 
Q 2797 -91 1919 -91 
Q 1588 -91 1214 -16 
Q 841 59 441 206 
L 441 856 
Q 825 641 1194 531 
Q 1563 422 1919 422 
Q 2459 422 2753 634 
Q 3047 847 3047 1241 
Q 3047 1584 2836 1778 
Q 2625 1972 2144 2069 
L 1759 2144 
Q 1053 2284 737 2584 
Q 422 2884 422 3419 
Q 422 4038 858 4394 
Q 1294 4750 2059 4750 
Q 2388 4750 2728 4690 
Q 3069 4631 3425 4513 
z
" transform="scale(0.015625)"/>
       </defs>
       <use xlink:href="#DejaVuSans-53"/>
       <use xlink:href="#DejaVuSans-6f" x="63.476562"/>
       <use xlink:href="#DejaVuSans-75" x="124.658203"/>
       <use xlink:href="#DejaVuSans-74" x="188.037109"/>
       <use xlink:href="#DejaVuSans-68" x="227.246094"/>
       <use xlink:href="#DejaVuSans-20" x="290.625"/>
       <use xlink:href="#DejaVuSans-43" x="322.412109"/>
       <use xlink:href="#DejaVuSans-61" x="392.236328"/>
       <use xlink:href="#DejaVuSans-72" x="453.515625"/>
       <use xlink:href="#DejaVuSans-6f" x="492.378906"/>
       <use xlink:href="#DejaVuSans-6c" x="553.560547"/>
       <use xlink:href="#DejaVuSans-69" x="581.34375"/>
       <use xlink:href="#DejaVuSans-6e" x="609.126953"/>
       <use xlink:href="#DejaVuSans-61" x="672.505859"/>
      </g>
     </g>
    </g>
    <g id="xtick_24">
     <g id="line2d_24">
      <g>
       <use xlink:href="#m21e84a66ce" x="440.548463" y="576.718125" style="stroke: #000000; stroke-width: 0.8"/>
      </g>
     </g>
     <g id="text_24">
      <!-- Alabama -->
      <g transform="translate(443.307838 627.810313) rotate(-90) scale(0.1 -0.1)">
       <defs>
        <path id="DejaVuSans-62" d="M 3116 1747 
Q 3116 2381 2855 2742 
Q 2594 3103 2138 3103 
Q 1681 3103 1420 2742 
Q 1159 2381 1159 1747 
Q 1159 1113 1420 752 
Q 1681 391 2138 391 
Q 2594 391 2855 752 
Q 3116 1113 3116 1747 
z
M 1159 2969 
Q 1341 3281 1617 3432 
Q 1894 3584 2278 3584 
Q 2916 3584 3314 3078 
Q 3713 2572 3713 1747 
Q 3713 922 3314 415 
Q 2916 -91 2278 -91 
Q 1894 -91 1617 61 
Q 1341 213 1159 525 
L 1159 0 
L 581 0 
L 581 4863 
L 1159 4863 
L 1159 2969 
z
" transform="scale(0.015625)"/>
        <path id="DejaVuSans-6d" d="M 3328 2828 
Q 3544 3216 3844 3400 
Q 4144 3584 4550 3584 
Q 5097 3584 5394 3201 
Q 5691 2819 5691 2113 
L 5691 0 
L 5113 0 
L 5113 2094 
Q 5113 2597 4934 2840 
Q 4756 3084 4391 3084 
Q 3944 3084 3684 2787 
Q 3425 2491 3425 1978 
L 3425 0 
L 2847 0 
L 2847 2094 
Q 2847 2600 2669 2842 
Q 2491 3084 2119 3084 
Q 1678 3084 1418 2786 
Q 1159 2488 1159 1978 
L 1159 0 
L 581 0 
L 581 3500 
L 1159 3500 
L 1159 2956 
Q 1356 3278 1631 3431 
Q 1906 3584 2284 3584 
Q 2666 3584 2933 3390 
Q 3200 3197 3328 2828 
z
" transform="scale(0.015625)"/>
       </defs>
       <use xlink:href="#DejaVuSans-41"/>
       <use xlink:href="#DejaVuSans-6c" x="68.408203"/>
       <use xlink:href="#DejaVuSans-61" x="96.191406"/>
       <use xlink:href="#DejaVuSans-62" x="157.470703"/>
       <use xlink:href="#DejaVuSans-61" x="220.947266"/>
       <use xlink:href="#DejaVuSans-6d" x="282.226562"/>
       <use xlink:href="#DejaVuSans-61" x="379.638672"/>
      </g>
     </g>
    </g>
    <g id="xtick_25">
     <g id="line2d_25">
      <g>
       <use xlink:href="#m21e84a66ce" x="455.237828" y="576.718125" style="stroke: #000000; stroke-width: 0.8"/>
      </g>
     </g>
     <g id="text_25">
      <!-- Louisiana -->
      <g transform="translate(457.997203 630.930625) rotate(-90) scale(0.1 -0.1)">
       <defs>
        <path id="DejaVuSans-4c" d="M 628 4666 
L 1259 4666 
L 1259 531 
L 3531 531 
L 3531 0 
L 628 0 
L 628 4666 
z
" transform="scale(0.015625)"/>
       </defs>
       <use xlink:href="#DejaVuSans-4c"/>
       <use xlink:href="#DejaVuSans-6f" x="53.962891"/>
       <use xlink:href="#DejaVuSans-75" x="115.144531"/>
       <use xlink:href="#DejaVuSans-69" x="178.523438"/>
       <use xlink:href="#DejaVuSans-73" x="206.306641"/>
       <use xlink:href="#DejaVuSans-69" x="258.40625"/>
       <use xlink:href="#DejaVuSans-61" x="286.189453"/>
       <use xlink:href="#DejaVuSans-6e" x="347.46875"/>
       <use xlink:href="#DejaVuSans-61" x="410.847656"/>
      </g>
     </g>
    </g>
    <g id="xtick_26">
     <g id="line2d_26">
      <g>
       <use xlink:href="#m21e84a66ce" x="469.927193" y="576.718125" style="stroke: #000000; stroke-width: 0.8"/>
      </g>
     </g>
     <g id="text_26">
      <!-- Kentucky -->
      <g transform="translate(472.686568 629.369688) rotate(-90) scale(0.1 -0.1)">
       <defs>
        <path id="DejaVuSans-4b" d="M 628 4666 
L 1259 4666 
L 1259 2694 
L 3353 4666 
L 4166 4666 
L 1850 2491 
L 4331 0 
L 3500 0 
L 1259 2247 
L 1259 0 
L 628 0 
L 628 4666 
z
" transform="scale(0.015625)"/>
       </defs>
       <use xlink:href="#DejaVuSans-4b"/>
       <use xlink:href="#DejaVuSans-65" x="60.576172"/>
       <use xlink:href="#DejaVuSans-6e" x="122.099609"/>
       <use xlink:href="#DejaVuSans-74" x="185.478516"/>
       <use xlink:href="#DejaVuSans-75" x="224.6875"/>
       <use xlink:href="#DejaVuSans-63" x="288.066406"/>
       <use xlink:href="#DejaVuSans-6b" x="343.046875"/>
       <use xlink:href="#DejaVuSans-79" x="397.332031"/>
      </g>
     </g>
    </g>
    <g id="xtick_27">
     <g id="line2d_27">
      <g>
       <use xlink:href="#m21e84a66ce" x="484.616557" y="576.718125" style="stroke: #000000; stroke-width: 0.8"/>
      </g>
     </g>
     <g id="text_27">
      <!-- Oregon -->
      <g transform="translate(487.375932 620.43375) rotate(-90) scale(0.1 -0.1)">
       <use xlink:href="#DejaVuSans-4f"/>
       <use xlink:href="#DejaVuSans-72" x="78.710938"/>
       <use xlink:href="#DejaVuSans-65" x="117.574219"/>
       <use xlink:href="#DejaVuSans-67" x="179.097656"/>
       <use xlink:href="#DejaVuSans-6f" x="242.574219"/>
       <use xlink:href="#DejaVuSans-6e" x="303.755859"/>
      </g>
     </g>
    </g>
    <g id="xtick_28">
     <g id="line2d_28">
      <g>
       <use xlink:href="#m21e84a66ce" x="499.305922" y="576.718125" style="stroke: #000000; stroke-width: 0.8"/>
      </g>
     </g>
     <g id="text_28">
      <!-- Oklahoma -->
      <g transform="translate(502.065297 634.611875) rotate(-90) scale(0.1 -0.1)">
       <use xlink:href="#DejaVuSans-4f"/>
       <use xlink:href="#DejaVuSans-6b" x="78.710938"/>
       <use xlink:href="#DejaVuSans-6c" x="136.621094"/>
       <use xlink:href="#DejaVuSans-61" x="164.404297"/>
       <use xlink:href="#DejaVuSans-68" x="225.683594"/>
       <use xlink:href="#DejaVuSans-6f" x="289.0625"/>
       <use xlink:href="#DejaVuSans-6d" x="350.244141"/>
       <use xlink:href="#DejaVuSans-61" x="447.65625"/>
      </g>
     </g>
    </g>
    <g id="xtick_29">
     <g id="line2d_29">
      <g>
       <use xlink:href="#m21e84a66ce" x="513.995287" y="576.718125" style="stroke: #000000; stroke-width: 0.8"/>
      </g>
     </g>
     <g id="text_29">
      <!-- Connecticut -->
      <g transform="translate(516.754662 643.600938) rotate(-90) scale(0.1 -0.1)">
       <use xlink:href="#DejaVuSans-43"/>
       <use xlink:href="#DejaVuSans-6f" x="69.824219"/>
       <use xlink:href="#DejaVuSans-6e" x="131.005859"/>
       <use xlink:href="#DejaVuSans-6e" x="194.384766"/>
       <use xlink:href="#DejaVuSans-65" x="257.763672"/>
       <use xlink:href="#DejaVuSans-63" x="319.287109"/>
       <use xlink:href="#DejaVuSans-74" x="374.267578"/>
       <use xlink:href="#DejaVuSans-69" x="413.476562"/>
       <use xlink:href="#DejaVuSans-63" x="441.259766"/>
       <use xlink:href="#DejaVuSans-75" x="496.240234"/>
       <use xlink:href="#DejaVuSans-74" x="559.619141"/>
      </g>
     </g>
    </g>
    <g id="xtick_30">
     <g id="line2d_30">
      <g>
       <use xlink:href="#m21e84a66ce" x="528.684651" y="576.718125" style="stroke: #000000; stroke-width: 0.8"/>
      </g>
     </g>
     <g id="text_30">
      <!-- Utah -->
      <g transform="translate(531.444026 607.422813) rotate(-90) scale(0.1 -0.1)">
       <defs>
        <path id="DejaVuSans-55" d="M 556 4666 
L 1191 4666 
L 1191 1831 
Q 1191 1081 1462 751 
Q 1734 422 2344 422 
Q 2950 422 3222 751 
Q 3494 1081 3494 1831 
L 3494 4666 
L 4128 4666 
L 4128 1753 
Q 4128 841 3676 375 
Q 3225 -91 2344 -91 
Q 1459 -91 1007 375 
Q 556 841 556 1753 
L 556 4666 
z
" transform="scale(0.015625)"/>
       </defs>
       <use xlink:href="#DejaVuSans-55"/>
       <use xlink:href="#DejaVuSans-74" x="73.193359"/>
       <use xlink:href="#DejaVuSans-61" x="112.402344"/>
       <use xlink:href="#DejaVuSans-68" x="173.681641"/>
      </g>
     </g>
    </g>
    <g id="xtick_31">
     <g id="line2d_31">
      <g>
       <use xlink:href="#m21e84a66ce" x="543.374016" y="576.718125" style="stroke: #000000; stroke-width: 0.8"/>
      </g>
     </g>
     <g id="text_31">
      <!-- Puerto Rico -->
      <g transform="translate(546.133391 640.735313) rotate(-90) scale(0.1 -0.1)">
       <defs>
        <path id="DejaVuSans-52" d="M 2841 2188 
Q 3044 2119 3236 1894 
Q 3428 1669 3622 1275 
L 4263 0 
L 3584 0 
L 2988 1197 
Q 2756 1666 2539 1819 
Q 2322 1972 1947 1972 
L 1259 1972 
L 1259 0 
L 628 0 
L 628 4666 
L 2053 4666 
Q 2853 4666 3247 4331 
Q 3641 3997 3641 3322 
Q 3641 2881 3436 2590 
Q 3231 2300 2841 2188 
z
M 1259 4147 
L 1259 2491 
L 2053 2491 
Q 2509 2491 2742 2702 
Q 2975 2913 2975 3322 
Q 2975 3731 2742 3939 
Q 2509 4147 2053 4147 
L 1259 4147 
z
" transform="scale(0.015625)"/>
       </defs>
       <use xlink:href="#DejaVuSans-50"/>
       <use xlink:href="#DejaVuSans-75" x="58.552734"/>
       <use xlink:href="#DejaVuSans-65" x="121.931641"/>
       <use xlink:href="#DejaVuSans-72" x="183.455078"/>
       <use xlink:href="#DejaVuSans-74" x="224.568359"/>
       <use xlink:href="#DejaVuSans-6f" x="263.777344"/>
       <use xlink:href="#DejaVuSans-20" x="324.958984"/>
       <use xlink:href="#DejaVuSans-52" x="356.746094"/>
       <use xlink:href="#DejaVuSans-69" x="426.228516"/>
       <use xlink:href="#DejaVuSans-63" x="454.011719"/>
       <use xlink:href="#DejaVuSans-6f" x="508.992188"/>
      </g>
     </g>
    </g>
    <g id="xtick_32">
     <g id="line2d_32">
      <g>
       <use xlink:href="#m21e84a66ce" x="558.063381" y="576.718125" style="stroke: #000000; stroke-width: 0.8"/>
      </g>
     </g>
     <g id="text_32">
      <!-- Iowa -->
      <g transform="translate(560.822756 607.093125) rotate(-90) scale(0.1 -0.1)">
       <use xlink:href="#DejaVuSans-49"/>
       <use xlink:href="#DejaVuSans-6f" x="29.492188"/>
       <use xlink:href="#DejaVuSans-77" x="90.673828"/>
       <use xlink:href="#DejaVuSans-61" x="172.460938"/>
      </g>
     </g>
    </g>
    <g id="xtick_33">
     <g id="line2d_33">
      <g>
       <use xlink:href="#m21e84a66ce" x="572.752745" y="576.718125" style="stroke: #000000; stroke-width: 0.8"/>
      </g>
     </g>
     <g id="text_33">
      <!-- Nevada -->
      <g transform="translate(575.51212 621.875938) rotate(-90) scale(0.1 -0.1)">
       <use xlink:href="#DejaVuSans-4e"/>
       <use xlink:href="#DejaVuSans-65" x="74.804688"/>
       <use xlink:href="#DejaVuSans-76" x="136.328125"/>
       <use xlink:href="#DejaVuSans-61" x="195.507812"/>
       <use xlink:href="#DejaVuSans-64" x="256.787109"/>
       <use xlink:href="#DejaVuSans-61" x="320.263672"/>
      </g>
     </g>
    </g>
    <g id="xtick_34">
     <g id="line2d_34">
      <g>
       <use xlink:href="#m21e84a66ce" x="587.44211" y="576.718125" style="stroke: #000000; stroke-width: 0.8"/>
      </g>
     </g>
     <g id="text_34">
      <!-- Arkansas -->
      <g transform="translate(590.201485 629.297813) rotate(-90) scale(0.1 -0.1)">
       <use xlink:href="#DejaVuSans-41"/>
       <use xlink:href="#DejaVuSans-72" x="68.408203"/>
       <use xlink:href="#DejaVuSans-6b" x="109.521484"/>
       <use xlink:href="#DejaVuSans-61" x="165.681641"/>
       <use xlink:href="#DejaVuSans-6e" x="226.960938"/>
       <use xlink:href="#DejaVuSans-73" x="290.339844"/>
       <use xlink:href="#DejaVuSans-61" x="342.439453"/>
       <use xlink:href="#DejaVuSans-73" x="403.71875"/>
      </g>
     </g>
    </g>
    <g id="xtick_35">
     <g id="line2d_35">
      <g>
       <use xlink:href="#m21e84a66ce" x="602.131475" y="576.718125" style="stroke: #000000; stroke-width: 0.8"/>
      </g>
     </g>
     <g id="text_35">
      <!-- Mississippi -->
      <g transform="translate(604.89085 636.993125) rotate(-90) scale(0.1 -0.1)">
       <defs>
        <path id="DejaVuSans-70" d="M 1159 525 
L 1159 -1331 
L 581 -1331 
L 581 3500 
L 1159 3500 
L 1159 2969 
Q 1341 3281 1617 3432 
Q 1894 3584 2278 3584 
Q 2916 3584 3314 3078 
Q 3713 2572 3713 1747 
Q 3713 922 3314 415 
Q 2916 -91 2278 -91 
Q 1894 -91 1617 61 
Q 1341 213 1159 525 
z
M 3116 1747 
Q 3116 2381 2855 2742 
Q 2594 3103 2138 3103 
Q 1681 3103 1420 2742 
Q 1159 2381 1159 1747 
Q 1159 1113 1420 752 
Q 1681 391 2138 391 
Q 2594 391 2855 752 
Q 3116 1113 3116 1747 
z
" transform="scale(0.015625)"/>
       </defs>
       <use xlink:href="#DejaVuSans-4d"/>
       <use xlink:href="#DejaVuSans-69" x="86.279297"/>
       <use xlink:href="#DejaVuSans-73" x="114.0625"/>
       <use xlink:href="#DejaVuSans-73" x="166.162109"/>
       <use xlink:href="#DejaVuSans-69" x="218.261719"/>
       <use xlink:href="#DejaVuSans-73" x="246.044922"/>
       <use xlink:href="#DejaVuSans-73" x="298.144531"/>
       <use xlink:href="#DejaVuSans-69" x="350.244141"/>
       <use xlink:href="#DejaVuSans-70" x="378.027344"/>
       <use xlink:href="#DejaVuSans-70" x="441.503906"/>
       <use xlink:href="#DejaVuSans-69" x="504.980469"/>
      </g>
     </g>
    </g>
    <g id="xtick_36">
     <g id="line2d_36">
      <g>
       <use xlink:href="#m21e84a66ce" x="616.82084" y="576.718125" style="stroke: #000000; stroke-width: 0.8"/>
      </g>
     </g>
     <g id="text_36">
      <!-- Kansas -->
      <g transform="translate(619.580215 619.113438) rotate(-90) scale(0.1 -0.1)">
       <use xlink:href="#DejaVuSans-4b"/>
       <use xlink:href="#DejaVuSans-61" x="63.826172"/>
       <use xlink:href="#DejaVuSans-6e" x="125.105469"/>
       <use xlink:href="#DejaVuSans-73" x="188.484375"/>
       <use xlink:href="#DejaVuSans-61" x="240.583984"/>
       <use xlink:href="#DejaVuSans-73" x="301.863281"/>
      </g>
     </g>
    </g>
    <g id="xtick_37">
     <g id="line2d_37">
      <g>
       <use xlink:href="#m21e84a66ce" x="631.510204" y="576.718125" style="stroke: #000000; stroke-width: 0.8"/>
      </g>
     </g>
     <g id="text_37">
      <!-- New Mexico -->
      <g transform="translate(634.269579 643.629063) rotate(-90) scale(0.1 -0.1)">
       <use xlink:href="#DejaVuSans-4e"/>
       <use xlink:href="#DejaVuSans-65" x="74.804688"/>
       <use xlink:href="#DejaVuSans-77" x="136.328125"/>
       <use xlink:href="#DejaVuSans-20" x="218.115234"/>
       <use xlink:href="#DejaVuSans-4d" x="249.902344"/>
       <use xlink:href="#DejaVuSans-65" x="336.181641"/>
       <use xlink:href="#DejaVuSans-78" x="395.955078"/>
       <use xlink:href="#DejaVuSans-69" x="455.134766"/>
       <use xlink:href="#DejaVuSans-63" x="482.917969"/>
       <use xlink:href="#DejaVuSans-6f" x="537.898438"/>
      </g>
     </g>
    </g>
    <g id="xtick_38">
     <g id="line2d_38">
      <g>
       <use xlink:href="#m21e84a66ce" x="646.199569" y="576.718125" style="stroke: #000000; stroke-width: 0.8"/>
      </g>
     </g>
     <g id="text_38">
      <!-- Nebraska -->
      <g transform="translate(648.958944 630.893125) rotate(-90) scale(0.1 -0.1)">
       <use xlink:href="#DejaVuSans-4e"/>
       <use xlink:href="#DejaVuSans-65" x="74.804688"/>
       <use xlink:href="#DejaVuSans-62" x="136.328125"/>
       <use xlink:href="#DejaVuSans-72" x="199.804688"/>
       <use xlink:href="#DejaVuSans-61" x="240.917969"/>
       <use xlink:href="#DejaVuSans-73" x="302.197266"/>
       <use xlink:href="#DejaVuSans-6b" x="354.296875"/>
       <use xlink:href="#DejaVuSans-61" x="410.457031"/>
      </g>
     </g>
    </g>
    <g id="xtick_39">
     <g id="line2d_39">
      <g>
       <use xlink:href="#m21e84a66ce" x="660.888934" y="576.718125" style="stroke: #000000; stroke-width: 0.8"/>
      </g>
     </g>
     <g id="text_39">
      <!-- Idaho -->
      <g transform="translate(663.648309 611.600938) rotate(-90) scale(0.1 -0.1)">
       <use xlink:href="#DejaVuSans-49"/>
       <use xlink:href="#DejaVuSans-64" x="29.492188"/>
       <use xlink:href="#DejaVuSans-61" x="92.96875"/>
       <use xlink:href="#DejaVuSans-68" x="154.248047"/>
       <use xlink:href="#DejaVuSans-6f" x="217.626953"/>
      </g>
     </g>
    </g>
    <g id="xtick_40">
     <g id="line2d_40">
      <g>
       <use xlink:href="#m21e84a66ce" x="675.578298" y="576.718125" style="stroke: #000000; stroke-width: 0.8"/>
      </g>
     </g>
     <g id="text_40">
      <!-- West Virginia -->
      <g transform="translate(678.337673 649.179063) rotate(-90) scale(0.1 -0.1)">
       <use xlink:href="#DejaVuSans-57"/>
       <use xlink:href="#DejaVuSans-65" x="93.001953"/>
       <use xlink:href="#DejaVuSans-73" x="154.525391"/>
       <use xlink:href="#DejaVuSans-74" x="206.625"/>
       <use xlink:href="#DejaVuSans-20" x="245.833984"/>
       <use xlink:href="#DejaVuSans-56" x="277.621094"/>
       <use xlink:href="#DejaVuSans-69" x="343.779297"/>
       <use xlink:href="#DejaVuSans-72" x="371.5625"/>
       <use xlink:href="#DejaVuSans-67" x="410.925781"/>
       <use xlink:href="#DejaVuSans-69" x="474.402344"/>
       <use xlink:href="#DejaVuSans-6e" x="502.185547"/>
       <use xlink:href="#DejaVuSans-69" x="565.564453"/>
       <use xlink:href="#DejaVuSans-61" x="593.347656"/>
      </g>
     </g>
    </g>
    <g id="xtick_41">
     <g id="line2d_41">
      <g>
       <use xlink:href="#m21e84a66ce" x="690.267663" y="576.718125" style="stroke: #000000; stroke-width: 0.8"/>
      </g>
     </g>
     <g id="text_41">
      <!-- Hawaii -->
      <g transform="translate(693.027038 617.229063) rotate(-90) scale(0.1 -0.1)">
       <defs>
        <path id="DejaVuSans-48" d="M 628 4666 
L 1259 4666 
L 1259 2753 
L 3553 2753 
L 3553 4666 
L 4184 4666 
L 4184 0 
L 3553 0 
L 3553 2222 
L 1259 2222 
L 1259 0 
L 628 0 
L 628 4666 
z
" transform="scale(0.015625)"/>
       </defs>
       <use xlink:href="#DejaVuSans-48"/>
       <use xlink:href="#DejaVuSans-61" x="75.195312"/>
       <use xlink:href="#DejaVuSans-77" x="136.474609"/>
       <use xlink:href="#DejaVuSans-61" x="218.261719"/>
       <use xlink:href="#DejaVuSans-69" x="279.541016"/>
       <use xlink:href="#DejaVuSans-69" x="307.324219"/>
      </g>
     </g>
    </g>
    <g id="xtick_42">
     <g id="line2d_42">
      <g>
       <use xlink:href="#m21e84a66ce" x="704.957028" y="576.718125" style="stroke: #000000; stroke-width: 0.8"/>
      </g>
     </g>
     <g id="text_42">
      <!-- New Hampshire -->
      <g transform="translate(707.716403 662.810313) rotate(-90) scale(0.1 -0.1)">
       <use xlink:href="#DejaVuSans-4e"/>
       <use xlink:href="#DejaVuSans-65" x="74.804688"/>
       <use xlink:href="#DejaVuSans-77" x="136.328125"/>
       <use xlink:href="#DejaVuSans-20" x="218.115234"/>
       <use xlink:href="#DejaVuSans-48" x="249.902344"/>
       <use xlink:href="#DejaVuSans-61" x="325.097656"/>
       <use xlink:href="#DejaVuSans-6d" x="386.376953"/>
       <use xlink:href="#DejaVuSans-70" x="483.789062"/>
       <use xlink:href="#DejaVuSans-73" x="547.265625"/>
       <use xlink:href="#DejaVuSans-68" x="599.365234"/>
       <use xlink:href="#DejaVuSans-69" x="662.744141"/>
       <use xlink:href="#DejaVuSans-72" x="690.527344"/>
       <use xlink:href="#DejaVuSans-65" x="729.390625"/>
      </g>
     </g>
    </g>
    <g id="xtick_43">
     <g id="line2d_43">
      <g>
       <use xlink:href="#m21e84a66ce" x="719.646392" y="576.718125" style="stroke: #000000; stroke-width: 0.8"/>
      </g>
     </g>
     <g id="text_43">
      <!-- Maine -->
      <g transform="translate(722.405767 613.743125) rotate(-90) scale(0.1 -0.1)">
       <use xlink:href="#DejaVuSans-4d"/>
       <use xlink:href="#DejaVuSans-61" x="86.279297"/>
       <use xlink:href="#DejaVuSans-69" x="147.558594"/>
       <use xlink:href="#DejaVuSans-6e" x="175.341797"/>
       <use xlink:href="#DejaVuSans-65" x="238.720703"/>
      </g>
     </g>
    </g>
    <g id="xtick_44">
     <g id="line2d_44">
      <g>
       <use xlink:href="#m21e84a66ce" x="734.335757" y="576.718125" style="stroke: #000000; stroke-width: 0.8"/>
      </g>
     </g>
     <g id="text_44">
      <!-- Rhode Island -->
      <g transform="translate(737.095132 648.554063) rotate(-90) scale(0.1 -0.1)">
       <use xlink:href="#DejaVuSans-52"/>
       <use xlink:href="#DejaVuSans-68" x="69.482422"/>
       <use xlink:href="#DejaVuSans-6f" x="132.861328"/>
       <use xlink:href="#DejaVuSans-64" x="194.042969"/>
       <use xlink:href="#DejaVuSans-65" x="257.519531"/>
       <use xlink:href="#DejaVuSans-20" x="319.042969"/>
       <use xlink:href="#DejaVuSans-49" x="350.830078"/>
       <use xlink:href="#DejaVuSans-73" x="380.322266"/>
       <use xlink:href="#DejaVuSans-6c" x="432.421875"/>
       <use xlink:href="#DejaVuSans-61" x="460.205078"/>
       <use xlink:href="#DejaVuSans-6e" x="521.484375"/>
       <use xlink:href="#DejaVuSans-64" x="584.863281"/>
      </g>
     </g>
    </g>
    <g id="xtick_45">
     <g id="line2d_45">
      <g>
       <use xlink:href="#m21e84a66ce" x="749.025122" y="576.718125" style="stroke: #000000; stroke-width: 0.8"/>
      </g>
     </g>
     <g id="text_45">
      <!-- Montana -->
      <g transform="translate(751.784497 627.316563) rotate(-90) scale(0.1 -0.1)">
       <use xlink:href="#DejaVuSans-4d"/>
       <use xlink:href="#DejaVuSans-6f" x="86.279297"/>
       <use xlink:href="#DejaVuSans-6e" x="147.460938"/>
       <use xlink:href="#DejaVuSans-74" x="210.839844"/>
       <use xlink:href="#DejaVuSans-61" x="250.048828"/>
       <use xlink:href="#DejaVuSans-6e" x="311.328125"/>
       <use xlink:href="#DejaVuSans-61" x="374.707031"/>
      </g>
     </g>
    </g>
    <g id="xtick_46">
     <g id="line2d_46">
      <g>
       <use xlink:href="#m21e84a66ce" x="763.714486" y="576.718125" style="stroke: #000000; stroke-width: 0.8"/>
      </g>
     </g>
     <g id="text_46">
      <!-- Delaware -->
      <g transform="translate(766.473861 630.822813) rotate(-90) scale(0.1 -0.1)">
       <defs>
        <path id="DejaVuSans-44" d="M 1259 4147 
L 1259 519 
L 2022 519 
Q 2988 519 3436 956 
Q 3884 1394 3884 2338 
Q 3884 3275 3436 3711 
Q 2988 4147 2022 4147 
L 1259 4147 
z
M 628 4666 
L 1925 4666 
Q 3281 4666 3915 4102 
Q 4550 3538 4550 2338 
Q 4550 1131 3912 565 
Q 3275 0 1925 0 
L 628 0 
L 628 4666 
z
" transform="scale(0.015625)"/>
       </defs>
       <use xlink:href="#DejaVuSans-44"/>
       <use xlink:href="#DejaVuSans-65" x="77.001953"/>
       <use xlink:href="#DejaVuSans-6c" x="138.525391"/>
       <use xlink:href="#DejaVuSans-61" x="166.308594"/>
       <use xlink:href="#DejaVuSans-77" x="227.587891"/>
       <use xlink:href="#DejaVuSans-61" x="309.375"/>
       <use xlink:href="#DejaVuSans-72" x="370.654297"/>
       <use xlink:href="#DejaVuSans-65" x="409.517578"/>
      </g>
     </g>
    </g>
    <g id="xtick_47">
     <g id="line2d_47">
      <g>
       <use xlink:href="#m21e84a66ce" x="778.403851" y="576.718125" style="stroke: #000000; stroke-width: 0.8"/>
      </g>
     </g>
     <g id="text_47">
      <!-- South Dakota -->
      <g transform="translate(781.163226 651.382188) rotate(-90) scale(0.1 -0.1)">
       <use xlink:href="#DejaVuSans-53"/>
       <use xlink:href="#DejaVuSans-6f" x="63.476562"/>
       <use xlink:href="#DejaVuSans-75" x="124.658203"/>
       <use xlink:href="#DejaVuSans-74" x="188.037109"/>
       <use xlink:href="#DejaVuSans-68" x="227.246094"/>
       <use xlink:href="#DejaVuSans-20" x="290.625"/>
       <use xlink:href="#DejaVuSans-44" x="322.412109"/>
       <use xlink:href="#DejaVuSans-61" x="399.414062"/>
       <use xlink:href="#DejaVuSans-6b" x="460.693359"/>
       <use xlink:href="#DejaVuSans-6f" x="514.978516"/>
       <use xlink:href="#DejaVuSans-74" x="576.160156"/>
       <use xlink:href="#DejaVuSans-61" x="615.369141"/>
      </g>
     </g>
    </g>
    <g id="xtick_48">
     <g id="line2d_48">
      <g>
       <use xlink:href="#m21e84a66ce" x="793.093216" y="576.718125" style="stroke: #000000; stroke-width: 0.8"/>
      </g>
     </g>
     <g id="text_48">
      <!-- North Dakota -->
      <g transform="translate(795.852591 650.288438) rotate(-90) scale(0.1 -0.1)">
       <use xlink:href="#DejaVuSans-4e"/>
       <use xlink:href="#DejaVuSans-6f" x="74.804688"/>
       <use xlink:href="#DejaVuSans-72" x="135.986328"/>
       <use xlink:href="#DejaVuSans-74" x="177.099609"/>
       <use xlink:href="#DejaVuSans-68" x="216.308594"/>
       <use xlink:href="#DejaVuSans-20" x="279.6875"/>
       <use xlink:href="#DejaVuSans-44" x="311.474609"/>
       <use xlink:href="#DejaVuSans-61" x="388.476562"/>
       <use xlink:href="#DejaVuSans-6b" x="449.755859"/>
       <use xlink:href="#DejaVuSans-6f" x="504.041016"/>
       <use xlink:href="#DejaVuSans-74" x="565.222656"/>
       <use xlink:href="#DejaVuSans-61" x="604.431641"/>
      </g>
     </g>
    </g>
    <g id="xtick_49">
     <g id="line2d_49">
      <g>
       <use xlink:href="#m21e84a66ce" x="807.782581" y="576.718125" style="stroke: #000000; stroke-width: 0.8"/>
      </g>
     </g>
     <g id="text_49">
      <!-- Alaska -->
      <g transform="translate(810.541956 616.418125) rotate(-90) scale(0.1 -0.1)">
       <use xlink:href="#DejaVuSans-41"/>
       <use xlink:href="#DejaVuSans-6c" x="68.408203"/>
       <use xlink:href="#DejaVuSans-61" x="96.191406"/>
       <use xlink:href="#DejaVuSans-73" x="157.470703"/>
       <use xlink:href="#DejaVuSans-6b" x="209.570312"/>
       <use xlink:href="#DejaVuSans-61" x="265.730469"/>
      </g>
     </g>
    </g>
    <g id="xtick_50">
     <g id="line2d_50">
      <g>
       <use xlink:href="#m21e84a66ce" x="822.471945" y="576.718125" style="stroke: #000000; stroke-width: 0.8"/>
      </g>
     </g>
     <g id="text_50">
      <!-- District of Columbia -->
      <g transform="translate(825.23132 682.841563) rotate(-90) scale(0.1 -0.1)">
       <use xlink:href="#DejaVuSans-44"/>
       <use xlink:href="#DejaVuSans-69" x="77.001953"/>
       <use xlink:href="#DejaVuSans-73" x="104.785156"/>
       <use xlink:href="#DejaVuSans-74" x="156.884766"/>
       <use xlink:href="#DejaVuSans-72" x="196.09375"/>
       <use xlink:href="#DejaVuSans-69" x="237.207031"/>
       <use xlink:href="#DejaVuSans-63" x="264.990234"/>
       <use xlink:href="#DejaVuSans-74" x="319.970703"/>
       <use xlink:href="#DejaVuSans-20" x="359.179688"/>
       <use xlink:href="#DejaVuSans-6f" x="390.966797"/>
       <use xlink:href="#DejaVuSans-66" x="452.148438"/>
       <use xlink:href="#DejaVuSans-20" x="487.353516"/>
       <use xlink:href="#DejaVuSans-43" x="519.140625"/>
       <use xlink:href="#DejaVuSans-6f" x="588.964844"/>
       <use xlink:href="#DejaVuSans-6c" x="650.146484"/>
       <use xlink:href="#DejaVuSans-75" x="677.929688"/>
       <use xlink:href="#DejaVuSans-6d" x="741.308594"/>
       <use xlink:href="#DejaVuSans-62" x="838.720703"/>
       <use xlink:href="#DejaVuSans-69" x="902.197266"/>
       <use xlink:href="#DejaVuSans-61" x="929.980469"/>
      </g>
     </g>
    </g>
    <g id="xtick_51">
     <g id="line2d_51">
      <g>
       <use xlink:href="#m21e84a66ce" x="837.16131" y="576.718125" style="stroke: #000000; stroke-width: 0.8"/>
      </g>
     </g>
     <g id="text_51">
      <!-- Vermont -->
      <g transform="translate(839.920685 625.99) rotate(-90) scale(0.1 -0.1)">
       <use xlink:href="#DejaVuSans-56"/>
       <use xlink:href="#DejaVuSans-65" x="60.658203"/>
       <use xlink:href="#DejaVuSans-72" x="122.181641"/>
       <use xlink:href="#DejaVuSans-6d" x="161.544922"/>
       <use xlink:href="#DejaVuSans-6f" x="258.957031"/>
       <use xlink:href="#DejaVuSans-6e" x="320.138672"/>
       <use xlink:href="#DejaVuSans-74" x="383.517578"/>
      </g>
     </g>
    </g>
    <g id="xtick_52">
     <g id="line2d_52">
      <g>
       <use xlink:href="#m21e84a66ce" x="851.850675" y="576.718125" style="stroke: #000000; stroke-width: 0.8"/>
      </g>
     </g>
     <g id="text_52">
      <!-- Wyoming -->
      <g transform="translate(854.61005 630.672813) rotate(-90) scale(0.1 -0.1)">
       <use xlink:href="#DejaVuSans-57"/>
       <use xlink:href="#DejaVuSans-79" x="97.126953"/>
       <use xlink:href="#DejaVuSans-6f" x="156.306641"/>
       <use xlink:href="#DejaVuSans-6d" x="217.488281"/>
       <use xlink:href="#DejaVuSans-69" x="314.900391"/>
       <use xlink:href="#DejaVuSans-6e" x="342.683594"/>
       <use xlink:href="#DejaVuSans-67" x="406.0625"/>
      </g>
     </g>
    </g>
    <g id="text_53">
     <!-- State -->
     <g transform="translate(464.036719 694.44) scale(0.1 -0.1)">
      <use xlink:href="#DejaVuSans-53"/>
      <use xlink:href="#DejaVuSans-74" x="63.476562"/>
      <use xlink:href="#DejaVuSans-61" x="102.685547"/>
      <use xlink:href="#DejaVuSans-74" x="163.964844"/>
      <use xlink:href="#DejaVuSans-65" x="203.173828"/>
     </g>
    </g>
   </g>
   <g id="matplotlib.axis_2">
    <g id="ytick_1">
     <g id="line2d_53">
      <defs>
       <path id="m19dcccd135" d="M 0 0 
L -3.5 0 
" style="stroke: #000000; stroke-width: 0.8"/>
      </defs>
      <g>
       <use xlink:href="#m19dcccd135" x="58.771875" y="576.718125" style="stroke: #000000; stroke-width: 0.8"/>
      </g>
     </g>
     <g id="text_54">
      <!-- 0.0M -->
      <g transform="translate(27.240625 580.517344) scale(0.1 -0.1)">
       <defs>
        <path id="DejaVuSans-30" d="M 2034 4250 
Q 1547 4250 1301 3770 
Q 1056 3291 1056 2328 
Q 1056 1369 1301 889 
Q 1547 409 2034 409 
Q 2525 409 2770 889 
Q 3016 1369 3016 2328 
Q 3016 3291 2770 3770 
Q 2525 4250 2034 4250 
z
M 2034 4750 
Q 2819 4750 3233 4129 
Q 3647 3509 3647 2328 
Q 3647 1150 3233 529 
Q 2819 -91 2034 -91 
Q 1250 -91 836 529 
Q 422 1150 422 2328 
Q 422 3509 836 4129 
Q 1250 4750 2034 4750 
z
" transform="scale(0.015625)"/>
        <path id="DejaVuSans-2e" d="M 684 794 
L 1344 794 
L 1344 0 
L 684 0 
L 684 794 
z
" transform="scale(0.015625)"/>
       </defs>
       <use xlink:href="#DejaVuSans-30"/>
       <use xlink:href="#DejaVuSans-2e" x="63.623047"/>
       <use xlink:href="#DejaVuSans-30" x="95.410156"/>
       <use xlink:href="#DejaVuSans-4d" x="159.033203"/>
      </g>
     </g>
    </g>
    <g id="ytick_2">
     <g id="line2d_54">
      <g>
       <use xlink:href="#m19dcccd135" x="58.771875" y="509.638314" style="stroke: #000000; stroke-width: 0.8"/>
      </g>
     </g>
     <g id="text_55">
      <!-- 5.0M -->
      <g transform="translate(27.240625 513.437533) scale(0.1 -0.1)">
       <defs>
        <path id="DejaVuSans-35" d="M 691 4666 
L 3169 4666 
L 3169 4134 
L 1269 4134 
L 1269 2991 
Q 1406 3038 1543 3061 
Q 1681 3084 1819 3084 
Q 2600 3084 3056 2656 
Q 3513 2228 3513 1497 
Q 3513 744 3044 326 
Q 2575 -91 1722 -91 
Q 1428 -91 1123 -41 
Q 819 9 494 109 
L 494 744 
Q 775 591 1075 516 
Q 1375 441 1709 441 
Q 2250 441 2565 725 
Q 2881 1009 2881 1497 
Q 2881 1984 2565 2268 
Q 2250 2553 1709 2553 
Q 1456 2553 1204 2497 
Q 953 2441 691 2322 
L 691 4666 
z
" transform="scale(0.015625)"/>
       </defs>
       <use xlink:href="#DejaVuSans-35"/>
       <use xlink:href="#DejaVuSans-2e" x="63.623047"/>
       <use xlink:href="#DejaVuSans-30" x="95.410156"/>
       <use xlink:href="#DejaVuSans-4d" x="159.033203"/>
      </g>
     </g>
    </g>
    <g id="ytick_3">
     <g id="line2d_55">
      <g>
       <use xlink:href="#m19dcccd135" x="58.771875" y="442.558504" style="stroke: #000000; stroke-width: 0.8"/>
      </g>
     </g>
     <g id="text_56">
      <!-- 10.0M -->
      <g transform="translate(20.878125 446.357723) scale(0.1 -0.1)">
       <defs>
        <path id="DejaVuSans-31" d="M 794 531 
L 1825 531 
L 1825 4091 
L 703 3866 
L 703 4441 
L 1819 4666 
L 2450 4666 
L 2450 531 
L 3481 531 
L 3481 0 
L 794 0 
L 794 531 
z
" transform="scale(0.015625)"/>
       </defs>
       <use xlink:href="#DejaVuSans-31"/>
       <use xlink:href="#DejaVuSans-30" x="63.623047"/>
       <use xlink:href="#DejaVuSans-2e" x="127.246094"/>
       <use xlink:href="#DejaVuSans-30" x="159.033203"/>
       <use xlink:href="#DejaVuSans-4d" x="222.65625"/>
      </g>
     </g>
    </g>
    <g id="ytick_4">
     <g id="line2d_56">
      <g>
       <use xlink:href="#m19dcccd135" x="58.771875" y="375.478693" style="stroke: #000000; stroke-width: 0.8"/>
      </g>
     </g>
     <g id="text_57">
      <!-- 15.0M -->
      <g transform="translate(20.878125 379.277912) scale(0.1 -0.1)">
       <use xlink:href="#DejaVuSans-31"/>
       <use xlink:href="#DejaVuSans-35" x="63.623047"/>
       <use xlink:href="#DejaVuSans-2e" x="127.246094"/>
       <use xlink:href="#DejaVuSans-30" x="159.033203"/>
       <use xlink:href="#DejaVuSans-4d" x="222.65625"/>
      </g>
     </g>
    </g>
    <g id="ytick_5">
     <g id="line2d_57">
      <g>
       <use xlink:href="#m19dcccd135" x="58.771875" y="308.398883" style="stroke: #000000; stroke-width: 0.8"/>
      </g>
     </g>
     <g id="text_58">
      <!-- 20.0M -->
      <g transform="translate(20.878125 312.198102) scale(0.1 -0.1)">
       <defs>
        <path id="DejaVuSans-32" d="M 1228 531 
L 3431 531 
L 3431 0 
L 469 0 
L 469 531 
Q 828 903 1448 1529 
Q 2069 2156 2228 2338 
Q 2531 2678 2651 2914 
Q 2772 3150 2772 3378 
Q 2772 3750 2511 3984 
Q 2250 4219 1831 4219 
Q 1534 4219 1204 4116 
Q 875 4013 500 3803 
L 500 4441 
Q 881 4594 1212 4672 
Q 1544 4750 1819 4750 
Q 2544 4750 2975 4387 
Q 3406 4025 3406 3419 
Q 3406 3131 3298 2873 
Q 3191 2616 2906 2266 
Q 2828 2175 2409 1742 
Q 1991 1309 1228 531 
z
" transform="scale(0.015625)"/>
       </defs>
       <use xlink:href="#DejaVuSans-32"/>
       <use xlink:href="#DejaVuSans-30" x="63.623047"/>
       <use xlink:href="#DejaVuSans-2e" x="127.246094"/>
       <use xlink:href="#DejaVuSans-30" x="159.033203"/>
       <use xlink:href="#DejaVuSans-4d" x="222.65625"/>
      </g>
     </g>
    </g>
    <g id="ytick_6">
     <g id="line2d_58">
      <g>
       <use xlink:href="#m19dcccd135" x="58.771875" y="241.319072" style="stroke: #000000; stroke-width: 0.8"/>
      </g>
     </g>
     <g id="text_59">
      <!-- 25.0M -->
      <g transform="translate(20.878125 245.118291) scale(0.1 -0.1)">
       <use xlink:href="#DejaVuSans-32"/>
       <use xlink:href="#DejaVuSans-35" x="63.623047"/>
       <use xlink:href="#DejaVuSans-2e" x="127.246094"/>
       <use xlink:href="#DejaVuSans-30" x="159.033203"/>
       <use xlink:href="#DejaVuSans-4d" x="222.65625"/>
      </g>
     </g>
    </g>
    <g id="ytick_7">
     <g id="line2d_59">
      <g>
       <use xlink:href="#m19dcccd135" x="58.771875" y="174.239262" style="stroke: #000000; stroke-width: 0.8"/>
      </g>
     </g>
     <g id="text_60">
      <!-- 30.0M -->
      <g transform="translate(20.878125 178.03848) scale(0.1 -0.1)">
       <defs>
        <path id="DejaVuSans-33" d="M 2597 2516 
Q 3050 2419 3304 2112 
Q 3559 1806 3559 1356 
Q 3559 666 3084 287 
Q 2609 -91 1734 -91 
Q 1441 -91 1130 -33 
Q 819 25 488 141 
L 488 750 
Q 750 597 1062 519 
Q 1375 441 1716 441 
Q 2309 441 2620 675 
Q 2931 909 2931 1356 
Q 2931 1769 2642 2001 
Q 2353 2234 1838 2234 
L 1294 2234 
L 1294 2753 
L 1863 2753 
Q 2328 2753 2575 2939 
Q 2822 3125 2822 3475 
Q 2822 3834 2567 4026 
Q 2313 4219 1838 4219 
Q 1578 4219 1281 4162 
Q 984 4106 628 3988 
L 628 4550 
Q 988 4650 1302 4700 
Q 1616 4750 1894 4750 
Q 2613 4750 3031 4423 
Q 3450 4097 3450 3541 
Q 3450 3153 3228 2886 
Q 3006 2619 2597 2516 
z
" transform="scale(0.015625)"/>
       </defs>
       <use xlink:href="#DejaVuSans-33"/>
       <use xlink:href="#DejaVuSans-30" x="63.623047"/>
       <use xlink:href="#DejaVuSans-2e" x="127.246094"/>
       <use xlink:href="#DejaVuSans-30" x="159.033203"/>
       <use xlink:href="#DejaVuSans-4d" x="222.65625"/>
      </g>
     </g>
    </g>
    <g id="ytick_8">
     <g id="line2d_60">
      <g>
       <use xlink:href="#m19dcccd135" x="58.771875" y="107.159451" style="stroke: #000000; stroke-width: 0.8"/>
      </g>
     </g>
     <g id="text_61">
      <!-- 35.0M -->
      <g transform="translate(20.878125 110.95867) scale(0.1 -0.1)">
       <use xlink:href="#DejaVuSans-33"/>
       <use xlink:href="#DejaVuSans-35" x="63.623047"/>
       <use xlink:href="#DejaVuSans-2e" x="127.246094"/>
       <use xlink:href="#DejaVuSans-30" x="159.033203"/>
       <use xlink:href="#DejaVuSans-4d" x="222.65625"/>
      </g>
     </g>
    </g>
    <g id="ytick_9">
     <g id="line2d_61">
      <g>
       <use xlink:href="#m19dcccd135" x="58.771875" y="40.079641" style="stroke: #000000; stroke-width: 0.8"/>
      </g>
     </g>
     <g id="text_62">
      <!-- 40.0M -->
      <g transform="translate(20.878125 43.878859) scale(0.1 -0.1)">
       <defs>
        <path id="DejaVuSans-34" d="M 2419 4116 
L 825 1625 
L 2419 1625 
L 2419 4116 
z
M 2253 4666 
L 3047 4666 
L 3047 1625 
L 3713 1625 
L 3713 1100 
L 3047 1100 
L 3047 0 
L 2419 0 
L 2419 1100 
L 313 1100 
L 313 1709 
L 2253 4666 
z
" transform="scale(0.015625)"/>
       </defs>
       <use xlink:href="#DejaVuSans-34"/>
       <use xlink:href="#DejaVuSans-30" x="63.623047"/>
       <use xlink:href="#DejaVuSans-2e" x="127.246094"/>
       <use xlink:href="#DejaVuSans-30" x="159.033203"/>
       <use xlink:href="#DejaVuSans-4d" x="222.65625"/>
      </g>
     </g>
    </g>
    <g id="text_63">
     <!-- Population -->
     <g transform="translate(14.798438 325.784531) rotate(-90) scale(0.1 -0.1)">
      <use xlink:href="#DejaVuSans-50"/>
      <use xlink:href="#DejaVuSans-6f" x="56.677734"/>
      <use xlink:href="#DejaVuSans-70" x="117.859375"/>
      <use xlink:href="#DejaVuSans-75" x="181.335938"/>
      <use xlink:href="#DejaVuSans-6c" x="244.714844"/>
      <use xlink:href="#DejaVuSans-61" x="272.498047"/>
      <use xlink:href="#DejaVuSans-74" x="333.777344"/>
      <use xlink:href="#DejaVuSans-69" x="372.986328"/>
      <use xlink:href="#DejaVuSans-6f" x="400.769531"/>
      <use xlink:href="#DejaVuSans-6e" x="461.951172"/>
     </g>
    </g>
   </g>
   <g id="patch_89">
    <path d="M 58.771875 576.718125 
L 58.771875 22.318125 
" style="fill: none; stroke: #000000; stroke-width: 0.8; stroke-linejoin: miter; stroke-linecap: square"/>
   </g>
   <g id="patch_90">
    <path d="M 895.771875 576.718125 
L 895.771875 22.318125 
" style="fill: none; stroke: #000000; stroke-width: 0.8; stroke-linejoin: miter; stroke-linecap: square"/>
   </g>
   <g id="patch_91">
    <path d="M 58.771875 576.718125 
L 895.771875 576.718125 
" style="fill: none; stroke: #000000; stroke-width: 0.8; stroke-linejoin: miter; stroke-linecap: square"/>
   </g>
   <g id="patch_92">
    <path d="M 58.771875 22.318125 
L 895.771875 22.318125 
" style="fill: none; stroke: #000000; stroke-width: 0.8; stroke-linejoin: miter; stroke-linecap: square"/>
   </g>
   <g id="text_64">
    <!-- Relative population rank change between 2013 and 2022 -->
    <g transform="translate(304.521563 16.318125) scale(0.12 -0.12)">
     <use xlink:href="#DejaVuSans-52"/>
     <use xlink:href="#DejaVuSans-65" x="64.982422"/>
     <use xlink:href="#DejaVuSans-6c" x="126.505859"/>
     <use xlink:href="#DejaVuSans-61" x="154.289062"/>
     <use xlink:href="#DejaVuSans-74" x="215.568359"/>
     <use xlink:href="#DejaVuSans-69" x="254.777344"/>
     <use xlink:href="#DejaVuSans-76" x="282.560547"/>
     <use xlink:href="#DejaVuSans-65" x="341.740234"/>
     <use xlink:href="#DejaVuSans-20" x="403.263672"/>
     <use xlink:href="#DejaVuSans-70" x="435.050781"/>
     <use xlink:href="#DejaVuSans-6f" x="498.527344"/>
     <use xlink:href="#DejaVuSans-70" x="559.708984"/>
     <use xlink:href="#DejaVuSans-75" x="623.185547"/>
     <use xlink:href="#DejaVuSans-6c" x="686.564453"/>
     <use xlink:href="#DejaVuSans-61" x="714.347656"/>
     <use xlink:href="#DejaVuSans-74" x="775.626953"/>
     <use xlink:href="#DejaVuSans-69" x="814.835938"/>
     <use xlink:href="#DejaVuSans-6f" x="842.619141"/>
     <use xlink:href="#DejaVuSans-6e" x="903.800781"/>
     <use xlink:href="#DejaVuSans-20" x="967.179688"/>
     <use xlink:href="#DejaVuSans-72" x="998.966797"/>
     <use xlink:href="#DejaVuSans-61" x="1040.080078"/>
     <use xlink:href="#DejaVuSans-6e" x="1101.359375"/>
     <use xlink:href="#DejaVuSans-6b" x="1164.738281"/>
     <use xlink:href="#DejaVuSans-20" x="1222.648438"/>
     <use xlink:href="#DejaVuSans-63" x="1254.435547"/>
     <use xlink:href="#DejaVuSans-68" x="1309.416016"/>
     <use xlink:href="#DejaVuSans-61" x="1372.794922"/>
     <use xlink:href="#DejaVuSans-6e" x="1434.074219"/>
     <use xlink:href="#DejaVuSans-67" x="1497.453125"/>
     <use xlink:href="#DejaVuSans-65" x="1560.929688"/>
     <use xlink:href="#DejaVuSans-20" x="1622.453125"/>
     <use xlink:href="#DejaVuSans-62" x="1654.240234"/>
     <use xlink:href="#DejaVuSans-65" x="1717.716797"/>
     <use xlink:href="#DejaVuSans-74" x="1779.240234"/>
     <use xlink:href="#DejaVuSans-77" x="1818.449219"/>
     <use xlink:href="#DejaVuSans-65" x="1900.236328"/>
     <use xlink:href="#DejaVuSans-65" x="1961.759766"/>
     <use xlink:href="#DejaVuSans-6e" x="2023.283203"/>
     <use xlink:href="#DejaVuSans-20" x="2086.662109"/>
     <use xlink:href="#DejaVuSans-32" x="2118.449219"/>
     <use xlink:href="#DejaVuSans-30" x="2182.072266"/>
     <use xlink:href="#DejaVuSans-31" x="2245.695312"/>
     <use xlink:href="#DejaVuSans-33" x="2309.318359"/>
     <use xlink:href="#DejaVuSans-20" x="2372.941406"/>
     <use xlink:href="#DejaVuSans-61" x="2404.728516"/>
     <use xlink:href="#DejaVuSans-6e" x="2466.007812"/>
     <use xlink:href="#DejaVuSans-64" x="2529.386719"/>
     <use xlink:href="#DejaVuSans-20" x="2592.863281"/>
     <use xlink:href="#DejaVuSans-32" x="2624.650391"/>
     <use xlink:href="#DejaVuSans-30" x="2688.273438"/>
     <use xlink:href="#DejaVuSans-32" x="2751.896484"/>
     <use xlink:href="#DejaVuSans-32" x="2815.519531"/>
    </g>
   </g>
  </g>
 </g>
 <defs>
  <clipPath id="p1712c4ce64">
   <rect x="58.771875" y="22.318125" width="837" height="554.4"/>
  </clipPath>
 </defs>
</svg>
