<?xml version="1.0" encoding="utf-8" standalone="no"?>
<!DOCTYPE svg PUBLIC "-//W3C//DTD SVG 1.1//EN"
  "http://www.w3.org/Graphics/SVG/1.1/DTD/svg11.dtd">
<svg xmlns:xlink="http://www.w3.org/1999/xlink" width="901.090625pt" height="614.274375pt" viewBox="0 0 901.090625 614.274375" xmlns="http://www.w3.org/2000/svg" version="1.1">
 <metadata>
  <rdf:RDF xmlns:dc="http://purl.org/dc/elements/1.1/" xmlns:cc="http://creativecommons.org/ns#" xmlns:rdf="http://www.w3.org/1999/02/22-rdf-syntax-ns#">
   <cc:Work>
    <dc:type rdf:resource="http://purl.org/dc/dcmitype/StillImage"/>
    <dc:date>2024-06-27T12:52:32.837739</dc:date>
    <dc:format>image/svg+xml</dc:format>
    <dc:creator>
     <cc:Agent>
      <dc:title>Matplotlib v3.9.0, https://matplotlib.org/</dc:title>
     </cc:Agent>
    </dc:creator>
   </cc:Work>
  </rdf:RDF>
 </metadata>
 <defs>
  <style type="text/css">*{stroke-linejoin: round; stroke-linecap: butt}</style>
 </defs>
 <g id="figure_1">
  <g id="patch_1">
   <path d="M 0 614.274375 
L 901.090625 614.274375 
L 901.090625 0 
L 0 0 
z
" style="fill: #ffffff"/>
  </g>
  <g id="axes_1">
   <g id="patch_2">
    <path d="M 56.890625 576.718125 
L 893.890625 576.718125 
L 893.890625 22.318125 
L 56.890625 22.318125 
z
" style="fill: #ffffff"/>
   </g>
   <g id="PolyCollection_1">
    <path d="M 94.93608 524.756253 
L 94.93608 551.518125 
L 179.481534 163.589775 
L 179.481534 173.873498 
L 179.481534 173.873498 
L 94.93608 524.756253 
z
" clip-path="url(#p33e84dc6c1)" style="fill: #800080; fill-opacity: 0.1"/>
   </g>
   <g id="PolyCollection_2">
    <path d="M 179.481534 173.873498 
L 179.481534 163.589775 
L 264.026989 175.43909 
L 264.026989 203.271044 
L 264.026989 203.271044 
L 179.481534 173.873498 
z
" clip-path="url(#p33e84dc6c1)" style="fill: #800080; fill-opacity: 0.5"/>
   </g>
   <g id="PolyCollection_3">
    <path d="M 264.026989 203.271044 
L 264.026989 175.43909 
L 348.572443 205.579681 
L 348.572443 247.738138 
L 348.572443 247.738138 
L 264.026989 203.271044 
z
" clip-path="url(#p33e84dc6c1)" style="fill: #800080; fill-opacity: 0.5"/>
   </g>
   <g id="PolyCollection_4">
    <path d="M 348.572443 247.738138 
L 348.572443 205.579681 
L 433.117898 173.970859 
L 433.117898 244.891141 
L 433.117898 244.891141 
L 348.572443 247.738138 
z
" clip-path="url(#p33e84dc6c1)" style="fill: #800080; fill-opacity: 0.1"/>
   </g>
   <g id="PolyCollection_5">
    <path d="M 433.117898 244.891141 
L 433.117898 173.970859 
L 517.663352 178.420392 
L 517.663352 269.229027 
L 517.663352 269.229027 
L 433.117898 244.891141 
z
" clip-path="url(#p33e84dc6c1)" style="fill: #800080; fill-opacity: 0.5"/>
   </g>
   <g id="PolyCollection_6">
    <path d="M 517.663352 269.229027 
L 517.663352 178.420392 
L 602.208807 255.506188 
L 602.208807 304.415587 
L 602.208807 304.415587 
L 517.663352 269.229027 
z
" clip-path="url(#p33e84dc6c1)" style="fill: #008000; fill-opacity: 0.5"/>
   </g>
   <g id="PolyCollection_7">
    <path d="M 602.208807 304.415587 
L 602.208807 255.506188 
L 686.754261 260.276779 
L 686.754261 265.30347 
L 686.754261 265.30347 
L 602.208807 304.415587 
z
" clip-path="url(#p33e84dc6c1)" style="fill: #008000; fill-opacity: 0.5"/>
   </g>
   <g id="PolyCollection_8">
    <path d="M 686.754261 265.30347 
L 686.754261 260.276779 
L 771.299716 377.227262 
L 771.299716 47.518125 
L 771.299716 47.518125 
L 686.754261 265.30347 
z
" clip-path="url(#p33e84dc6c1)" style="fill: #008000; fill-opacity: 0.5"/>
   </g>
   <g id="PolyCollection_9">
    <path d="M 771.299716 47.518125 
L 771.299716 377.227262 
L 855.84517 261.647575 
L 855.84517 322.179443 
L 855.84517 322.179443 
L 771.299716 47.518125 
z
" clip-path="url(#p33e84dc6c1)" style="fill: #800080; fill-opacity: 0.5"/>
   </g>
   <g id="matplotlib.axis_1">
    <g id="xtick_1">
     <g id="line2d_1">
      <path d="M 94.93608 576.718125 
L 94.93608 22.318125 
" clip-path="url(#p33e84dc6c1)" style="fill: none; stroke: #b0b0b0; stroke-width: 0.8; stroke-linecap: square"/>
     </g>
     <g id="line2d_2">
      <defs>
       <path id="m65dbb8548b" d="M 0 0 
L 0 3.5 
" style="stroke: #000000; stroke-width: 0.8"/>
      </defs>
      <g>
       <use xlink:href="#m65dbb8548b" x="94.93608" y="576.718125" style="stroke: #000000; stroke-width: 0.8"/>
      </g>
     </g>
     <g id="text_1">
      <!-- 2013 -->
      <g transform="translate(82.21108 591.316563) scale(0.1 -0.1)">
       <defs>
        <path id="DejaVuSans-32" d="M 1228 531 
L 3431 531 
L 3431 0 
L 469 0 
L 469 531 
Q 828 903 1448 1529 
Q 2069 2156 2228 2338 
Q 2531 2678 2651 2914 
Q 2772 3150 2772 3378 
Q 2772 3750 2511 3984 
Q 2250 4219 1831 4219 
Q 1534 4219 1204 4116 
Q 875 4013 500 3803 
L 500 4441 
Q 881 4594 1212 4672 
Q 1544 4750 1819 4750 
Q 2544 4750 2975 4387 
Q 3406 4025 3406 3419 
Q 3406 3131 3298 2873 
Q 3191 2616 2906 2266 
Q 2828 2175 2409 1742 
Q 1991 1309 1228 531 
z
" transform="scale(0.015625)"/>
        <path id="DejaVuSans-30" d="M 2034 4250 
Q 1547 4250 1301 3770 
Q 1056 3291 1056 2328 
Q 1056 1369 1301 889 
Q 1547 409 2034 409 
Q 2525 409 2770 889 
Q 3016 1369 3016 2328 
Q 3016 3291 2770 3770 
Q 2525 4250 2034 4250 
z
M 2034 4750 
Q 2819 4750 3233 4129 
Q 3647 3509 3647 2328 
Q 3647 1150 3233 529 
Q 2819 -91 2034 -91 
Q 1250 -91 836 529 
Q 422 1150 422 2328 
Q 422 3509 836 4129 
Q 1250 4750 2034 4750 
z
" transform="scale(0.015625)"/>
        <path id="DejaVuSans-31" d="M 794 531 
L 1825 531 
L 1825 4091 
L 703 3866 
L 703 4441 
L 1819 4666 
L 2450 4666 
L 2450 531 
L 3481 531 
L 3481 0 
L 794 0 
L 794 531 
z
" transform="scale(0.015625)"/>
        <path id="DejaVuSans-33" d="M 2597 2516 
Q 3050 2419 3304 2112 
Q 3559 1806 3559 1356 
Q 3559 666 3084 287 
Q 2609 -91 1734 -91 
Q 1441 -91 1130 -33 
Q 819 25 488 141 
L 488 750 
Q 750 597 1062 519 
Q 1375 441 1716 441 
Q 2309 441 2620 675 
Q 2931 909 2931 1356 
Q 2931 1769 2642 2001 
Q 2353 2234 1838 2234 
L 1294 2234 
L 1294 2753 
L 1863 2753 
Q 2328 2753 2575 2939 
Q 2822 3125 2822 3475 
Q 2822 3834 2567 4026 
Q 2313 4219 1838 4219 
Q 1578 4219 1281 4162 
Q 984 4106 628 3988 
L 628 4550 
Q 988 4650 1302 4700 
Q 1616 4750 1894 4750 
Q 2613 4750 3031 4423 
Q 3450 4097 3450 3541 
Q 3450 3153 3228 2886 
Q 3006 2619 2597 2516 
z
" transform="scale(0.015625)"/>
       </defs>
       <use xlink:href="#DejaVuSans-32"/>
       <use xlink:href="#DejaVuSans-30" x="63.623047"/>
       <use xlink:href="#DejaVuSans-31" x="127.246094"/>
       <use xlink:href="#DejaVuSans-33" x="190.869141"/>
      </g>
     </g>
    </g>
    <g id="xtick_2">
     <g id="line2d_3">
      <path d="M 179.481534 576.718125 
L 179.481534 22.318125 
" clip-path="url(#p33e84dc6c1)" style="fill: none; stroke: #b0b0b0; stroke-width: 0.8; stroke-linecap: square"/>
     </g>
     <g id="line2d_4">
      <g>
       <use xlink:href="#m65dbb8548b" x="179.481534" y="576.718125" style="stroke: #000000; stroke-width: 0.8"/>
      </g>
     </g>
     <g id="text_2">
      <!-- 2014 -->
      <g transform="translate(166.756534 591.316563) scale(0.1 -0.1)">
       <defs>
        <path id="DejaVuSans-34" d="M 2419 4116 
L 825 1625 
L 2419 1625 
L 2419 4116 
z
M 2253 4666 
L 3047 4666 
L 3047 1625 
L 3713 1625 
L 3713 1100 
L 3047 1100 
L 3047 0 
L 2419 0 
L 2419 1100 
L 313 1100 
L 313 1709 
L 2253 4666 
z
" transform="scale(0.015625)"/>
       </defs>
       <use xlink:href="#DejaVuSans-32"/>
       <use xlink:href="#DejaVuSans-30" x="63.623047"/>
       <use xlink:href="#DejaVuSans-31" x="127.246094"/>
       <use xlink:href="#DejaVuSans-34" x="190.869141"/>
      </g>
     </g>
    </g>
    <g id="xtick_3">
     <g id="line2d_5">
      <path d="M 264.026989 576.718125 
L 264.026989 22.318125 
" clip-path="url(#p33e84dc6c1)" style="fill: none; stroke: #b0b0b0; stroke-width: 0.8; stroke-linecap: square"/>
     </g>
     <g id="line2d_6">
      <g>
       <use xlink:href="#m65dbb8548b" x="264.026989" y="576.718125" style="stroke: #000000; stroke-width: 0.8"/>
      </g>
     </g>
     <g id="text_3">
      <!-- 2015 -->
      <g transform="translate(251.301989 591.316563) scale(0.1 -0.1)">
       <defs>
        <path id="DejaVuSans-35" d="M 691 4666 
L 3169 4666 
L 3169 4134 
L 1269 4134 
L 1269 2991 
Q 1406 3038 1543 3061 
Q 1681 3084 1819 3084 
Q 2600 3084 3056 2656 
Q 3513 2228 3513 1497 
Q 3513 744 3044 326 
Q 2575 -91 1722 -91 
Q 1428 -91 1123 -41 
Q 819 9 494 109 
L 494 744 
Q 775 591 1075 516 
Q 1375 441 1709 441 
Q 2250 441 2565 725 
Q 2881 1009 2881 1497 
Q 2881 1984 2565 2268 
Q 2250 2553 1709 2553 
Q 1456 2553 1204 2497 
Q 953 2441 691 2322 
L 691 4666 
z
" transform="scale(0.015625)"/>
       </defs>
       <use xlink:href="#DejaVuSans-32"/>
       <use xlink:href="#DejaVuSans-30" x="63.623047"/>
       <use xlink:href="#DejaVuSans-31" x="127.246094"/>
       <use xlink:href="#DejaVuSans-35" x="190.869141"/>
      </g>
     </g>
    </g>
    <g id="xtick_4">
     <g id="line2d_7">
      <path d="M 348.572443 576.718125 
L 348.572443 22.318125 
" clip-path="url(#p33e84dc6c1)" style="fill: none; stroke: #b0b0b0; stroke-width: 0.8; stroke-linecap: square"/>
     </g>
     <g id="line2d_8">
      <g>
       <use xlink:href="#m65dbb8548b" x="348.572443" y="576.718125" style="stroke: #000000; stroke-width: 0.8"/>
      </g>
     </g>
     <g id="text_4">
      <!-- 2016 -->
      <g transform="translate(335.847443 591.316563) scale(0.1 -0.1)">
       <defs>
        <path id="DejaVuSans-36" d="M 2113 2584 
Q 1688 2584 1439 2293 
Q 1191 2003 1191 1497 
Q 1191 994 1439 701 
Q 1688 409 2113 409 
Q 2538 409 2786 701 
Q 3034 994 3034 1497 
Q 3034 2003 2786 2293 
Q 2538 2584 2113 2584 
z
M 3366 4563 
L 3366 3988 
Q 3128 4100 2886 4159 
Q 2644 4219 2406 4219 
Q 1781 4219 1451 3797 
Q 1122 3375 1075 2522 
Q 1259 2794 1537 2939 
Q 1816 3084 2150 3084 
Q 2853 3084 3261 2657 
Q 3669 2231 3669 1497 
Q 3669 778 3244 343 
Q 2819 -91 2113 -91 
Q 1303 -91 875 529 
Q 447 1150 447 2328 
Q 447 3434 972 4092 
Q 1497 4750 2381 4750 
Q 2619 4750 2861 4703 
Q 3103 4656 3366 4563 
z
" transform="scale(0.015625)"/>
       </defs>
       <use xlink:href="#DejaVuSans-32"/>
       <use xlink:href="#DejaVuSans-30" x="63.623047"/>
       <use xlink:href="#DejaVuSans-31" x="127.246094"/>
       <use xlink:href="#DejaVuSans-36" x="190.869141"/>
      </g>
     </g>
    </g>
    <g id="xtick_5">
     <g id="line2d_9">
      <path d="M 433.117898 576.718125 
L 433.117898 22.318125 
" clip-path="url(#p33e84dc6c1)" style="fill: none; stroke: #b0b0b0; stroke-width: 0.8; stroke-linecap: square"/>
     </g>
     <g id="line2d_10">
      <g>
       <use xlink:href="#m65dbb8548b" x="433.117898" y="576.718125" style="stroke: #000000; stroke-width: 0.8"/>
      </g>
     </g>
     <g id="text_5">
      <!-- 2017 -->
      <g transform="translate(420.392898 591.316563) scale(0.1 -0.1)">
       <defs>
        <path id="DejaVuSans-37" d="M 525 4666 
L 3525 4666 
L 3525 4397 
L 1831 0 
L 1172 0 
L 2766 4134 
L 525 4134 
L 525 4666 
z
" transform="scale(0.015625)"/>
       </defs>
       <use xlink:href="#DejaVuSans-32"/>
       <use xlink:href="#DejaVuSans-30" x="63.623047"/>
       <use xlink:href="#DejaVuSans-31" x="127.246094"/>
       <use xlink:href="#DejaVuSans-37" x="190.869141"/>
      </g>
     </g>
    </g>
    <g id="xtick_6">
     <g id="line2d_11">
      <path d="M 517.663352 576.718125 
L 517.663352 22.318125 
" clip-path="url(#p33e84dc6c1)" style="fill: none; stroke: #b0b0b0; stroke-width: 0.8; stroke-linecap: square"/>
     </g>
     <g id="line2d_12">
      <g>
       <use xlink:href="#m65dbb8548b" x="517.663352" y="576.718125" style="stroke: #000000; stroke-width: 0.8"/>
      </g>
     </g>
     <g id="text_6">
      <!-- 2018 -->
      <g transform="translate(504.938352 591.316563) scale(0.1 -0.1)">
       <defs>
        <path id="DejaVuSans-38" d="M 2034 2216 
Q 1584 2216 1326 1975 
Q 1069 1734 1069 1313 
Q 1069 891 1326 650 
Q 1584 409 2034 409 
Q 2484 409 2743 651 
Q 3003 894 3003 1313 
Q 3003 1734 2745 1975 
Q 2488 2216 2034 2216 
z
M 1403 2484 
Q 997 2584 770 2862 
Q 544 3141 544 3541 
Q 544 4100 942 4425 
Q 1341 4750 2034 4750 
Q 2731 4750 3128 4425 
Q 3525 4100 3525 3541 
Q 3525 3141 3298 2862 
Q 3072 2584 2669 2484 
Q 3125 2378 3379 2068 
Q 3634 1759 3634 1313 
Q 3634 634 3220 271 
Q 2806 -91 2034 -91 
Q 1263 -91 848 271 
Q 434 634 434 1313 
Q 434 1759 690 2068 
Q 947 2378 1403 2484 
z
M 1172 3481 
Q 1172 3119 1398 2916 
Q 1625 2713 2034 2713 
Q 2441 2713 2670 2916 
Q 2900 3119 2900 3481 
Q 2900 3844 2670 4047 
Q 2441 4250 2034 4250 
Q 1625 4250 1398 4047 
Q 1172 3844 1172 3481 
z
" transform="scale(0.015625)"/>
       </defs>
       <use xlink:href="#DejaVuSans-32"/>
       <use xlink:href="#DejaVuSans-30" x="63.623047"/>
       <use xlink:href="#DejaVuSans-31" x="127.246094"/>
       <use xlink:href="#DejaVuSans-38" x="190.869141"/>
      </g>
     </g>
    </g>
    <g id="xtick_7">
     <g id="line2d_13">
      <path d="M 602.208807 576.718125 
L 602.208807 22.318125 
" clip-path="url(#p33e84dc6c1)" style="fill: none; stroke: #b0b0b0; stroke-width: 0.8; stroke-linecap: square"/>
     </g>
     <g id="line2d_14">
      <g>
       <use xlink:href="#m65dbb8548b" x="602.208807" y="576.718125" style="stroke: #000000; stroke-width: 0.8"/>
      </g>
     </g>
     <g id="text_7">
      <!-- 2019 -->
      <g transform="translate(589.483807 591.316563) scale(0.1 -0.1)">
       <defs>
        <path id="DejaVuSans-39" d="M 703 97 
L 703 672 
Q 941 559 1184 500 
Q 1428 441 1663 441 
Q 2288 441 2617 861 
Q 2947 1281 2994 2138 
Q 2813 1869 2534 1725 
Q 2256 1581 1919 1581 
Q 1219 1581 811 2004 
Q 403 2428 403 3163 
Q 403 3881 828 4315 
Q 1253 4750 1959 4750 
Q 2769 4750 3195 4129 
Q 3622 3509 3622 2328 
Q 3622 1225 3098 567 
Q 2575 -91 1691 -91 
Q 1453 -91 1209 -44 
Q 966 3 703 97 
z
M 1959 2075 
Q 2384 2075 2632 2365 
Q 2881 2656 2881 3163 
Q 2881 3666 2632 3958 
Q 2384 4250 1959 4250 
Q 1534 4250 1286 3958 
Q 1038 3666 1038 3163 
Q 1038 2656 1286 2365 
Q 1534 2075 1959 2075 
z
" transform="scale(0.015625)"/>
       </defs>
       <use xlink:href="#DejaVuSans-32"/>
       <use xlink:href="#DejaVuSans-30" x="63.623047"/>
       <use xlink:href="#DejaVuSans-31" x="127.246094"/>
       <use xlink:href="#DejaVuSans-39" x="190.869141"/>
      </g>
     </g>
    </g>
    <g id="xtick_8">
     <g id="line2d_15">
      <path d="M 686.754261 576.718125 
L 686.754261 22.318125 
" clip-path="url(#p33e84dc6c1)" style="fill: none; stroke: #b0b0b0; stroke-width: 0.8; stroke-linecap: square"/>
     </g>
     <g id="line2d_16">
      <g>
       <use xlink:href="#m65dbb8548b" x="686.754261" y="576.718125" style="stroke: #000000; stroke-width: 0.8"/>
      </g>
     </g>
     <g id="text_8">
      <!-- 2020 -->
      <g transform="translate(674.029261 591.316563) scale(0.1 -0.1)">
       <use xlink:href="#DejaVuSans-32"/>
       <use xlink:href="#DejaVuSans-30" x="63.623047"/>
       <use xlink:href="#DejaVuSans-32" x="127.246094"/>
       <use xlink:href="#DejaVuSans-30" x="190.869141"/>
      </g>
     </g>
    </g>
    <g id="xtick_9">
     <g id="line2d_17">
      <path d="M 771.299716 576.718125 
L 771.299716 22.318125 
" clip-path="url(#p33e84dc6c1)" style="fill: none; stroke: #b0b0b0; stroke-width: 0.8; stroke-linecap: square"/>
     </g>
     <g id="line2d_18">
      <g>
       <use xlink:href="#m65dbb8548b" x="771.299716" y="576.718125" style="stroke: #000000; stroke-width: 0.8"/>
      </g>
     </g>
     <g id="text_9">
      <!-- 2021 -->
      <g transform="translate(758.574716 591.316563) scale(0.1 -0.1)">
       <use xlink:href="#DejaVuSans-32"/>
       <use xlink:href="#DejaVuSans-30" x="63.623047"/>
       <use xlink:href="#DejaVuSans-32" x="127.246094"/>
       <use xlink:href="#DejaVuSans-31" x="190.869141"/>
      </g>
     </g>
    </g>
    <g id="xtick_10">
     <g id="line2d_19">
      <path d="M 855.84517 576.718125 
L 855.84517 22.318125 
" clip-path="url(#p33e84dc6c1)" style="fill: none; stroke: #b0b0b0; stroke-width: 0.8; stroke-linecap: square"/>
     </g>
     <g id="line2d_20">
      <g>
       <use xlink:href="#m65dbb8548b" x="855.84517" y="576.718125" style="stroke: #000000; stroke-width: 0.8"/>
      </g>
     </g>
     <g id="text_10">
      <!-- 2022 -->
      <g transform="translate(843.12017 591.316563) scale(0.1 -0.1)">
       <use xlink:href="#DejaVuSans-32"/>
       <use xlink:href="#DejaVuSans-30" x="63.623047"/>
       <use xlink:href="#DejaVuSans-32" x="127.246094"/>
       <use xlink:href="#DejaVuSans-32" x="190.869141"/>
      </g>
     </g>
    </g>
    <g id="text_11">
     <!-- Year -->
     <g transform="translate(464.803125 604.994688) scale(0.1 -0.1)">
      <defs>
       <path id="DejaVuSans-59" d="M -13 4666 
L 666 4666 
L 1959 2747 
L 3244 4666 
L 3922 4666 
L 2272 2222 
L 2272 0 
L 1638 0 
L 1638 2222 
L -13 4666 
z
" transform="scale(0.015625)"/>
       <path id="DejaVuSans-65" d="M 3597 1894 
L 3597 1613 
L 953 1613 
Q 991 1019 1311 708 
Q 1631 397 2203 397 
Q 2534 397 2845 478 
Q 3156 559 3463 722 
L 3463 178 
Q 3153 47 2828 -22 
Q 2503 -91 2169 -91 
Q 1331 -91 842 396 
Q 353 884 353 1716 
Q 353 2575 817 3079 
Q 1281 3584 2069 3584 
Q 2775 3584 3186 3129 
Q 3597 2675 3597 1894 
z
M 3022 2063 
Q 3016 2534 2758 2815 
Q 2500 3097 2075 3097 
Q 1594 3097 1305 2825 
Q 1016 2553 972 2059 
L 3022 2063 
z
" transform="scale(0.015625)"/>
       <path id="DejaVuSans-61" d="M 2194 1759 
Q 1497 1759 1228 1600 
Q 959 1441 959 1056 
Q 959 750 1161 570 
Q 1363 391 1709 391 
Q 2188 391 2477 730 
Q 2766 1069 2766 1631 
L 2766 1759 
L 2194 1759 
z
M 3341 1997 
L 3341 0 
L 2766 0 
L 2766 531 
Q 2569 213 2275 61 
Q 1981 -91 1556 -91 
Q 1019 -91 701 211 
Q 384 513 384 1019 
Q 384 1609 779 1909 
Q 1175 2209 1959 2209 
L 2766 2209 
L 2766 2266 
Q 2766 2663 2505 2880 
Q 2244 3097 1772 3097 
Q 1472 3097 1187 3025 
Q 903 2953 641 2809 
L 641 3341 
Q 956 3463 1253 3523 
Q 1550 3584 1831 3584 
Q 2591 3584 2966 3190 
Q 3341 2797 3341 1997 
z
" transform="scale(0.015625)"/>
       <path id="DejaVuSans-72" d="M 2631 2963 
Q 2534 3019 2420 3045 
Q 2306 3072 2169 3072 
Q 1681 3072 1420 2755 
Q 1159 2438 1159 1844 
L 1159 0 
L 581 0 
L 581 3500 
L 1159 3500 
L 1159 2956 
Q 1341 3275 1631 3429 
Q 1922 3584 2338 3584 
Q 2397 3584 2469 3576 
Q 2541 3569 2628 3553 
L 2631 2963 
z
" transform="scale(0.015625)"/>
      </defs>
      <use xlink:href="#DejaVuSans-59"/>
      <use xlink:href="#DejaVuSans-65" x="47.833984"/>
      <use xlink:href="#DejaVuSans-61" x="109.357422"/>
      <use xlink:href="#DejaVuSans-72" x="170.636719"/>
     </g>
    </g>
   </g>
   <g id="matplotlib.axis_2">
    <g id="ytick_1">
     <g id="line2d_21">
      <path d="M 56.890625 502.722487 
L 893.890625 502.722487 
" clip-path="url(#p33e84dc6c1)" style="fill: none; stroke: #b0b0b0; stroke-width: 0.8; stroke-linecap: square"/>
     </g>
     <g id="line2d_22">
      <defs>
       <path id="m3c9f4546d6" d="M 0 0 
L -3.5 0 
" style="stroke: #000000; stroke-width: 0.8"/>
      </defs>
      <g>
       <use xlink:href="#m3c9f4546d6" x="56.890625" y="502.722487" style="stroke: #000000; stroke-width: 0.8"/>
      </g>
     </g>
     <g id="text_12">
      <!-- -2.0% -->
      <g transform="translate(20.878125 506.521706) scale(0.1 -0.1)">
       <defs>
        <path id="DejaVuSans-2d" d="M 313 2009 
L 1997 2009 
L 1997 1497 
L 313 1497 
L 313 2009 
z
" transform="scale(0.015625)"/>
        <path id="DejaVuSans-2e" d="M 684 794 
L 1344 794 
L 1344 0 
L 684 0 
L 684 794 
z
" transform="scale(0.015625)"/>
        <path id="DejaVuSans-25" d="M 4653 2053 
Q 4381 2053 4226 1822 
Q 4072 1591 4072 1178 
Q 4072 772 4226 539 
Q 4381 306 4653 306 
Q 4919 306 5073 539 
Q 5228 772 5228 1178 
Q 5228 1588 5073 1820 
Q 4919 2053 4653 2053 
z
M 4653 2450 
Q 5147 2450 5437 2106 
Q 5728 1763 5728 1178 
Q 5728 594 5436 251 
Q 5144 -91 4653 -91 
Q 4153 -91 3862 251 
Q 3572 594 3572 1178 
Q 3572 1766 3864 2108 
Q 4156 2450 4653 2450 
z
M 1428 4353 
Q 1159 4353 1004 4120 
Q 850 3888 850 3481 
Q 850 3069 1003 2837 
Q 1156 2606 1428 2606 
Q 1700 2606 1854 2837 
Q 2009 3069 2009 3481 
Q 2009 3884 1853 4118 
Q 1697 4353 1428 4353 
z
M 4250 4750 
L 4750 4750 
L 1831 -91 
L 1331 -91 
L 4250 4750 
z
M 1428 4750 
Q 1922 4750 2215 4408 
Q 2509 4066 2509 3481 
Q 2509 2891 2217 2550 
Q 1925 2209 1428 2209 
Q 931 2209 642 2551 
Q 353 2894 353 3481 
Q 353 4063 643 4406 
Q 934 4750 1428 4750 
z
" transform="scale(0.015625)"/>
       </defs>
       <use xlink:href="#DejaVuSans-2d"/>
       <use xlink:href="#DejaVuSans-32" x="36.083984"/>
       <use xlink:href="#DejaVuSans-2e" x="99.707031"/>
       <use xlink:href="#DejaVuSans-30" x="131.494141"/>
       <use xlink:href="#DejaVuSans-25" x="195.117188"/>
      </g>
     </g>
    </g>
    <g id="ytick_2">
     <g id="line2d_23">
      <path d="M 56.890625 381.52003 
L 893.890625 381.52003 
" clip-path="url(#p33e84dc6c1)" style="fill: none; stroke: #b0b0b0; stroke-width: 0.8; stroke-linecap: square"/>
     </g>
     <g id="line2d_24">
      <g>
       <use xlink:href="#m3c9f4546d6" x="56.890625" y="381.52003" style="stroke: #000000; stroke-width: 0.8"/>
      </g>
     </g>
     <g id="text_13">
      <!-- -1.0% -->
      <g transform="translate(20.878125 385.319249) scale(0.1 -0.1)">
       <use xlink:href="#DejaVuSans-2d"/>
       <use xlink:href="#DejaVuSans-31" x="36.083984"/>
       <use xlink:href="#DejaVuSans-2e" x="99.707031"/>
       <use xlink:href="#DejaVuSans-30" x="131.494141"/>
       <use xlink:href="#DejaVuSans-25" x="195.117188"/>
      </g>
     </g>
    </g>
    <g id="ytick_3">
     <g id="line2d_25">
      <path d="M 56.890625 260.317573 
L 893.890625 260.317573 
" clip-path="url(#p33e84dc6c1)" style="fill: none; stroke: #b0b0b0; stroke-width: 0.8; stroke-linecap: square"/>
     </g>
     <g id="line2d_26">
      <g>
       <use xlink:href="#m3c9f4546d6" x="56.890625" y="260.317573" style="stroke: #000000; stroke-width: 0.8"/>
      </g>
     </g>
     <g id="text_14">
      <!-- 0.0% -->
      <g transform="translate(24.485938 264.116791) scale(0.1 -0.1)">
       <use xlink:href="#DejaVuSans-30"/>
       <use xlink:href="#DejaVuSans-2e" x="63.623047"/>
       <use xlink:href="#DejaVuSans-30" x="95.410156"/>
       <use xlink:href="#DejaVuSans-25" x="159.033203"/>
      </g>
     </g>
    </g>
    <g id="ytick_4">
     <g id="line2d_27">
      <path d="M 56.890625 139.115115 
L 893.890625 139.115115 
" clip-path="url(#p33e84dc6c1)" style="fill: none; stroke: #b0b0b0; stroke-width: 0.8; stroke-linecap: square"/>
     </g>
     <g id="line2d_28">
      <g>
       <use xlink:href="#m3c9f4546d6" x="56.890625" y="139.115115" style="stroke: #000000; stroke-width: 0.8"/>
      </g>
     </g>
     <g id="text_15">
      <!-- 1.0% -->
      <g transform="translate(24.485938 142.914334) scale(0.1 -0.1)">
       <use xlink:href="#DejaVuSans-31"/>
       <use xlink:href="#DejaVuSans-2e" x="63.623047"/>
       <use xlink:href="#DejaVuSans-30" x="95.410156"/>
       <use xlink:href="#DejaVuSans-25" x="159.033203"/>
      </g>
     </g>
    </g>
    <g id="text_16">
     <!-- Z-Score of % Change -->
     <g transform="translate(14.798438 352.143125) rotate(-90) scale(0.1 -0.1)">
      <defs>
       <path id="DejaVuSans-5a" d="M 359 4666 
L 4025 4666 
L 4025 4184 
L 1075 531 
L 4097 531 
L 4097 0 
L 288 0 
L 288 481 
L 3238 4134 
L 359 4134 
L 359 4666 
z
" transform="scale(0.015625)"/>
       <path id="DejaVuSans-53" d="M 3425 4513 
L 3425 3897 
Q 3066 4069 2747 4153 
Q 2428 4238 2131 4238 
Q 1616 4238 1336 4038 
Q 1056 3838 1056 3469 
Q 1056 3159 1242 3001 
Q 1428 2844 1947 2747 
L 2328 2669 
Q 3034 2534 3370 2195 
Q 3706 1856 3706 1288 
Q 3706 609 3251 259 
Q 2797 -91 1919 -91 
Q 1588 -91 1214 -16 
Q 841 59 441 206 
L 441 856 
Q 825 641 1194 531 
Q 1563 422 1919 422 
Q 2459 422 2753 634 
Q 3047 847 3047 1241 
Q 3047 1584 2836 1778 
Q 2625 1972 2144 2069 
L 1759 2144 
Q 1053 2284 737 2584 
Q 422 2884 422 3419 
Q 422 4038 858 4394 
Q 1294 4750 2059 4750 
Q 2388 4750 2728 4690 
Q 3069 4631 3425 4513 
z
" transform="scale(0.015625)"/>
       <path id="DejaVuSans-63" d="M 3122 3366 
L 3122 2828 
Q 2878 2963 2633 3030 
Q 2388 3097 2138 3097 
Q 1578 3097 1268 2742 
Q 959 2388 959 1747 
Q 959 1106 1268 751 
Q 1578 397 2138 397 
Q 2388 397 2633 464 
Q 2878 531 3122 666 
L 3122 134 
Q 2881 22 2623 -34 
Q 2366 -91 2075 -91 
Q 1284 -91 818 406 
Q 353 903 353 1747 
Q 353 2603 823 3093 
Q 1294 3584 2113 3584 
Q 2378 3584 2631 3529 
Q 2884 3475 3122 3366 
z
" transform="scale(0.015625)"/>
       <path id="DejaVuSans-6f" d="M 1959 3097 
Q 1497 3097 1228 2736 
Q 959 2375 959 1747 
Q 959 1119 1226 758 
Q 1494 397 1959 397 
Q 2419 397 2687 759 
Q 2956 1122 2956 1747 
Q 2956 2369 2687 2733 
Q 2419 3097 1959 3097 
z
M 1959 3584 
Q 2709 3584 3137 3096 
Q 3566 2609 3566 1747 
Q 3566 888 3137 398 
Q 2709 -91 1959 -91 
Q 1206 -91 779 398 
Q 353 888 353 1747 
Q 353 2609 779 3096 
Q 1206 3584 1959 3584 
z
" transform="scale(0.015625)"/>
       <path id="DejaVuSans-20" transform="scale(0.015625)"/>
       <path id="DejaVuSans-66" d="M 2375 4863 
L 2375 4384 
L 1825 4384 
Q 1516 4384 1395 4259 
Q 1275 4134 1275 3809 
L 1275 3500 
L 2222 3500 
L 2222 3053 
L 1275 3053 
L 1275 0 
L 697 0 
L 697 3053 
L 147 3053 
L 147 3500 
L 697 3500 
L 697 3744 
Q 697 4328 969 4595 
Q 1241 4863 1831 4863 
L 2375 4863 
z
" transform="scale(0.015625)"/>
       <path id="DejaVuSans-43" d="M 4122 4306 
L 4122 3641 
Q 3803 3938 3442 4084 
Q 3081 4231 2675 4231 
Q 1875 4231 1450 3742 
Q 1025 3253 1025 2328 
Q 1025 1406 1450 917 
Q 1875 428 2675 428 
Q 3081 428 3442 575 
Q 3803 722 4122 1019 
L 4122 359 
Q 3791 134 3420 21 
Q 3050 -91 2638 -91 
Q 1578 -91 968 557 
Q 359 1206 359 2328 
Q 359 3453 968 4101 
Q 1578 4750 2638 4750 
Q 3056 4750 3426 4639 
Q 3797 4528 4122 4306 
z
" transform="scale(0.015625)"/>
       <path id="DejaVuSans-68" d="M 3513 2113 
L 3513 0 
L 2938 0 
L 2938 2094 
Q 2938 2591 2744 2837 
Q 2550 3084 2163 3084 
Q 1697 3084 1428 2787 
Q 1159 2491 1159 1978 
L 1159 0 
L 581 0 
L 581 4863 
L 1159 4863 
L 1159 2956 
Q 1366 3272 1645 3428 
Q 1925 3584 2291 3584 
Q 2894 3584 3203 3211 
Q 3513 2838 3513 2113 
z
" transform="scale(0.015625)"/>
       <path id="DejaVuSans-6e" d="M 3513 2113 
L 3513 0 
L 2938 0 
L 2938 2094 
Q 2938 2591 2744 2837 
Q 2550 3084 2163 3084 
Q 1697 3084 1428 2787 
Q 1159 2491 1159 1978 
L 1159 0 
L 581 0 
L 581 3500 
L 1159 3500 
L 1159 2956 
Q 1366 3272 1645 3428 
Q 1925 3584 2291 3584 
Q 2894 3584 3203 3211 
Q 3513 2838 3513 2113 
z
" transform="scale(0.015625)"/>
       <path id="DejaVuSans-67" d="M 2906 1791 
Q 2906 2416 2648 2759 
Q 2391 3103 1925 3103 
Q 1463 3103 1205 2759 
Q 947 2416 947 1791 
Q 947 1169 1205 825 
Q 1463 481 1925 481 
Q 2391 481 2648 825 
Q 2906 1169 2906 1791 
z
M 3481 434 
Q 3481 -459 3084 -895 
Q 2688 -1331 1869 -1331 
Q 1566 -1331 1297 -1286 
Q 1028 -1241 775 -1147 
L 775 -588 
Q 1028 -725 1275 -790 
Q 1522 -856 1778 -856 
Q 2344 -856 2625 -561 
Q 2906 -266 2906 331 
L 2906 616 
Q 2728 306 2450 153 
Q 2172 0 1784 0 
Q 1141 0 747 490 
Q 353 981 353 1791 
Q 353 2603 747 3093 
Q 1141 3584 1784 3584 
Q 2172 3584 2450 3431 
Q 2728 3278 2906 2969 
L 2906 3500 
L 3481 3500 
L 3481 434 
z
" transform="scale(0.015625)"/>
      </defs>
      <use xlink:href="#DejaVuSans-5a"/>
      <use xlink:href="#DejaVuSans-2d" x="66.755859"/>
      <use xlink:href="#DejaVuSans-53" x="102.839844"/>
      <use xlink:href="#DejaVuSans-63" x="166.316406"/>
      <use xlink:href="#DejaVuSans-6f" x="221.296875"/>
      <use xlink:href="#DejaVuSans-72" x="282.478516"/>
      <use xlink:href="#DejaVuSans-65" x="321.341797"/>
      <use xlink:href="#DejaVuSans-20" x="382.865234"/>
      <use xlink:href="#DejaVuSans-6f" x="414.652344"/>
      <use xlink:href="#DejaVuSans-66" x="475.833984"/>
      <use xlink:href="#DejaVuSans-20" x="511.039062"/>
      <use xlink:href="#DejaVuSans-25" x="542.826172"/>
      <use xlink:href="#DejaVuSans-20" x="637.845703"/>
      <use xlink:href="#DejaVuSans-43" x="669.632812"/>
      <use xlink:href="#DejaVuSans-68" x="739.457031"/>
      <use xlink:href="#DejaVuSans-61" x="802.835938"/>
      <use xlink:href="#DejaVuSans-6e" x="864.115234"/>
      <use xlink:href="#DejaVuSans-67" x="927.494141"/>
      <use xlink:href="#DejaVuSans-65" x="990.970703"/>
     </g>
    </g>
   </g>
   <g id="line2d_29">
    <path d="M 94.93608 551.518125 
L 179.481534 163.589775 
L 264.026989 175.43909 
L 348.572443 205.579681 
L 433.117898 173.970859 
L 517.663352 178.420392 
L 602.208807 255.506188 
L 686.754261 260.276779 
L 771.299716 377.227262 
L 855.84517 261.647575 
" clip-path="url(#p33e84dc6c1)" style="fill: none; stroke: #008000; stroke-width: 1.5; stroke-linecap: square"/>
    <defs>
     <path id="mb9cef2ef72" d="M 0 3 
C 0.795609 3 1.55874 2.683901 2.12132 2.12132 
C 2.683901 1.55874 3 0.795609 3 0 
C 3 -0.795609 2.683901 -1.55874 2.12132 -2.12132 
C 1.55874 -2.683901 0.795609 -3 0 -3 
C -0.795609 -3 -1.55874 -2.683901 -2.12132 -2.12132 
C -2.683901 -1.55874 -3 -0.795609 -3 0 
C -3 0.795609 -2.683901 1.55874 -2.12132 2.12132 
C -1.55874 2.683901 -0.795609 3 0 3 
z
" style="stroke: #008000"/>
    </defs>
    <g clip-path="url(#p33e84dc6c1)">
     <use xlink:href="#mb9cef2ef72" x="94.93608" y="551.518125" style="fill: #008000; stroke: #008000"/>
     <use xlink:href="#mb9cef2ef72" x="179.481534" y="163.589775" style="fill: #008000; stroke: #008000"/>
     <use xlink:href="#mb9cef2ef72" x="264.026989" y="175.43909" style="fill: #008000; stroke: #008000"/>
     <use xlink:href="#mb9cef2ef72" x="348.572443" y="205.579681" style="fill: #008000; stroke: #008000"/>
     <use xlink:href="#mb9cef2ef72" x="433.117898" y="173.970859" style="fill: #008000; stroke: #008000"/>
     <use xlink:href="#mb9cef2ef72" x="517.663352" y="178.420392" style="fill: #008000; stroke: #008000"/>
     <use xlink:href="#mb9cef2ef72" x="602.208807" y="255.506188" style="fill: #008000; stroke: #008000"/>
     <use xlink:href="#mb9cef2ef72" x="686.754261" y="260.276779" style="fill: #008000; stroke: #008000"/>
     <use xlink:href="#mb9cef2ef72" x="771.299716" y="377.227262" style="fill: #008000; stroke: #008000"/>
     <use xlink:href="#mb9cef2ef72" x="855.84517" y="261.647575" style="fill: #008000; stroke: #008000"/>
    </g>
   </g>
   <g id="line2d_30">
    <path d="M 94.93608 524.756253 
L 179.481534 173.873498 
L 264.026989 203.271044 
L 348.572443 247.738138 
L 433.117898 244.891141 
L 517.663352 269.229027 
L 602.208807 304.415587 
L 686.754261 265.30347 
L 771.299716 47.518125 
L 855.84517 322.179443 
" clip-path="url(#p33e84dc6c1)" style="fill: none; stroke: #800080; stroke-width: 1.5; stroke-linecap: square"/>
    <defs>
     <path id="m0736ea78cf" d="M 0 3 
C 0.795609 3 1.55874 2.683901 2.12132 2.12132 
C 2.683901 1.55874 3 0.795609 3 0 
C 3 -0.795609 2.683901 -1.55874 2.12132 -2.12132 
C 1.55874 -2.683901 0.795609 -3 0 -3 
C -0.795609 -3 -1.55874 -2.683901 -2.12132 -2.12132 
C -2.683901 -1.55874 -3 -0.795609 -3 0 
C -3 0.795609 -2.683901 1.55874 -2.12132 2.12132 
C -1.55874 2.683901 -0.795609 3 0 3 
z
" style="stroke: #800080"/>
    </defs>
    <g clip-path="url(#p33e84dc6c1)">
     <use xlink:href="#m0736ea78cf" x="94.93608" y="524.756253" style="fill: #800080; stroke: #800080"/>
     <use xlink:href="#m0736ea78cf" x="179.481534" y="173.873498" style="fill: #800080; stroke: #800080"/>
     <use xlink:href="#m0736ea78cf" x="264.026989" y="203.271044" style="fill: #800080; stroke: #800080"/>
     <use xlink:href="#m0736ea78cf" x="348.572443" y="247.738138" style="fill: #800080; stroke: #800080"/>
     <use xlink:href="#m0736ea78cf" x="433.117898" y="244.891141" style="fill: #800080; stroke: #800080"/>
     <use xlink:href="#m0736ea78cf" x="517.663352" y="269.229027" style="fill: #800080; stroke: #800080"/>
     <use xlink:href="#m0736ea78cf" x="602.208807" y="304.415587" style="fill: #800080; stroke: #800080"/>
     <use xlink:href="#m0736ea78cf" x="686.754261" y="265.30347" style="fill: #800080; stroke: #800080"/>
     <use xlink:href="#m0736ea78cf" x="771.299716" y="47.518125" style="fill: #800080; stroke: #800080"/>
     <use xlink:href="#m0736ea78cf" x="855.84517" y="322.179443" style="fill: #800080; stroke: #800080"/>
    </g>
   </g>
   <g id="patch_3">
    <path d="M 128.754261 364.826097 
L 137.208807 364.826097 
Q 138.054261 364.826097 138.054261 363.614073 
L 138.054261 351.493827 
Q 138.054261 350.281803 137.208807 350.281803 
L 128.754261 350.281803 
Q 127.908807 350.281803 127.908807 351.493827 
L 127.908807 363.614073 
Q 127.908807 364.826097 128.754261 364.826097 
z
" clip-path="url(#p33e84dc6c1)" style="fill: #ffffff"/>
   </g>
   <g id="patch_4">
    <path d="M 137.208807 364.826097 
L 145.663352 364.826097 
Q 146.508807 364.826097 146.508807 363.614073 
L 146.508807 351.493827 
Q 146.508807 350.281803 145.663352 350.281803 
L 137.208807 350.281803 
Q 136.363352 350.281803 136.363352 351.493827 
L 136.363352 363.614073 
Q 136.363352 364.826097 137.208807 364.826097 
z
" clip-path="url(#p33e84dc6c1)" style="fill: #ffffff"/>
   </g>
   <g id="patch_5">
    <path d="M 213.299716 176.78658 
L 221.754261 176.78658 
Q 222.599716 176.78658 222.599716 175.574556 
L 222.599716 163.45431 
Q 222.599716 162.242285 221.754261 162.242285 
L 213.299716 162.242285 
Q 212.454261 162.242285 212.454261 163.45431 
L 212.454261 175.574556 
Q 212.454261 176.78658 213.299716 176.78658 
z
" clip-path="url(#p33e84dc6c1)" style="fill: #ffffff"/>
   </g>
   <g id="patch_6">
    <path d="M 221.754261 176.78658 
L 230.208807 176.78658 
Q 231.054261 176.78658 231.054261 175.574556 
L 231.054261 163.45431 
Q 231.054261 162.242285 230.208807 162.242285 
L 221.754261 162.242285 
Q 220.908807 162.242285 220.908807 163.45431 
L 220.908807 175.574556 
Q 220.908807 176.78658 221.754261 176.78658 
z
" clip-path="url(#p33e84dc6c1)" style="fill: #ffffff"/>
   </g>
   <g id="patch_7">
    <path d="M 297.84517 197.781533 
L 306.299716 197.781533 
Q 307.14517 197.781533 307.14517 196.569509 
L 307.14517 184.449263 
Q 307.14517 183.237238 306.299716 183.237238 
L 297.84517 183.237238 
Q 296.999716 183.237238 296.999716 184.449263 
L 296.999716 196.569509 
Q 296.999716 197.781533 297.84517 197.781533 
z
" clip-path="url(#p33e84dc6c1)" style="fill: #ffffff"/>
   </g>
   <g id="patch_8">
    <path d="M 306.299716 197.781533 
L 314.754261 197.781533 
Q 315.599716 197.781533 315.599716 196.569509 
L 315.599716 184.449263 
Q 315.599716 183.237238 314.754261 183.237238 
L 306.299716 183.237238 
Q 305.454261 183.237238 305.454261 184.449263 
L 305.454261 196.569509 
Q 305.454261 197.781533 306.299716 197.781533 
z
" clip-path="url(#p33e84dc6c1)" style="fill: #ffffff"/>
   </g>
   <g id="patch_9">
    <path d="M 382.390625 197.047417 
L 390.84517 197.047417 
Q 391.690625 197.047417 391.690625 195.835393 
L 391.690625 183.715147 
Q 391.690625 182.503123 390.84517 182.503123 
L 382.390625 182.503123 
Q 381.54517 182.503123 381.54517 183.715147 
L 381.54517 195.835393 
Q 381.54517 197.047417 382.390625 197.047417 
z
" clip-path="url(#p33e84dc6c1)" style="fill: #ffffff"/>
   </g>
   <g id="patch_10">
    <path d="M 390.84517 197.047417 
L 399.299716 197.047417 
Q 400.14517 197.047417 400.14517 195.835393 
L 400.14517 183.715147 
Q 400.14517 182.503123 399.299716 182.503123 
L 390.84517 182.503123 
Q 389.999716 182.503123 389.999716 183.715147 
L 389.999716 195.835393 
Q 389.999716 197.047417 390.84517 197.047417 
z
" clip-path="url(#p33e84dc6c1)" style="fill: #ffffff"/>
   </g>
   <g id="patch_11">
    <path d="M 466.93608 183.467773 
L 475.390625 183.467773 
Q 476.23608 183.467773 476.23608 182.255748 
L 476.23608 170.135503 
Q 476.23608 168.923478 475.390625 168.923478 
L 466.93608 168.923478 
Q 466.090625 168.923478 466.090625 170.135503 
L 466.090625 182.255748 
Q 466.090625 183.467773 466.93608 183.467773 
z
" clip-path="url(#p33e84dc6c1)" style="fill: #ffffff"/>
   </g>
   <g id="patch_12">
    <path d="M 475.390625 183.467773 
L 483.84517 183.467773 
Q 484.690625 183.467773 484.690625 182.255748 
L 484.690625 170.135503 
Q 484.690625 168.923478 483.84517 168.923478 
L 475.390625 168.923478 
Q 474.54517 168.923478 474.54517 170.135503 
L 474.54517 182.255748 
Q 474.54517 183.467773 475.390625 183.467773 
z
" clip-path="url(#p33e84dc6c1)" style="fill: #ffffff"/>
   </g>
   <g id="patch_13">
    <path d="M 551.481534 224.235437 
L 559.93608 224.235437 
Q 560.781534 224.235437 560.781534 223.023413 
L 560.781534 210.903167 
Q 560.781534 209.691143 559.93608 209.691143 
L 551.481534 209.691143 
Q 550.63608 209.691143 550.63608 210.903167 
L 550.63608 223.023413 
Q 550.63608 224.235437 551.481534 224.235437 
z
" clip-path="url(#p33e84dc6c1)" style="fill: #ffffff"/>
   </g>
   <g id="patch_14">
    <path d="M 559.93608 224.235437 
L 568.390625 224.235437 
Q 569.23608 224.235437 569.23608 223.023413 
L 569.23608 210.903167 
Q 569.23608 209.691143 568.390625 209.691143 
L 559.93608 209.691143 
Q 559.090625 209.691143 559.090625 210.903167 
L 559.090625 223.023413 
Q 559.090625 224.235437 559.93608 224.235437 
z
" clip-path="url(#p33e84dc6c1)" style="fill: #ffffff"/>
   </g>
   <g id="patch_15">
    <path d="M 636.026989 265.163631 
L 644.481534 265.163631 
Q 645.326989 265.163631 645.326989 263.951606 
L 645.326989 251.83136 
Q 645.326989 250.619336 644.481534 250.619336 
L 636.026989 250.619336 
Q 635.181534 250.619336 635.181534 251.83136 
L 635.181534 263.951606 
Q 635.181534 265.163631 636.026989 265.163631 
z
" clip-path="url(#p33e84dc6c1)" style="fill: #ffffff"/>
   </g>
   <g id="patch_16">
    <path d="M 644.481534 265.163631 
L 652.93608 265.163631 
Q 653.781534 265.163631 653.781534 263.951606 
L 653.781534 251.83136 
Q 653.781534 250.619336 652.93608 250.619336 
L 644.481534 250.619336 
Q 643.63608 250.619336 643.63608 251.83136 
L 643.63608 263.951606 
Q 643.63608 265.163631 644.481534 265.163631 
z
" clip-path="url(#p33e84dc6c1)" style="fill: #ffffff"/>
   </g>
   <g id="patch_17">
    <path d="M 720.572443 326.024168 
L 729.026989 326.024168 
Q 729.872443 326.024168 729.872443 324.812143 
L 729.872443 312.691898 
Q 729.872443 311.479873 729.026989 311.479873 
L 720.572443 311.479873 
Q 719.726989 311.479873 719.726989 312.691898 
L 719.726989 324.812143 
Q 719.726989 326.024168 720.572443 326.024168 
z
" clip-path="url(#p33e84dc6c1)" style="fill: #ffffff"/>
   </g>
   <g id="patch_18">
    <path d="M 729.026989 326.024168 
L 737.481534 326.024168 
Q 738.326989 326.024168 738.326989 324.812143 
L 738.326989 312.691898 
Q 738.326989 311.479873 737.481534 311.479873 
L 729.026989 311.479873 
Q 728.181534 311.479873 728.181534 312.691898 
L 728.181534 324.812143 
Q 728.181534 326.024168 729.026989 326.024168 
z
" clip-path="url(#p33e84dc6c1)" style="fill: #ffffff"/>
   </g>
   <g id="patch_19">
    <path d="M 805.117898 326.709566 
L 813.572443 326.709566 
Q 814.417898 326.709566 814.417898 325.497542 
L 814.417898 313.377296 
Q 814.417898 312.165271 813.572443 312.165271 
L 805.117898 312.165271 
Q 804.272443 312.165271 804.272443 313.377296 
L 804.272443 325.497542 
Q 804.272443 326.709566 805.117898 326.709566 
z
" clip-path="url(#p33e84dc6c1)" style="fill: #ffffff"/>
   </g>
   <g id="patch_20">
    <path d="M 813.572443 326.709566 
L 822.026989 326.709566 
Q 822.872443 326.709566 822.872443 325.497542 
L 822.872443 313.377296 
Q 822.872443 312.165271 822.026989 312.165271 
L 813.572443 312.165271 
Q 812.726989 312.165271 812.726989 313.377296 
L 812.726989 325.497542 
Q 812.726989 326.709566 813.572443 326.709566 
z
" clip-path="url(#p33e84dc6c1)" style="fill: #ffffff"/>
   </g>
   <g id="patch_21">
    <path d="M 56.890625 576.718125 
L 56.890625 22.318125 
" style="fill: none; stroke: #000000; stroke-width: 0.8; stroke-linejoin: miter; stroke-linecap: square"/>
   </g>
   <g id="patch_22">
    <path d="M 893.890625 576.718125 
L 893.890625 22.318125 
" style="fill: none; stroke: #000000; stroke-width: 0.8; stroke-linejoin: miter; stroke-linecap: square"/>
   </g>
   <g id="patch_23">
    <path d="M 56.890625 576.718125 
L 893.890625 576.718125 
" style="fill: none; stroke: #000000; stroke-width: 0.8; stroke-linejoin: miter; stroke-linecap: square"/>
   </g>
   <g id="patch_24">
    <path d="M 56.890625 22.318125 
L 893.890625 22.318125 
" style="fill: none; stroke: #000000; stroke-width: 0.8; stroke-linejoin: miter; stroke-linecap: square"/>
   </g>
   <g id="text_17">
    <!-- ↑ -->
    <g style="fill: #008000" transform="translate(127.953722 360.8652) scale(0.12 -0.12)">
     <defs>
      <path id="DejaVuSans-2191" d="M 2541 4688 
L 2822 4688 
L 4047 3456 
L 3672 3081 
L 2947 3813 
L 2947 0 
L 2416 0 
L 2416 3813 
L 1684 3081 
L 1309 3456 
L 2541 4688 
z
" transform="scale(0.015625)"/>
     </defs>
     <use xlink:href="#DejaVuSans-2191"/>
    </g>
   </g>
   <g id="text_18">
    <!-- ↑ -->
    <g style="fill: #800080" transform="translate(136.408267 360.8652) scale(0.12 -0.12)">
     <use xlink:href="#DejaVuSans-2191"/>
    </g>
   </g>
   <g id="text_19">
    <!-- ↓ -->
    <g style="fill: #008000" transform="translate(212.499176 172.825683) scale(0.12 -0.12)">
     <defs>
      <path id="DejaVuSans-2193" d="M 2822 -22 
L 2541 -22 
L 1309 1209 
L 1684 1584 
L 2416 853 
L 2416 4666 
L 2947 4666 
L 2947 853 
L 3672 1584 
L 4047 1209 
L 2822 -22 
z
" transform="scale(0.015625)"/>
     </defs>
     <use xlink:href="#DejaVuSans-2193"/>
    </g>
   </g>
   <g id="text_20">
    <!-- ↓ -->
    <g style="fill: #800080" transform="translate(220.953722 172.825683) scale(0.12 -0.12)">
     <use xlink:href="#DejaVuSans-2193"/>
    </g>
   </g>
   <g id="text_21">
    <!-- ↓ -->
    <g style="fill: #008000" transform="translate(297.044631 193.820636) scale(0.12 -0.12)">
     <use xlink:href="#DejaVuSans-2193"/>
    </g>
   </g>
   <g id="text_22">
    <!-- ↓ -->
    <g style="fill: #800080" transform="translate(305.499176 193.820636) scale(0.12 -0.12)">
     <use xlink:href="#DejaVuSans-2193"/>
    </g>
   </g>
   <g id="text_23">
    <!-- ↑ -->
    <g style="fill: #008000" transform="translate(381.590085 193.08652) scale(0.12 -0.12)">
     <use xlink:href="#DejaVuSans-2191"/>
    </g>
   </g>
   <g id="text_24">
    <!-- ↑ -->
    <g style="fill: #800080" transform="translate(390.044631 193.08652) scale(0.12 -0.12)">
     <use xlink:href="#DejaVuSans-2191"/>
    </g>
   </g>
   <g id="text_25">
    <!-- ↓ -->
    <g style="fill: #008000" transform="translate(466.13554 179.506875) scale(0.12 -0.12)">
     <use xlink:href="#DejaVuSans-2193"/>
    </g>
   </g>
   <g id="text_26">
    <!-- ↓ -->
    <g style="fill: #800080" transform="translate(474.590085 179.506875) scale(0.12 -0.12)">
     <use xlink:href="#DejaVuSans-2193"/>
    </g>
   </g>
   <g id="text_27">
    <!-- ↓ -->
    <g style="fill: #008000" transform="translate(550.680994 220.27454) scale(0.12 -0.12)">
     <use xlink:href="#DejaVuSans-2193"/>
    </g>
   </g>
   <g id="text_28">
    <!-- ↓ -->
    <g style="fill: #800080" transform="translate(559.13554 220.27454) scale(0.12 -0.12)">
     <use xlink:href="#DejaVuSans-2193"/>
    </g>
   </g>
   <g id="text_29">
    <!-- ↓ -->
    <g style="fill: #008000" transform="translate(635.226449 261.202733) scale(0.12 -0.12)">
     <use xlink:href="#DejaVuSans-2193"/>
    </g>
   </g>
   <g id="text_30">
    <!-- ↑ -->
    <g style="fill: #800080" transform="translate(643.680994 261.202733) scale(0.12 -0.12)">
     <use xlink:href="#DejaVuSans-2191"/>
    </g>
   </g>
   <g id="text_31">
    <!-- ↓ -->
    <g style="fill: #008000" transform="translate(719.771903 322.063271) scale(0.12 -0.12)">
     <use xlink:href="#DejaVuSans-2193"/>
    </g>
   </g>
   <g id="text_32">
    <!-- ↑ -->
    <g style="fill: #800080" transform="translate(728.226449 322.063271) scale(0.12 -0.12)">
     <use xlink:href="#DejaVuSans-2191"/>
    </g>
   </g>
   <g id="text_33">
    <!-- ↑ -->
    <g style="fill: #008000" transform="translate(804.317358 322.748669) scale(0.12 -0.12)">
     <use xlink:href="#DejaVuSans-2191"/>
    </g>
   </g>
   <g id="text_34">
    <!-- ↓ -->
    <g style="fill: #800080" transform="translate(812.771903 322.748669) scale(0.12 -0.12)">
     <use xlink:href="#DejaVuSans-2193"/>
    </g>
   </g>
   <g id="text_35">
    <!-- Normalized Year-over-Year Percentage Change in Population for Texas and Average of All States -->
    <g transform="translate(190.025 16.318125) scale(0.12 -0.12)">
     <defs>
      <path id="DejaVuSans-4e" d="M 628 4666 
L 1478 4666 
L 3547 763 
L 3547 4666 
L 4159 4666 
L 4159 0 
L 3309 0 
L 1241 3903 
L 1241 0 
L 628 0 
L 628 4666 
z
" transform="scale(0.015625)"/>
      <path id="DejaVuSans-6d" d="M 3328 2828 
Q 3544 3216 3844 3400 
Q 4144 3584 4550 3584 
Q 5097 3584 5394 3201 
Q 5691 2819 5691 2113 
L 5691 0 
L 5113 0 
L 5113 2094 
Q 5113 2597 4934 2840 
Q 4756 3084 4391 3084 
Q 3944 3084 3684 2787 
Q 3425 2491 3425 1978 
L 3425 0 
L 2847 0 
L 2847 2094 
Q 2847 2600 2669 2842 
Q 2491 3084 2119 3084 
Q 1678 3084 1418 2786 
Q 1159 2488 1159 1978 
L 1159 0 
L 581 0 
L 581 3500 
L 1159 3500 
L 1159 2956 
Q 1356 3278 1631 3431 
Q 1906 3584 2284 3584 
Q 2666 3584 2933 3390 
Q 3200 3197 3328 2828 
z
" transform="scale(0.015625)"/>
      <path id="DejaVuSans-6c" d="M 603 4863 
L 1178 4863 
L 1178 0 
L 603 0 
L 603 4863 
z
" transform="scale(0.015625)"/>
      <path id="DejaVuSans-69" d="M 603 3500 
L 1178 3500 
L 1178 0 
L 603 0 
L 603 3500 
z
M 603 4863 
L 1178 4863 
L 1178 4134 
L 603 4134 
L 603 4863 
z
" transform="scale(0.015625)"/>
      <path id="DejaVuSans-7a" d="M 353 3500 
L 3084 3500 
L 3084 2975 
L 922 459 
L 3084 459 
L 3084 0 
L 275 0 
L 275 525 
L 2438 3041 
L 353 3041 
L 353 3500 
z
" transform="scale(0.015625)"/>
      <path id="DejaVuSans-64" d="M 2906 2969 
L 2906 4863 
L 3481 4863 
L 3481 0 
L 2906 0 
L 2906 525 
Q 2725 213 2448 61 
Q 2172 -91 1784 -91 
Q 1150 -91 751 415 
Q 353 922 353 1747 
Q 353 2572 751 3078 
Q 1150 3584 1784 3584 
Q 2172 3584 2448 3432 
Q 2725 3281 2906 2969 
z
M 947 1747 
Q 947 1113 1208 752 
Q 1469 391 1925 391 
Q 2381 391 2643 752 
Q 2906 1113 2906 1747 
Q 2906 2381 2643 2742 
Q 2381 3103 1925 3103 
Q 1469 3103 1208 2742 
Q 947 2381 947 1747 
z
" transform="scale(0.015625)"/>
      <path id="DejaVuSans-76" d="M 191 3500 
L 800 3500 
L 1894 563 
L 2988 3500 
L 3597 3500 
L 2284 0 
L 1503 0 
L 191 3500 
z
" transform="scale(0.015625)"/>
      <path id="DejaVuSans-50" d="M 1259 4147 
L 1259 2394 
L 2053 2394 
Q 2494 2394 2734 2622 
Q 2975 2850 2975 3272 
Q 2975 3691 2734 3919 
Q 2494 4147 2053 4147 
L 1259 4147 
z
M 628 4666 
L 2053 4666 
Q 2838 4666 3239 4311 
Q 3641 3956 3641 3272 
Q 3641 2581 3239 2228 
Q 2838 1875 2053 1875 
L 1259 1875 
L 1259 0 
L 628 0 
L 628 4666 
z
" transform="scale(0.015625)"/>
      <path id="DejaVuSans-74" d="M 1172 4494 
L 1172 3500 
L 2356 3500 
L 2356 3053 
L 1172 3053 
L 1172 1153 
Q 1172 725 1289 603 
Q 1406 481 1766 481 
L 2356 481 
L 2356 0 
L 1766 0 
Q 1100 0 847 248 
Q 594 497 594 1153 
L 594 3053 
L 172 3053 
L 172 3500 
L 594 3500 
L 594 4494 
L 1172 4494 
z
" transform="scale(0.015625)"/>
      <path id="DejaVuSans-70" d="M 1159 525 
L 1159 -1331 
L 581 -1331 
L 581 3500 
L 1159 3500 
L 1159 2969 
Q 1341 3281 1617 3432 
Q 1894 3584 2278 3584 
Q 2916 3584 3314 3078 
Q 3713 2572 3713 1747 
Q 3713 922 3314 415 
Q 2916 -91 2278 -91 
Q 1894 -91 1617 61 
Q 1341 213 1159 525 
z
M 3116 1747 
Q 3116 2381 2855 2742 
Q 2594 3103 2138 3103 
Q 1681 3103 1420 2742 
Q 1159 2381 1159 1747 
Q 1159 1113 1420 752 
Q 1681 391 2138 391 
Q 2594 391 2855 752 
Q 3116 1113 3116 1747 
z
" transform="scale(0.015625)"/>
      <path id="DejaVuSans-75" d="M 544 1381 
L 544 3500 
L 1119 3500 
L 1119 1403 
Q 1119 906 1312 657 
Q 1506 409 1894 409 
Q 2359 409 2629 706 
Q 2900 1003 2900 1516 
L 2900 3500 
L 3475 3500 
L 3475 0 
L 2900 0 
L 2900 538 
Q 2691 219 2414 64 
Q 2138 -91 1772 -91 
Q 1169 -91 856 284 
Q 544 659 544 1381 
z
M 1991 3584 
L 1991 3584 
z
" transform="scale(0.015625)"/>
      <path id="DejaVuSans-54" d="M -19 4666 
L 3928 4666 
L 3928 4134 
L 2272 4134 
L 2272 0 
L 1638 0 
L 1638 4134 
L -19 4134 
L -19 4666 
z
" transform="scale(0.015625)"/>
      <path id="DejaVuSans-78" d="M 3513 3500 
L 2247 1797 
L 3578 0 
L 2900 0 
L 1881 1375 
L 863 0 
L 184 0 
L 1544 1831 
L 300 3500 
L 978 3500 
L 1906 2253 
L 2834 3500 
L 3513 3500 
z
" transform="scale(0.015625)"/>
      <path id="DejaVuSans-73" d="M 2834 3397 
L 2834 2853 
Q 2591 2978 2328 3040 
Q 2066 3103 1784 3103 
Q 1356 3103 1142 2972 
Q 928 2841 928 2578 
Q 928 2378 1081 2264 
Q 1234 2150 1697 2047 
L 1894 2003 
Q 2506 1872 2764 1633 
Q 3022 1394 3022 966 
Q 3022 478 2636 193 
Q 2250 -91 1575 -91 
Q 1294 -91 989 -36 
Q 684 19 347 128 
L 347 722 
Q 666 556 975 473 
Q 1284 391 1588 391 
Q 1994 391 2212 530 
Q 2431 669 2431 922 
Q 2431 1156 2273 1281 
Q 2116 1406 1581 1522 
L 1381 1569 
Q 847 1681 609 1914 
Q 372 2147 372 2553 
Q 372 3047 722 3315 
Q 1072 3584 1716 3584 
Q 2034 3584 2315 3537 
Q 2597 3491 2834 3397 
z
" transform="scale(0.015625)"/>
      <path id="DejaVuSans-41" d="M 2188 4044 
L 1331 1722 
L 3047 1722 
L 2188 4044 
z
M 1831 4666 
L 2547 4666 
L 4325 0 
L 3669 0 
L 3244 1197 
L 1141 1197 
L 716 0 
L 50 0 
L 1831 4666 
z
" transform="scale(0.015625)"/>
     </defs>
     <use xlink:href="#DejaVuSans-4e"/>
     <use xlink:href="#DejaVuSans-6f" x="74.804688"/>
     <use xlink:href="#DejaVuSans-72" x="135.986328"/>
     <use xlink:href="#DejaVuSans-6d" x="175.349609"/>
     <use xlink:href="#DejaVuSans-61" x="272.761719"/>
     <use xlink:href="#DejaVuSans-6c" x="334.041016"/>
     <use xlink:href="#DejaVuSans-69" x="361.824219"/>
     <use xlink:href="#DejaVuSans-7a" x="389.607422"/>
     <use xlink:href="#DejaVuSans-65" x="442.097656"/>
     <use xlink:href="#DejaVuSans-64" x="503.621094"/>
     <use xlink:href="#DejaVuSans-20" x="567.097656"/>
     <use xlink:href="#DejaVuSans-59" x="598.884766"/>
     <use xlink:href="#DejaVuSans-65" x="646.71875"/>
     <use xlink:href="#DejaVuSans-61" x="708.242188"/>
     <use xlink:href="#DejaVuSans-72" x="769.521484"/>
     <use xlink:href="#DejaVuSans-2d" x="804.259766"/>
     <use xlink:href="#DejaVuSans-6f" x="842.21875"/>
     <use xlink:href="#DejaVuSans-76" x="903.400391"/>
     <use xlink:href="#DejaVuSans-65" x="962.580078"/>
     <use xlink:href="#DejaVuSans-72" x="1024.103516"/>
     <use xlink:href="#DejaVuSans-2d" x="1058.841797"/>
     <use xlink:href="#DejaVuSans-59" x="1083.050781"/>
     <use xlink:href="#DejaVuSans-65" x="1130.884766"/>
     <use xlink:href="#DejaVuSans-61" x="1192.408203"/>
     <use xlink:href="#DejaVuSans-72" x="1253.6875"/>
     <use xlink:href="#DejaVuSans-20" x="1294.800781"/>
     <use xlink:href="#DejaVuSans-50" x="1326.587891"/>
     <use xlink:href="#DejaVuSans-65" x="1383.265625"/>
     <use xlink:href="#DejaVuSans-72" x="1444.789062"/>
     <use xlink:href="#DejaVuSans-63" x="1483.652344"/>
     <use xlink:href="#DejaVuSans-65" x="1538.632812"/>
     <use xlink:href="#DejaVuSans-6e" x="1600.15625"/>
     <use xlink:href="#DejaVuSans-74" x="1663.535156"/>
     <use xlink:href="#DejaVuSans-61" x="1702.744141"/>
     <use xlink:href="#DejaVuSans-67" x="1764.023438"/>
     <use xlink:href="#DejaVuSans-65" x="1827.5"/>
     <use xlink:href="#DejaVuSans-20" x="1889.023438"/>
     <use xlink:href="#DejaVuSans-43" x="1920.810547"/>
     <use xlink:href="#DejaVuSans-68" x="1990.634766"/>
     <use xlink:href="#DejaVuSans-61" x="2054.013672"/>
     <use xlink:href="#DejaVuSans-6e" x="2115.292969"/>
     <use xlink:href="#DejaVuSans-67" x="2178.671875"/>
     <use xlink:href="#DejaVuSans-65" x="2242.148438"/>
     <use xlink:href="#DejaVuSans-20" x="2303.671875"/>
     <use xlink:href="#DejaVuSans-69" x="2335.458984"/>
     <use xlink:href="#DejaVuSans-6e" x="2363.242188"/>
     <use xlink:href="#DejaVuSans-20" x="2426.621094"/>
     <use xlink:href="#DejaVuSans-50" x="2458.408203"/>
     <use xlink:href="#DejaVuSans-6f" x="2515.085938"/>
     <use xlink:href="#DejaVuSans-70" x="2576.267578"/>
     <use xlink:href="#DejaVuSans-75" x="2639.744141"/>
     <use xlink:href="#DejaVuSans-6c" x="2703.123047"/>
     <use xlink:href="#DejaVuSans-61" x="2730.90625"/>
     <use xlink:href="#DejaVuSans-74" x="2792.185547"/>
     <use xlink:href="#DejaVuSans-69" x="2831.394531"/>
     <use xlink:href="#DejaVuSans-6f" x="2859.177734"/>
     <use xlink:href="#DejaVuSans-6e" x="2920.359375"/>
     <use xlink:href="#DejaVuSans-20" x="2983.738281"/>
     <use xlink:href="#DejaVuSans-66" x="3015.525391"/>
     <use xlink:href="#DejaVuSans-6f" x="3050.730469"/>
     <use xlink:href="#DejaVuSans-72" x="3111.912109"/>
     <use xlink:href="#DejaVuSans-20" x="3153.025391"/>
     <use xlink:href="#DejaVuSans-54" x="3184.8125"/>
     <use xlink:href="#DejaVuSans-65" x="3228.896484"/>
     <use xlink:href="#DejaVuSans-78" x="3288.669922"/>
     <use xlink:href="#DejaVuSans-61" x="3347.849609"/>
     <use xlink:href="#DejaVuSans-73" x="3409.128906"/>
     <use xlink:href="#DejaVuSans-20" x="3461.228516"/>
     <use xlink:href="#DejaVuSans-61" x="3493.015625"/>
     <use xlink:href="#DejaVuSans-6e" x="3554.294922"/>
     <use xlink:href="#DejaVuSans-64" x="3617.673828"/>
     <use xlink:href="#DejaVuSans-20" x="3681.150391"/>
     <use xlink:href="#DejaVuSans-41" x="3712.9375"/>
     <use xlink:href="#DejaVuSans-76" x="3775.470703"/>
     <use xlink:href="#DejaVuSans-65" x="3834.650391"/>
     <use xlink:href="#DejaVuSans-72" x="3896.173828"/>
     <use xlink:href="#DejaVuSans-61" x="3937.287109"/>
     <use xlink:href="#DejaVuSans-67" x="3998.566406"/>
     <use xlink:href="#DejaVuSans-65" x="4062.042969"/>
     <use xlink:href="#DejaVuSans-20" x="4123.566406"/>
     <use xlink:href="#DejaVuSans-6f" x="4155.353516"/>
     <use xlink:href="#DejaVuSans-66" x="4216.535156"/>
     <use xlink:href="#DejaVuSans-20" x="4251.740234"/>
     <use xlink:href="#DejaVuSans-41" x="4283.527344"/>
     <use xlink:href="#DejaVuSans-6c" x="4351.935547"/>
     <use xlink:href="#DejaVuSans-6c" x="4379.71875"/>
     <use xlink:href="#DejaVuSans-20" x="4407.501953"/>
     <use xlink:href="#DejaVuSans-53" x="4439.289062"/>
     <use xlink:href="#DejaVuSans-74" x="4502.765625"/>
     <use xlink:href="#DejaVuSans-61" x="4541.974609"/>
     <use xlink:href="#DejaVuSans-74" x="4603.253906"/>
     <use xlink:href="#DejaVuSans-65" x="4642.462891"/>
     <use xlink:href="#DejaVuSans-73" x="4703.986328"/>
    </g>
   </g>
   <g id="legend_1">
    <g id="patch_25">
     <path d="M 365.709375 571.718125 
L 585.071875 571.718125 
Q 587.071875 571.718125 587.071875 569.718125 
L 587.071875 453.293125 
Q 587.071875 451.293125 585.071875 451.293125 
L 365.709375 451.293125 
Q 363.709375 451.293125 363.709375 453.293125 
L 363.709375 569.718125 
Q 363.709375 571.718125 365.709375 571.718125 
z
" style="fill: #ffffff; stroke: #cccccc; stroke-linejoin: miter"/>
    </g>
    <g id="line2d_31">
     <path d="M 367.709375 459.391563 
L 377.709375 459.391563 
L 387.709375 459.391563 
" style="fill: none; stroke: #008000; stroke-width: 1.5; stroke-linecap: square"/>
     <g>
      <use xlink:href="#mb9cef2ef72" x="377.709375" y="459.391563" style="fill: #008000; stroke: #008000"/>
     </g>
    </g>
    <g id="text_36">
     <!--           Texas -->
     <g transform="translate(373.709375 462.891563) scale(0.1 -0.1)">
      <use xlink:href="#DejaVuSans-20"/>
      <use xlink:href="#DejaVuSans-20" x="31.787109"/>
      <use xlink:href="#DejaVuSans-20" x="63.574219"/>
      <use xlink:href="#DejaVuSans-20" x="95.361328"/>
      <use xlink:href="#DejaVuSans-20" x="127.148438"/>
      <use xlink:href="#DejaVuSans-20" x="158.935547"/>
      <use xlink:href="#DejaVuSans-20" x="190.722656"/>
      <use xlink:href="#DejaVuSans-20" x="222.509766"/>
      <use xlink:href="#DejaVuSans-20" x="254.296875"/>
      <use xlink:href="#DejaVuSans-20" x="286.083984"/>
      <use xlink:href="#DejaVuSans-54" x="317.871094"/>
      <use xlink:href="#DejaVuSans-65" x="361.955078"/>
      <use xlink:href="#DejaVuSans-78" x="421.728516"/>
      <use xlink:href="#DejaVuSans-61" x="480.908203"/>
      <use xlink:href="#DejaVuSans-73" x="542.1875"/>
     </g>
    </g>
    <g id="line2d_32">
     <path d="M 367.709375 474.069688 
L 377.709375 474.069688 
L 387.709375 474.069688 
" style="fill: none; stroke: #800080; stroke-width: 1.5; stroke-linecap: square"/>
     <g>
      <use xlink:href="#m0736ea78cf" x="377.709375" y="474.069688" style="fill: #800080; stroke: #800080"/>
     </g>
    </g>
    <g id="text_37">
     <!--           Avg of States -->
     <g transform="translate(373.709375 477.569688) scale(0.1 -0.1)">
      <use xlink:href="#DejaVuSans-20"/>
      <use xlink:href="#DejaVuSans-20" x="31.787109"/>
      <use xlink:href="#DejaVuSans-20" x="63.574219"/>
      <use xlink:href="#DejaVuSans-20" x="95.361328"/>
      <use xlink:href="#DejaVuSans-20" x="127.148438"/>
      <use xlink:href="#DejaVuSans-20" x="158.935547"/>
      <use xlink:href="#DejaVuSans-20" x="190.722656"/>
      <use xlink:href="#DejaVuSans-20" x="222.509766"/>
      <use xlink:href="#DejaVuSans-20" x="254.296875"/>
      <use xlink:href="#DejaVuSans-20" x="286.083984"/>
      <use xlink:href="#DejaVuSans-41" x="317.871094"/>
      <use xlink:href="#DejaVuSans-76" x="380.404297"/>
      <use xlink:href="#DejaVuSans-67" x="439.583984"/>
      <use xlink:href="#DejaVuSans-20" x="503.060547"/>
      <use xlink:href="#DejaVuSans-6f" x="534.847656"/>
      <use xlink:href="#DejaVuSans-66" x="596.029297"/>
      <use xlink:href="#DejaVuSans-20" x="631.234375"/>
      <use xlink:href="#DejaVuSans-53" x="663.021484"/>
      <use xlink:href="#DejaVuSans-74" x="726.498047"/>
      <use xlink:href="#DejaVuSans-61" x="765.707031"/>
      <use xlink:href="#DejaVuSans-74" x="826.986328"/>
      <use xlink:href="#DejaVuSans-65" x="866.195312"/>
      <use xlink:href="#DejaVuSans-73" x="927.71875"/>
     </g>
    </g>
    <g id="line2d_33"/>
    <g id="text_38">
     <!-- ↑       Mean-relative growth rate increase -->
     <g transform="translate(373.709375 492.247813) scale(0.1 -0.1)">
      <defs>
       <path id="DejaVuSans-4d" d="M 628 4666 
L 1569 4666 
L 2759 1491 
L 3956 4666 
L 4897 4666 
L 4897 0 
L 4281 0 
L 4281 4097 
L 3078 897 
L 2444 897 
L 1241 4097 
L 1241 0 
L 628 0 
L 628 4666 
z
" transform="scale(0.015625)"/>
       <path id="DejaVuSans-77" d="M 269 3500 
L 844 3500 
L 1563 769 
L 2278 3500 
L 2956 3500 
L 3675 769 
L 4391 3500 
L 4966 3500 
L 4050 0 
L 3372 0 
L 2619 2869 
L 1863 0 
L 1184 0 
L 269 3500 
z
" transform="scale(0.015625)"/>
      </defs>
      <use xlink:href="#DejaVuSans-2191"/>
      <use xlink:href="#DejaVuSans-20" x="83.789062"/>
      <use xlink:href="#DejaVuSans-20" x="115.576172"/>
      <use xlink:href="#DejaVuSans-20" x="147.363281"/>
      <use xlink:href="#DejaVuSans-20" x="179.150391"/>
      <use xlink:href="#DejaVuSans-20" x="210.9375"/>
      <use xlink:href="#DejaVuSans-20" x="242.724609"/>
      <use xlink:href="#DejaVuSans-20" x="274.511719"/>
      <use xlink:href="#DejaVuSans-4d" x="306.298828"/>
      <use xlink:href="#DejaVuSans-65" x="392.578125"/>
      <use xlink:href="#DejaVuSans-61" x="454.101562"/>
      <use xlink:href="#DejaVuSans-6e" x="515.380859"/>
      <use xlink:href="#DejaVuSans-2d" x="578.759766"/>
      <use xlink:href="#DejaVuSans-72" x="614.84375"/>
      <use xlink:href="#DejaVuSans-65" x="653.707031"/>
      <use xlink:href="#DejaVuSans-6c" x="715.230469"/>
      <use xlink:href="#DejaVuSans-61" x="743.013672"/>
      <use xlink:href="#DejaVuSans-74" x="804.292969"/>
      <use xlink:href="#DejaVuSans-69" x="843.501953"/>
      <use xlink:href="#DejaVuSans-76" x="871.285156"/>
      <use xlink:href="#DejaVuSans-65" x="930.464844"/>
      <use xlink:href="#DejaVuSans-20" x="991.988281"/>
      <use xlink:href="#DejaVuSans-67" x="1023.775391"/>
      <use xlink:href="#DejaVuSans-72" x="1087.251953"/>
      <use xlink:href="#DejaVuSans-6f" x="1126.115234"/>
      <use xlink:href="#DejaVuSans-77" x="1187.296875"/>
      <use xlink:href="#DejaVuSans-74" x="1269.083984"/>
      <use xlink:href="#DejaVuSans-68" x="1308.292969"/>
      <use xlink:href="#DejaVuSans-20" x="1371.671875"/>
      <use xlink:href="#DejaVuSans-72" x="1403.458984"/>
      <use xlink:href="#DejaVuSans-61" x="1444.572266"/>
      <use xlink:href="#DejaVuSans-74" x="1505.851562"/>
      <use xlink:href="#DejaVuSans-65" x="1545.060547"/>
      <use xlink:href="#DejaVuSans-20" x="1606.583984"/>
      <use xlink:href="#DejaVuSans-69" x="1638.371094"/>
      <use xlink:href="#DejaVuSans-6e" x="1666.154297"/>
      <use xlink:href="#DejaVuSans-63" x="1729.533203"/>
      <use xlink:href="#DejaVuSans-72" x="1784.513672"/>
      <use xlink:href="#DejaVuSans-65" x="1823.376953"/>
      <use xlink:href="#DejaVuSans-61" x="1884.900391"/>
      <use xlink:href="#DejaVuSans-73" x="1946.179688"/>
      <use xlink:href="#DejaVuSans-65" x="1998.279297"/>
     </g>
    </g>
    <g id="line2d_34"/>
    <g id="text_39">
     <!-- ↓       Mean-relative growth rate decrease -->
     <g transform="translate(373.709375 506.925938) scale(0.1 -0.1)">
      <use xlink:href="#DejaVuSans-2193"/>
      <use xlink:href="#DejaVuSans-20" x="83.789062"/>
      <use xlink:href="#DejaVuSans-20" x="115.576172"/>
      <use xlink:href="#DejaVuSans-20" x="147.363281"/>
      <use xlink:href="#DejaVuSans-20" x="179.150391"/>
      <use xlink:href="#DejaVuSans-20" x="210.9375"/>
      <use xlink:href="#DejaVuSans-20" x="242.724609"/>
      <use xlink:href="#DejaVuSans-20" x="274.511719"/>
      <use xlink:href="#DejaVuSans-4d" x="306.298828"/>
      <use xlink:href="#DejaVuSans-65" x="392.578125"/>
      <use xlink:href="#DejaVuSans-61" x="454.101562"/>
      <use xlink:href="#DejaVuSans-6e" x="515.380859"/>
      <use xlink:href="#DejaVuSans-2d" x="578.759766"/>
      <use xlink:href="#DejaVuSans-72" x="614.84375"/>
      <use xlink:href="#DejaVuSans-65" x="653.707031"/>
      <use xlink:href="#DejaVuSans-6c" x="715.230469"/>
      <use xlink:href="#DejaVuSans-61" x="743.013672"/>
      <use xlink:href="#DejaVuSans-74" x="804.292969"/>
      <use xlink:href="#DejaVuSans-69" x="843.501953"/>
      <use xlink:href="#DejaVuSans-76" x="871.285156"/>
      <use xlink:href="#DejaVuSans-65" x="930.464844"/>
      <use xlink:href="#DejaVuSans-20" x="991.988281"/>
      <use xlink:href="#DejaVuSans-67" x="1023.775391"/>
      <use xlink:href="#DejaVuSans-72" x="1087.251953"/>
      <use xlink:href="#DejaVuSans-6f" x="1126.115234"/>
      <use xlink:href="#DejaVuSans-77" x="1187.296875"/>
      <use xlink:href="#DejaVuSans-74" x="1269.083984"/>
      <use xlink:href="#DejaVuSans-68" x="1308.292969"/>
      <use xlink:href="#DejaVuSans-20" x="1371.671875"/>
      <use xlink:href="#DejaVuSans-72" x="1403.458984"/>
      <use xlink:href="#DejaVuSans-61" x="1444.572266"/>
      <use xlink:href="#DejaVuSans-74" x="1505.851562"/>
      <use xlink:href="#DejaVuSans-65" x="1545.060547"/>
      <use xlink:href="#DejaVuSans-20" x="1606.583984"/>
      <use xlink:href="#DejaVuSans-64" x="1638.371094"/>
      <use xlink:href="#DejaVuSans-65" x="1701.847656"/>
      <use xlink:href="#DejaVuSans-63" x="1763.371094"/>
      <use xlink:href="#DejaVuSans-72" x="1818.351562"/>
      <use xlink:href="#DejaVuSans-65" x="1857.214844"/>
      <use xlink:href="#DejaVuSans-61" x="1918.738281"/>
      <use xlink:href="#DejaVuSans-73" x="1980.017578"/>
      <use xlink:href="#DejaVuSans-65" x="2032.117188"/>
     </g>
    </g>
    <g id="patch_26">
     <path d="M 367.709375 521.604063 
L 387.709375 521.604063 
L 387.709375 514.604063 
L 367.709375 514.604063 
z
" style="fill: #008000; opacity: 0.25; stroke: #008000; stroke-linejoin: miter"/>
    </g>
    <g id="text_40">
     <!--          Lower Texas rate increase -->
     <g transform="translate(373.709375 521.604063) scale(0.1 -0.1)">
      <defs>
       <path id="DejaVuSans-4c" d="M 628 4666 
L 1259 4666 
L 1259 531 
L 3531 531 
L 3531 0 
L 628 0 
L 628 4666 
z
" transform="scale(0.015625)"/>
      </defs>
      <use xlink:href="#DejaVuSans-20"/>
      <use xlink:href="#DejaVuSans-20" x="31.787109"/>
      <use xlink:href="#DejaVuSans-20" x="63.574219"/>
      <use xlink:href="#DejaVuSans-20" x="95.361328"/>
      <use xlink:href="#DejaVuSans-20" x="127.148438"/>
      <use xlink:href="#DejaVuSans-20" x="158.935547"/>
      <use xlink:href="#DejaVuSans-20" x="190.722656"/>
      <use xlink:href="#DejaVuSans-20" x="222.509766"/>
      <use xlink:href="#DejaVuSans-20" x="254.296875"/>
      <use xlink:href="#DejaVuSans-4c" x="286.083984"/>
      <use xlink:href="#DejaVuSans-6f" x="340.046875"/>
      <use xlink:href="#DejaVuSans-77" x="401.228516"/>
      <use xlink:href="#DejaVuSans-65" x="483.015625"/>
      <use xlink:href="#DejaVuSans-72" x="544.539062"/>
      <use xlink:href="#DejaVuSans-20" x="585.652344"/>
      <use xlink:href="#DejaVuSans-54" x="617.439453"/>
      <use xlink:href="#DejaVuSans-65" x="661.523438"/>
      <use xlink:href="#DejaVuSans-78" x="721.296875"/>
      <use xlink:href="#DejaVuSans-61" x="780.476562"/>
      <use xlink:href="#DejaVuSans-73" x="841.755859"/>
      <use xlink:href="#DejaVuSans-20" x="893.855469"/>
      <use xlink:href="#DejaVuSans-72" x="925.642578"/>
      <use xlink:href="#DejaVuSans-61" x="966.755859"/>
      <use xlink:href="#DejaVuSans-74" x="1028.035156"/>
      <use xlink:href="#DejaVuSans-65" x="1067.244141"/>
      <use xlink:href="#DejaVuSans-20" x="1128.767578"/>
      <use xlink:href="#DejaVuSans-69" x="1160.554688"/>
      <use xlink:href="#DejaVuSans-6e" x="1188.337891"/>
      <use xlink:href="#DejaVuSans-63" x="1251.716797"/>
      <use xlink:href="#DejaVuSans-72" x="1306.697266"/>
      <use xlink:href="#DejaVuSans-65" x="1345.560547"/>
      <use xlink:href="#DejaVuSans-61" x="1407.083984"/>
      <use xlink:href="#DejaVuSans-73" x="1468.363281"/>
      <use xlink:href="#DejaVuSans-65" x="1520.462891"/>
     </g>
    </g>
    <g id="patch_27">
     <path d="M 367.709375 536.282188 
L 387.709375 536.282188 
L 387.709375 529.282188 
L 367.709375 529.282188 
z
" style="fill: #800080; opacity: 0.25; stroke: #800080; stroke-linejoin: miter"/>
    </g>
    <g id="text_41">
     <!--          Lower Avg of States rate increase -->
     <g transform="translate(373.709375 536.282188) scale(0.1 -0.1)">
      <use xlink:href="#DejaVuSans-20"/>
      <use xlink:href="#DejaVuSans-20" x="31.787109"/>
      <use xlink:href="#DejaVuSans-20" x="63.574219"/>
      <use xlink:href="#DejaVuSans-20" x="95.361328"/>
      <use xlink:href="#DejaVuSans-20" x="127.148438"/>
      <use xlink:href="#DejaVuSans-20" x="158.935547"/>
      <use xlink:href="#DejaVuSans-20" x="190.722656"/>
      <use xlink:href="#DejaVuSans-20" x="222.509766"/>
      <use xlink:href="#DejaVuSans-20" x="254.296875"/>
      <use xlink:href="#DejaVuSans-4c" x="286.083984"/>
      <use xlink:href="#DejaVuSans-6f" x="340.046875"/>
      <use xlink:href="#DejaVuSans-77" x="401.228516"/>
      <use xlink:href="#DejaVuSans-65" x="483.015625"/>
      <use xlink:href="#DejaVuSans-72" x="544.539062"/>
      <use xlink:href="#DejaVuSans-20" x="585.652344"/>
      <use xlink:href="#DejaVuSans-41" x="617.439453"/>
      <use xlink:href="#DejaVuSans-76" x="679.972656"/>
      <use xlink:href="#DejaVuSans-67" x="739.152344"/>
      <use xlink:href="#DejaVuSans-20" x="802.628906"/>
      <use xlink:href="#DejaVuSans-6f" x="834.416016"/>
      <use xlink:href="#DejaVuSans-66" x="895.597656"/>
      <use xlink:href="#DejaVuSans-20" x="930.802734"/>
      <use xlink:href="#DejaVuSans-53" x="962.589844"/>
      <use xlink:href="#DejaVuSans-74" x="1026.066406"/>
      <use xlink:href="#DejaVuSans-61" x="1065.275391"/>
      <use xlink:href="#DejaVuSans-74" x="1126.554688"/>
      <use xlink:href="#DejaVuSans-65" x="1165.763672"/>
      <use xlink:href="#DejaVuSans-73" x="1227.287109"/>
      <use xlink:href="#DejaVuSans-20" x="1279.386719"/>
      <use xlink:href="#DejaVuSans-72" x="1311.173828"/>
      <use xlink:href="#DejaVuSans-61" x="1352.287109"/>
      <use xlink:href="#DejaVuSans-74" x="1413.566406"/>
      <use xlink:href="#DejaVuSans-65" x="1452.775391"/>
      <use xlink:href="#DejaVuSans-20" x="1514.298828"/>
      <use xlink:href="#DejaVuSans-69" x="1546.085938"/>
      <use xlink:href="#DejaVuSans-6e" x="1573.869141"/>
      <use xlink:href="#DejaVuSans-63" x="1637.248047"/>
      <use xlink:href="#DejaVuSans-72" x="1692.228516"/>
      <use xlink:href="#DejaVuSans-65" x="1731.091797"/>
      <use xlink:href="#DejaVuSans-61" x="1792.615234"/>
      <use xlink:href="#DejaVuSans-73" x="1853.894531"/>
      <use xlink:href="#DejaVuSans-65" x="1905.994141"/>
     </g>
    </g>
    <g id="patch_28">
     <path d="M 367.709375 550.960313 
L 387.709375 550.960313 
L 387.709375 543.960313 
L 367.709375 543.960313 
z
" style="fill: #008000; opacity: 0.8; stroke: #008000; stroke-linejoin: miter"/>
    </g>
    <g id="text_42">
     <!--          Higher Texas rate decrease -->
     <g transform="translate(373.709375 550.960313) scale(0.1 -0.1)">
      <defs>
       <path id="DejaVuSans-48" d="M 628 4666 
L 1259 4666 
L 1259 2753 
L 3553 2753 
L 3553 4666 
L 4184 4666 
L 4184 0 
L 3553 0 
L 3553 2222 
L 1259 2222 
L 1259 0 
L 628 0 
L 628 4666 
z
" transform="scale(0.015625)"/>
      </defs>
      <use xlink:href="#DejaVuSans-20"/>
      <use xlink:href="#DejaVuSans-20" x="31.787109"/>
      <use xlink:href="#DejaVuSans-20" x="63.574219"/>
      <use xlink:href="#DejaVuSans-20" x="95.361328"/>
      <use xlink:href="#DejaVuSans-20" x="127.148438"/>
      <use xlink:href="#DejaVuSans-20" x="158.935547"/>
      <use xlink:href="#DejaVuSans-20" x="190.722656"/>
      <use xlink:href="#DejaVuSans-20" x="222.509766"/>
      <use xlink:href="#DejaVuSans-20" x="254.296875"/>
      <use xlink:href="#DejaVuSans-48" x="286.083984"/>
      <use xlink:href="#DejaVuSans-69" x="361.279297"/>
      <use xlink:href="#DejaVuSans-67" x="389.0625"/>
      <use xlink:href="#DejaVuSans-68" x="452.539062"/>
      <use xlink:href="#DejaVuSans-65" x="515.917969"/>
      <use xlink:href="#DejaVuSans-72" x="577.441406"/>
      <use xlink:href="#DejaVuSans-20" x="618.554688"/>
      <use xlink:href="#DejaVuSans-54" x="650.341797"/>
      <use xlink:href="#DejaVuSans-65" x="694.425781"/>
      <use xlink:href="#DejaVuSans-78" x="754.199219"/>
      <use xlink:href="#DejaVuSans-61" x="813.378906"/>
      <use xlink:href="#DejaVuSans-73" x="874.658203"/>
      <use xlink:href="#DejaVuSans-20" x="926.757812"/>
      <use xlink:href="#DejaVuSans-72" x="958.544922"/>
      <use xlink:href="#DejaVuSans-61" x="999.658203"/>
      <use xlink:href="#DejaVuSans-74" x="1060.9375"/>
      <use xlink:href="#DejaVuSans-65" x="1100.146484"/>
      <use xlink:href="#DejaVuSans-20" x="1161.669922"/>
      <use xlink:href="#DejaVuSans-64" x="1193.457031"/>
      <use xlink:href="#DejaVuSans-65" x="1256.933594"/>
      <use xlink:href="#DejaVuSans-63" x="1318.457031"/>
      <use xlink:href="#DejaVuSans-72" x="1373.4375"/>
      <use xlink:href="#DejaVuSans-65" x="1412.300781"/>
      <use xlink:href="#DejaVuSans-61" x="1473.824219"/>
      <use xlink:href="#DejaVuSans-73" x="1535.103516"/>
      <use xlink:href="#DejaVuSans-65" x="1587.203125"/>
     </g>
    </g>
    <g id="patch_29">
     <path d="M 367.709375 565.638438 
L 387.709375 565.638438 
L 387.709375 558.638438 
L 367.709375 558.638438 
z
" style="fill: #800080; opacity: 0.8; stroke: #800080; stroke-linejoin: miter"/>
    </g>
    <g id="text_43">
     <!--          Higher Avg of States rate decrease -->
     <g transform="translate(373.709375 565.638438) scale(0.1 -0.1)">
      <use xlink:href="#DejaVuSans-20"/>
      <use xlink:href="#DejaVuSans-20" x="31.787109"/>
      <use xlink:href="#DejaVuSans-20" x="63.574219"/>
      <use xlink:href="#DejaVuSans-20" x="95.361328"/>
      <use xlink:href="#DejaVuSans-20" x="127.148438"/>
      <use xlink:href="#DejaVuSans-20" x="158.935547"/>
      <use xlink:href="#DejaVuSans-20" x="190.722656"/>
      <use xlink:href="#DejaVuSans-20" x="222.509766"/>
      <use xlink:href="#DejaVuSans-20" x="254.296875"/>
      <use xlink:href="#DejaVuSans-48" x="286.083984"/>
      <use xlink:href="#DejaVuSans-69" x="361.279297"/>
      <use xlink:href="#DejaVuSans-67" x="389.0625"/>
      <use xlink:href="#DejaVuSans-68" x="452.539062"/>
      <use xlink:href="#DejaVuSans-65" x="515.917969"/>
      <use xlink:href="#DejaVuSans-72" x="577.441406"/>
      <use xlink:href="#DejaVuSans-20" x="618.554688"/>
      <use xlink:href="#DejaVuSans-41" x="650.341797"/>
      <use xlink:href="#DejaVuSans-76" x="712.875"/>
      <use xlink:href="#DejaVuSans-67" x="772.054688"/>
      <use xlink:href="#DejaVuSans-20" x="835.53125"/>
      <use xlink:href="#DejaVuSans-6f" x="867.318359"/>
      <use xlink:href="#DejaVuSans-66" x="928.5"/>
      <use xlink:href="#DejaVuSans-20" x="963.705078"/>
      <use xlink:href="#DejaVuSans-53" x="995.492188"/>
      <use xlink:href="#DejaVuSans-74" x="1058.96875"/>
      <use xlink:href="#DejaVuSans-61" x="1098.177734"/>
      <use xlink:href="#DejaVuSans-74" x="1159.457031"/>
      <use xlink:href="#DejaVuSans-65" x="1198.666016"/>
      <use xlink:href="#DejaVuSans-73" x="1260.189453"/>
      <use xlink:href="#DejaVuSans-20" x="1312.289062"/>
      <use xlink:href="#DejaVuSans-72" x="1344.076172"/>
      <use xlink:href="#DejaVuSans-61" x="1385.189453"/>
      <use xlink:href="#DejaVuSans-74" x="1446.46875"/>
      <use xlink:href="#DejaVuSans-65" x="1485.677734"/>
      <use xlink:href="#DejaVuSans-20" x="1547.201172"/>
      <use xlink:href="#DejaVuSans-64" x="1578.988281"/>
      <use xlink:href="#DejaVuSans-65" x="1642.464844"/>
      <use xlink:href="#DejaVuSans-63" x="1703.988281"/>
      <use xlink:href="#DejaVuSans-72" x="1758.96875"/>
      <use xlink:href="#DejaVuSans-65" x="1797.832031"/>
      <use xlink:href="#DejaVuSans-61" x="1859.355469"/>
      <use xlink:href="#DejaVuSans-73" x="1920.634766"/>
      <use xlink:href="#DejaVuSans-65" x="1972.734375"/>
     </g>
    </g>
   </g>
  </g>
 </g>
 <defs>
  <clipPath id="p33e84dc6c1">
   <rect x="56.890625" y="22.318125" width="837" height="554.4"/>
  </clipPath>
 </defs>
</svg>
